<?xml version="1.0" encoding="utf-8"?>
<!-- Generator: Adobe Illustrator 16.0.0, SVG Export Plug-In . SVG Version: 6.00 Build 0)  -->
<!DOCTYPE svg PUBLIC "-//W3C//DTD SVG 1.1//EN" "http://www.w3.org/Graphics/SVG/1.1/DTD/svg11.dtd">
<svg version="1.1" id="Layer_1" xmlns="http://www.w3.org/2000/svg" xmlns:xlink="http://www.w3.org/1999/xlink" x="0px" y="0px"
	 width="432px" height="252px" viewBox="0 0 432 252" enable-background="new 0 0 432 252" xml:space="preserve">
<polygon fill="#FFCC99" points="253.36,114.945 349.36,114.945 349.36,137.945 253.36,137.945 253.36,114.945 "/>
<polygon fill="#FFFFDA" points="252.36,113.945 253.36,113.945 253.36,138.945 252.36,138.945 252.36,113.945 "/>
<polygon fill="#FFFFDA" points="253.36,113.945 349.36,113.945 349.36,114.945 253.36,114.945 253.36,113.945 "/>
<polygon fill="#B28E6B" points="253.36,137.945 350.36,137.945 350.36,138.945 253.36,138.945 253.36,137.945 "/>
<polygon fill="#B28E6B" points="349.36,113.945 350.36,113.945 350.36,137.945 349.36,137.945 349.36,113.945 "/>
<path d="M259.11,123.143h3.43c0.779,0,1.359,0.062,1.77,0.187c0.551,0.157,1.021,0.441,1.41,0.852
	c0.381,0.411,0.68,0.914,0.881,1.508c0.199,0.594,0.299,1.328,0.299,2.203c0,0.76-0.09,1.422-0.279,1.984
	c-0.23,0.677-0.561,1.224-1,1.641c-0.32,0.312-0.76,0.557-1.311,0.734c-0.42,0.136-0.969,0.202-1.67,0.202h-3.529V123.143
	L259.11,123.143z M260.979,124.721v6.172h1.41c0.531,0,0.91-0.031,1.141-0.094c0.301-0.073,0.551-0.2,0.76-0.383
	c0.199-0.183,0.359-0.481,0.49-0.898c0.119-0.417,0.189-0.984,0.189-1.703s-0.07-1.271-0.189-1.656
	c-0.131-0.386-0.301-0.688-0.529-0.907c-0.23-0.218-0.521-0.364-0.881-0.437c-0.26-0.063-0.77-0.094-1.539-0.094H260.979
	L260.979,124.721z M268.42,132.454v-9.312h1.779v3.359c0.551-0.625,1.199-0.937,1.949-0.937c0.82,0,1.5,0.297,2.041,0.89
	c0.539,0.594,0.811,1.448,0.811,2.563c0,1.146-0.281,2.031-0.83,2.656c-0.541,0.625-1.211,0.938-1.99,0.938
	c-0.381,0-0.76-0.097-1.141-0.289c-0.369-0.192-0.699-0.477-0.971-0.852v0.983H268.42L268.42,132.454z M270.18,128.939
	c0,0.698,0.109,1.213,0.33,1.547c0.309,0.479,0.719,0.718,1.24,0.718c0.389,0,0.729-0.169,1-0.507
	c0.279-0.339,0.42-0.873,0.42-1.602c0-0.76-0.141-1.313-0.42-1.656c-0.271-0.344-0.631-0.516-1.07-0.516
	c-0.42,0-0.781,0.167-1.07,0.5C270.331,127.758,270.18,128.263,270.18,128.939L270.18,128.939z M282.399,129.033l1.82,0.578
	c-0.279,1.01-0.75,1.764-1.389,2.258c-0.65,0.494-1.471,0.742-2.471,0.742c-1.24,0-2.26-0.422-3.061-1.266
	c-0.789-0.844-1.189-2-1.189-3.469c0-1.542,0.4-2.742,1.199-3.602c0.801-0.86,1.861-1.289,3.16-1.289
	c1.131,0,2.061,0.338,2.781,1.015c0.42,0.396,0.729,0.969,0.949,1.719l-1.859,0.438c-0.111-0.48-0.34-0.86-0.691-1.141
	c-0.35-0.281-0.779-0.422-1.279-0.422c-0.68,0-1.24,0.247-1.68,0.742c-0.43,0.495-0.641,1.3-0.641,2.415c0,1.167,0.211,2,0.641,2.5
	c0.42,0.5,0.98,0.75,1.65,0.75c0.5,0,0.93-0.159,1.289-0.477S282.25,129.711,282.399,129.033L282.399,129.033z M285.399,128.986
	c0-0.594,0.15-1.167,0.441-1.719c0.289-0.552,0.709-0.974,1.24-1.266c0.539-0.291,1.139-0.437,1.809-0.437
	c1.01,0,1.84,0.331,2.5,0.992c0.65,0.661,0.98,1.497,0.98,2.508c0,1.021-0.33,1.867-0.99,2.539s-1.49,1.008-2.49,1.008
	c-0.619,0-1.209-0.141-1.77-0.422s-0.99-0.689-1.279-1.227C285.549,130.427,285.399,129.768,285.399,128.986L285.399,128.986z
	 M287.229,129.079c0,0.667,0.16,1.181,0.48,1.54c0.311,0.359,0.711,0.539,1.18,0.539c0.471,0,0.861-0.18,1.17-0.539
	c0.311-0.359,0.471-0.878,0.471-1.555c0-0.656-0.16-1.162-0.471-1.516c-0.309-0.354-0.699-0.531-1.17-0.531
	c-0.469,0-0.869,0.177-1.18,0.531C287.389,127.902,287.229,128.413,287.229,129.079L287.229,129.079z M299.889,132.454h-1.779
	v-3.437c0-0.729-0.041-1.201-0.121-1.414c-0.078-0.214-0.199-0.38-0.369-0.5c-0.18-0.12-0.381-0.18-0.619-0.18
	c-0.301,0-0.58,0.086-0.82,0.258c-0.25,0.172-0.41,0.396-0.51,0.672c-0.09,0.276-0.141,0.794-0.141,1.555v3.046h-1.779v-6.733h1.66
	v0.984c0.578-0.76,1.318-1.14,2.209-1.14c0.4,0,0.76,0.07,1.08,0.211c0.33,0.14,0.57,0.32,0.74,0.539
	c0.18,0.219,0.289,0.469,0.359,0.75c0.061,0.281,0.09,0.682,0.09,1.203V132.454L299.889,132.454z M307.831,132.454h-1.781v-3.437
	c0-0.729-0.039-1.201-0.119-1.414c-0.08-0.214-0.201-0.38-0.371-0.5s-0.379-0.18-0.619-0.18c-0.301,0-0.57,0.086-0.82,0.258
	c-0.24,0.172-0.41,0.396-0.51,0.672c-0.09,0.276-0.141,0.794-0.141,1.555v3.046h-1.779v-6.733h1.66v0.984
	c0.58-0.76,1.32-1.14,2.219-1.14c0.391,0,0.75,0.07,1.07,0.211c0.33,0.14,0.57,0.32,0.75,0.539c0.17,0.219,0.281,0.469,0.35,0.75
	c0.061,0.281,0.092,0.682,0.092,1.203V132.454L307.831,132.454z M313.549,130.314l1.77,0.297c-0.229,0.646-0.59,1.141-1.08,1.484
	c-0.488,0.344-1.1,0.516-1.84,0.516c-1.18,0-2.049-0.386-2.609-1.157c-0.449-0.613-0.67-1.385-0.67-2.312
	c0-1.125,0.291-2.003,0.881-2.633c0.59-0.63,1.318-0.945,2.209-0.945c1.01,0,1.801,0.331,2.381,0.992s0.85,1.675,0.82,3.039h-4.471
	c0.02,0.531,0.17,0.942,0.439,1.233c0.27,0.292,0.621,0.438,1.031,0.438c0.279,0,0.52-0.076,0.709-0.227
	C313.299,130.89,313.45,130.647,313.549,130.314L313.549,130.314z M313.649,128.502c-0.01-0.511-0.148-0.901-0.398-1.172
	c-0.262-0.271-0.57-0.407-0.932-0.407c-0.389,0-0.709,0.141-0.969,0.422c-0.25,0.292-0.371,0.677-0.371,1.156H313.649
	L313.649,128.502z M322.75,127.705l-1.762,0.313c-0.059-0.344-0.189-0.604-0.398-0.781c-0.221-0.177-0.49-0.266-0.82-0.266
	c-0.439,0-0.791,0.15-1.061,0.453c-0.26,0.302-0.4,0.817-0.4,1.547c0,0.792,0.141,1.354,0.41,1.688c0.27,0.333,0.631,0.5,1.08,0.5
	c0.34,0,0.621-0.097,0.83-0.289c0.221-0.192,0.371-0.523,0.451-0.992l1.77,0.297c-0.189,0.802-0.541,1.409-1.061,1.82
	c-0.51,0.411-1.199,0.617-2.07,0.617c-0.99,0-1.779-0.313-2.359-0.938s-0.871-1.484-0.871-2.578c0-1.114,0.291-1.982,0.871-2.601
	c0.58-0.62,1.379-0.93,2.391-0.93c0.83,0,1.479,0.177,1.959,0.531C322.2,126.45,322.54,126.986,322.75,127.705L322.75,127.705z
	 M327.2,125.721v1.422h-1.221v2.703c0,0.552,0.01,0.875,0.031,0.969c0.02,0.094,0.08,0.169,0.16,0.227s0.18,0.086,0.299,0.086
	c0.16,0,0.4-0.058,0.721-0.173l0.15,1.392c-0.42,0.177-0.881,0.266-1.4,0.266c-0.33,0-0.621-0.055-0.881-0.164
	s-0.449-0.25-0.57-0.422c-0.119-0.172-0.199-0.404-0.238-0.696c-0.041-0.208-0.061-0.625-0.061-1.25v-2.937h-0.82v-1.422h0.82
	v-1.344l1.789-1.047v2.391H327.2L327.2,125.721z M328.44,124.798v-1.656h1.779v1.656H328.44L328.44,124.798z M328.44,132.454v-6.733
	h1.779v6.733H328.44L328.44,132.454z M331.629,128.986c0-0.594,0.141-1.167,0.43-1.719c0.301-0.552,0.711-0.974,1.25-1.266
	c0.531-0.291,1.131-0.437,1.801-0.437c1.01,0,1.84,0.331,2.5,0.992s0.98,1.497,0.98,2.508c0,1.021-0.33,1.867-0.99,2.539
	s-1.49,1.008-2.49,1.008c-0.609,0-1.199-0.141-1.77-0.422c-0.561-0.281-0.98-0.689-1.281-1.227
	C331.77,130.427,331.629,129.768,331.629,128.986L331.629,128.986z M333.45,129.079c0,0.667,0.16,1.181,0.48,1.54
	s0.709,0.539,1.18,0.539s0.859-0.18,1.17-0.539s0.471-0.878,0.471-1.555c0-0.656-0.16-1.162-0.471-1.516
	c-0.311-0.354-0.699-0.531-1.17-0.531s-0.859,0.177-1.18,0.531C333.61,127.902,333.45,128.413,333.45,129.079L333.45,129.079z
	 M346.11,132.454h-1.779v-3.437c0-0.729-0.041-1.201-0.111-1.414c-0.08-0.214-0.209-0.38-0.379-0.5s-0.381-0.18-0.621-0.18
	c-0.299,0-0.57,0.086-0.82,0.258c-0.238,0.172-0.41,0.396-0.5,0.672c-0.1,0.276-0.148,0.794-0.148,1.555v3.046h-1.781v-6.733h1.66
	v0.984c0.58-0.76,1.32-1.14,2.221-1.14c0.389,0,0.75,0.07,1.08,0.211c0.32,0.14,0.57,0.32,0.74,0.539
	c0.17,0.219,0.289,0.469,0.35,0.75c0.061,0.281,0.09,0.682,0.09,1.203V132.454L346.11,132.454z"/>
<polygon fill="#FFCC99" points="252.36,219.945 348.36,219.945 348.36,242.945 252.36,242.945 252.36,219.945 "/>
<polygon fill="#FFFFDA" points="251.36,218.945 252.36,218.945 252.36,243.945 251.36,243.945 251.36,218.945 "/>
<polygon fill="#FFFFDA" points="252.36,218.945 348.36,218.945 348.36,219.945 252.36,219.945 252.36,218.945 "/>
<polygon fill="#B28E6B" points="252.36,242.945 349.36,242.945 349.36,243.945 252.36,243.945 252.36,242.945 "/>
<polygon fill="#B28E6B" points="348.36,218.945 349.36,218.945 349.36,242.945 348.36,242.945 348.36,218.945 "/>
<path d="M261.53,228.091h3.439c0.77,0,1.361,0.062,1.76,0.187c0.551,0.156,1.021,0.44,1.41,0.853
	c0.381,0.411,0.68,0.914,0.881,1.508c0.199,0.593,0.311,1.328,0.311,2.203c0,0.76-0.102,1.422-0.291,1.983
	c-0.221,0.678-0.561,1.225-1,1.642c-0.32,0.312-0.76,0.557-1.311,0.733c-0.41,0.136-0.969,0.203-1.67,0.203h-3.529V228.091
	L261.53,228.091z M263.399,229.669v6.172h1.41c0.531,0,0.91-0.032,1.141-0.095c0.301-0.072,0.561-0.2,0.76-0.383
	c0.201-0.182,0.371-0.481,0.49-0.897c0.131-0.417,0.189-0.985,0.189-1.703c0-0.719-0.059-1.271-0.189-1.657
	c-0.119-0.385-0.301-0.687-0.529-0.906c-0.23-0.219-0.521-0.364-0.881-0.437c-0.26-0.063-0.77-0.094-1.539-0.094H263.399
	L263.399,229.669z M270.84,237.402v-9.312h1.779v3.358c0.551-0.625,1.199-0.937,1.949-0.937c0.83,0,1.512,0.296,2.041,0.89
	c0.539,0.594,0.811,1.448,0.811,2.563c0,1.146-0.281,2.03-0.82,2.655c-0.551,0.625-1.211,0.938-2,0.938
	c-0.381,0-0.76-0.096-1.141-0.289c-0.369-0.192-0.689-0.476-0.959-0.851v0.983H270.84L270.84,237.402z M272.6,233.888
	c0,0.697,0.109,1.213,0.33,1.546c0.32,0.479,0.73,0.719,1.24,0.719c0.389,0,0.729-0.169,1-0.508c0.279-0.338,0.42-0.872,0.42-1.601
	c0-0.762-0.141-1.313-0.42-1.656c-0.271-0.344-0.631-0.517-1.07-0.517c-0.42,0-0.781,0.167-1.07,0.5
	C272.75,232.704,272.6,233.21,272.6,233.888L272.6,233.888z M278.389,234.371l1.83-0.172c0.111,0.615,0.34,1.065,0.67,1.353
	c0.33,0.286,0.791,0.429,1.361,0.429c0.6,0,1.059-0.127,1.369-0.383c0.301-0.255,0.461-0.554,0.461-0.898
	c0-0.219-0.07-0.405-0.201-0.562c-0.129-0.157-0.359-0.292-0.68-0.407c-0.221-0.073-0.721-0.208-1.5-0.406
	c-1.01-0.25-1.721-0.557-2.119-0.922c-0.57-0.51-0.852-1.135-0.852-1.875c0-0.469,0.141-0.909,0.4-1.32
	c0.27-0.411,0.65-0.727,1.16-0.944c0.5-0.219,1.109-0.329,1.83-0.329c1.17,0,2.051,0.258,2.641,0.774
	c0.59,0.515,0.889,1.199,0.93,2.055l-1.881,0.078c-0.08-0.479-0.25-0.823-0.51-1.032c-0.26-0.208-0.66-0.313-1.189-0.313
	c-0.551,0-0.98,0.109-1.279,0.328c-0.201,0.146-0.301,0.339-0.301,0.578c0,0.219,0.09,0.406,0.27,0.563
	c0.24,0.208,0.811,0.419,1.73,0.632c0.92,0.214,1.59,0.435,2.029,0.665c0.441,0.229,0.781,0.544,1.021,0.945
	c0.25,0.4,0.369,0.897,0.369,1.491c0,0.531-0.15,1.029-0.439,1.492c-0.301,0.464-0.721,0.811-1.26,1.039
	c-0.541,0.229-1.211,0.344-2.021,0.344c-1.17,0-2.08-0.272-2.709-0.819C278.889,236.208,278.51,235.413,278.389,234.371
	L278.389,234.371z M290.62,230.669v1.422h-1.221v2.703c0,0.552,0.012,0.875,0.041,0.969c0.02,0.093,0.07,0.169,0.15,0.226
	c0.08,0.058,0.18,0.086,0.299,0.086c0.16,0,0.4-0.057,0.721-0.172l0.15,1.392c-0.41,0.177-0.881,0.265-1.4,0.265
	c-0.33,0-0.621-0.054-0.881-0.164c-0.26-0.109-0.449-0.25-0.568-0.422c-0.121-0.171-0.201-0.403-0.24-0.695
	c-0.041-0.208-0.061-0.625-0.061-1.25v-2.937h-0.82v-1.422h0.82v-1.345l1.789-1.047v2.392H290.62L290.62,230.669z M293.19,232.716
	l-1.631-0.297c0.191-0.646,0.5-1.125,0.951-1.438c0.439-0.312,1.1-0.468,1.969-0.468c0.811,0,1.4,0.093,1.781,0.281
	c0.389,0.187,0.66,0.427,0.82,0.719c0.17,0.291,0.25,0.822,0.25,1.593l-0.021,2.078c0,0.594,0.031,1.032,0.09,1.313
	c0.051,0.281,0.16,0.583,0.32,0.906h-1.77c-0.051-0.114-0.109-0.291-0.17-0.531c-0.029-0.104-0.051-0.172-0.061-0.202
	c-0.32,0.291-0.639,0.513-0.99,0.664c-0.34,0.15-0.709,0.226-1.109,0.226c-0.689,0-1.24-0.19-1.641-0.57
	c-0.389-0.38-0.59-0.856-0.59-1.43c0-0.375,0.09-0.713,0.271-1.015c0.189-0.303,0.439-0.531,0.77-0.688
	c0.33-0.156,0.799-0.297,1.41-0.422c0.84-0.156,1.41-0.302,1.74-0.438v-0.172c0-0.344-0.092-0.588-0.262-0.733
	c-0.17-0.146-0.488-0.22-0.959-0.22c-0.311,0-0.561,0.063-0.74,0.188C293.45,232.184,293.299,232.402,293.19,232.716L293.19,232.716
	z M295.581,234.169c-0.23,0.072-0.592,0.16-1.092,0.265c-0.488,0.104-0.818,0.209-0.979,0.313c-0.221,0.167-0.34,0.375-0.34,0.625
	s0.09,0.467,0.279,0.648c0.189,0.183,0.42,0.274,0.699,0.274c0.33,0,0.641-0.104,0.932-0.313c0.219-0.156,0.359-0.354,0.42-0.593
	c0.049-0.146,0.08-0.434,0.08-0.86V234.169L295.581,234.169z M302.18,230.669v1.422h-1.221v2.703c0,0.552,0.01,0.875,0.029,0.969
	c0.031,0.093,0.08,0.169,0.16,0.226c0.08,0.058,0.182,0.086,0.301,0.086c0.16,0,0.4-0.057,0.721-0.172l0.148,1.392
	c-0.408,0.177-0.879,0.265-1.398,0.265c-0.33,0-0.621-0.054-0.881-0.164c-0.26-0.109-0.449-0.25-0.57-0.422
	c-0.119-0.171-0.199-0.403-0.24-0.695c-0.039-0.208-0.059-0.625-0.059-1.25v-2.937h-0.82v-1.422h0.82v-1.345l1.789-1.047v2.392
	H302.18L302.18,230.669z M307.319,235.263l1.771,0.296c-0.23,0.646-0.59,1.141-1.08,1.485c-0.49,0.344-1.1,0.515-1.84,0.515
	c-1.182,0-2.051-0.385-2.611-1.156c-0.449-0.614-0.67-1.385-0.67-2.312c0-1.125,0.291-2.003,0.881-2.634
	c0.59-0.63,1.32-0.944,2.209-0.944c1.01,0,1.801,0.33,2.381,0.992c0.58,0.661,0.85,1.674,0.82,3.039h-4.471
	c0.02,0.53,0.17,0.942,0.439,1.233c0.271,0.292,0.621,0.438,1.031,0.438c0.279,0,0.52-0.076,0.709-0.228
	C307.069,235.838,307.219,235.596,307.319,235.263L307.319,235.263z M307.42,233.449c-0.01-0.51-0.15-0.9-0.4-1.172
	c-0.26-0.271-0.57-0.406-0.93-0.406c-0.391,0-0.711,0.142-0.971,0.423c-0.25,0.291-0.369,0.677-0.369,1.155H307.42L307.42,233.449z
	 M310.51,230.669h1.639v0.905c0.59-0.708,1.291-1.062,2.111-1.062c0.42,0,0.799,0.088,1.109,0.265
	c0.32,0.177,0.58,0.443,0.791,0.797c0.289-0.354,0.609-0.62,0.959-0.797c0.34-0.177,0.699-0.265,1.09-0.265
	c0.5,0,0.92,0.099,1.27,0.296c0.34,0.198,0.59,0.495,0.76,0.891c0.131,0.281,0.191,0.745,0.191,1.392v4.312h-1.781v-3.858
	c0-0.667-0.068-1.095-0.189-1.281c-0.17-0.261-0.42-0.392-0.77-0.392c-0.25,0-0.48,0.075-0.701,0.227
	c-0.219,0.152-0.379,0.375-0.479,0.672c-0.09,0.297-0.141,0.763-0.141,1.399v3.233h-1.789v-3.687c0-0.657-0.031-1.081-0.092-1.274
	c-0.059-0.191-0.158-0.336-0.299-0.429c-0.131-0.094-0.311-0.142-0.541-0.142c-0.27,0-0.52,0.075-0.738,0.227
	c-0.221,0.152-0.371,0.365-0.471,0.641c-0.1,0.276-0.15,0.737-0.15,1.383v3.281h-1.779V230.669L310.51,230.669z M326.11,235.263
	l1.77,0.296c-0.23,0.646-0.59,1.141-1.08,1.485c-0.49,0.344-1.1,0.515-1.84,0.515c-1.18,0-2.049-0.385-2.609-1.156
	c-0.451-0.614-0.68-1.385-0.68-2.312c0-1.125,0.299-2.003,0.889-2.634c0.59-0.63,1.32-0.944,2.211-0.944
	c1.01,0,1.799,0.33,2.379,0.992c0.58,0.661,0.852,1.674,0.82,3.039H323.5c0.02,0.53,0.17,0.942,0.439,1.233
	c0.27,0.292,0.619,0.438,1.029,0.438c0.281,0,0.52-0.076,0.701-0.228C325.86,235.838,326.01,235.596,326.11,235.263L326.11,235.263z
	 M326.209,233.449c-0.01-0.51-0.15-0.9-0.4-1.172c-0.26-0.271-0.57-0.406-0.93-0.406c-0.391,0-0.709,0.142-0.969,0.423
	c-0.25,0.291-0.381,0.677-0.381,1.155H326.209L326.209,233.449z M335.559,237.402h-1.779v-3.437c0-0.729-0.041-1.201-0.119-1.414
	c-0.08-0.214-0.201-0.381-0.371-0.5c-0.17-0.12-0.379-0.181-0.619-0.181c-0.301,0-0.57,0.086-0.82,0.259
	c-0.24,0.172-0.41,0.396-0.51,0.672c-0.09,0.275-0.141,0.794-0.141,1.554v3.047h-1.779v-6.733h1.66v0.983
	c0.58-0.76,1.318-1.14,2.219-1.14c0.391,0,0.75,0.07,1.07,0.21c0.33,0.141,0.57,0.321,0.75,0.54c0.17,0.218,0.279,0.468,0.35,0.75
	c0.061,0.281,0.09,0.682,0.09,1.203V237.402L335.559,237.402z M340.469,230.669v1.422h-1.219v2.703c0,0.552,0.01,0.875,0.029,0.969
	c0.02,0.093,0.08,0.169,0.16,0.226c0.08,0.058,0.18,0.086,0.299,0.086c0.16,0,0.4-0.057,0.721-0.172l0.15,1.392
	c-0.42,0.177-0.881,0.265-1.4,0.265c-0.33,0-0.619-0.054-0.879-0.164c-0.262-0.109-0.451-0.25-0.57-0.422
	c-0.121-0.171-0.201-0.403-0.24-0.695c-0.041-0.208-0.061-0.625-0.061-1.25v-2.937h-0.82v-1.422h0.82v-1.345l1.791-1.047v2.392
	H340.469L340.469,230.669z"/>
<polygon fill="#99CCFF" points="253.36,9.945 349.36,9.945 349.36,32.945 253.36,32.945 253.36,9.945 "/>
<polygon fill="#DAFFFF" points="252.36,8.945 253.36,8.945 253.36,33.945 252.36,33.945 252.36,8.945 "/>
<polygon fill="#DAFFFF" points="253.36,8.945 349.36,8.945 349.36,9.945 253.36,9.945 253.36,8.945 "/>
<polygon fill="#6B8EB2" points="253.36,32.945 350.36,32.945 350.36,33.945 253.36,33.945 253.36,32.945 "/>
<polygon fill="#6B8EB2" points="349.36,8.945 350.36,8.945 350.36,32.945 349.36,32.945 349.36,8.945 "/>
<path d="M268.12,18.195h3.439c0.771,0,1.361,0.063,1.771,0.188c0.549,0.156,1.02,0.44,1.398,0.852
	c0.391,0.412,0.682,0.914,0.891,1.508c0.199,0.594,0.301,1.328,0.301,2.203c0,0.76-0.09,1.422-0.281,1.984
	c-0.229,0.677-0.559,1.224-1,1.641c-0.32,0.313-0.76,0.557-1.309,0.734c-0.42,0.135-0.98,0.203-1.67,0.203h-3.541V18.195
	L268.12,18.195z M270,19.773v6.172h1.41c0.529,0,0.908-0.031,1.139-0.094c0.301-0.073,0.551-0.201,0.75-0.383
	c0.211-0.182,0.371-0.482,0.5-0.898c0.121-0.417,0.18-0.984,0.18-1.703s-0.059-1.271-0.18-1.656
	c-0.129-0.385-0.311-0.688-0.539-0.906c-0.221-0.219-0.521-0.365-0.871-0.438c-0.26-0.063-0.779-0.094-1.549-0.094H270L270,19.773z
	 M277.43,27.507v-9.313h1.789v3.359c0.551-0.625,1.201-0.938,1.951-0.938c0.818,0,1.5,0.297,2.039,0.891
	c0.529,0.594,0.801,1.448,0.801,2.563c0,1.146-0.271,2.031-0.82,2.656c-0.551,0.625-1.211,0.938-1.99,0.938
	c-0.391,0-0.77-0.096-1.141-0.289c-0.379-0.193-0.699-0.477-0.969-0.852v0.984H277.43L277.43,27.507z M279.2,23.992
	c0,0.698,0.109,1.213,0.33,1.547c0.311,0.479,0.721,0.719,1.23,0.719c0.4,0,0.729-0.169,1.01-0.508
	c0.279-0.338,0.41-0.873,0.41-1.602c0-0.76-0.131-1.313-0.41-1.656c-0.281-0.344-0.631-0.516-1.07-0.516
	c-0.43,0-0.779,0.167-1.07,0.5C279.34,22.81,279.2,23.314,279.2,23.992L279.2,23.992z M285.44,27.507v-9.313h2.811l1.689,6.359
	l1.67-6.359h2.811v9.313h-1.75v-7.328l-1.84,7.328h-1.811l-1.83-7.328v7.328H285.44L285.44,27.507z M297.61,22.82l-1.621-0.297
	c0.182-0.646,0.5-1.125,0.941-1.438c0.439-0.313,1.1-0.469,1.98-0.469c0.799,0,1.389,0.094,1.779,0.281
	c0.379,0.188,0.66,0.427,0.82,0.719s0.24,0.823,0.24,1.594l-0.012,2.078c0,0.594,0.021,1.031,0.08,1.313
	c0.061,0.281,0.17,0.583,0.32,0.906h-1.76c-0.061-0.115-0.109-0.292-0.18-0.531c-0.029-0.104-0.051-0.172-0.061-0.203
	c-0.309,0.292-0.639,0.513-0.979,0.664c-0.352,0.151-0.721,0.227-1.111,0.227c-0.699,0-1.25-0.19-1.639-0.57
	c-0.4-0.38-0.602-0.857-0.602-1.43c0-0.375,0.09-0.713,0.281-1.016c0.18-0.302,0.43-0.531,0.76-0.688s0.799-0.297,1.42-0.422
	c0.83-0.156,1.41-0.302,1.73-0.438v-0.172c0-0.344-0.09-0.588-0.262-0.734c-0.17-0.146-0.488-0.219-0.959-0.219
	c-0.311,0-0.561,0.063-0.73,0.188C297.87,22.289,297.719,22.507,297.61,22.82L297.61,22.82z M300,24.273
	c-0.23,0.073-0.59,0.162-1.09,0.266c-0.49,0.104-0.82,0.208-0.971,0.313c-0.23,0.167-0.35,0.375-0.35,0.625s0.1,0.466,0.289,0.648
	c0.18,0.182,0.42,0.273,0.701,0.273c0.318,0,0.629-0.104,0.92-0.313c0.219-0.156,0.359-0.354,0.42-0.594
	c0.049-0.146,0.08-0.432,0.08-0.859V24.273L300,24.273z M309.639,27.507h-1.779V24.07c0-0.729-0.041-1.201-0.121-1.414
	c-0.078-0.213-0.199-0.38-0.379-0.5c-0.17-0.12-0.371-0.18-0.609-0.18c-0.311,0-0.58,0.086-0.82,0.258
	c-0.25,0.172-0.42,0.396-0.51,0.672c-0.102,0.276-0.141,0.794-0.141,1.555v3.047H303.5v-6.734h1.648v0.984
	c0.59-0.76,1.33-1.141,2.221-1.141c0.4,0,0.76,0.07,1.08,0.211s0.57,0.32,0.74,0.539s0.289,0.469,0.35,0.75
	c0.07,0.281,0.1,0.682,0.1,1.203V27.507L309.639,27.507z M312.78,22.82l-1.619-0.297c0.18-0.646,0.5-1.125,0.939-1.438
	s1.1-0.469,1.98-0.469c0.799,0,1.389,0.094,1.779,0.281c0.379,0.188,0.66,0.427,0.82,0.719s0.24,0.823,0.24,1.594l-0.01,2.078
	c0,0.594,0.02,1.031,0.078,1.313c0.061,0.281,0.172,0.583,0.32,0.906h-1.76c-0.061-0.115-0.109-0.292-0.18-0.531
	c-0.029-0.104-0.051-0.172-0.061-0.203c-0.309,0.292-0.639,0.513-0.979,0.664c-0.352,0.151-0.721,0.227-1.111,0.227
	c-0.699,0-1.25-0.19-1.639-0.57c-0.4-0.38-0.602-0.857-0.602-1.43c0-0.375,0.102-0.713,0.281-1.016s0.439-0.531,0.76-0.688
	c0.33-0.156,0.799-0.297,1.42-0.422c0.83-0.156,1.41-0.302,1.73-0.438v-0.172c0-0.344-0.08-0.588-0.26-0.734
	c-0.172-0.146-0.49-0.219-0.961-0.219c-0.311,0-0.551,0.063-0.73,0.188S312.899,22.507,312.78,22.82L312.78,22.82z M315.17,24.273
	c-0.23,0.073-0.59,0.162-1.08,0.266c-0.5,0.104-0.82,0.208-0.98,0.313c-0.23,0.167-0.34,0.375-0.34,0.625s0.09,0.466,0.279,0.648
	c0.18,0.182,0.42,0.273,0.701,0.273c0.318,0,0.629-0.104,0.92-0.313c0.219-0.156,0.359-0.354,0.42-0.594
	c0.059-0.146,0.08-0.432,0.08-0.859V24.273L315.17,24.273z M318.51,27.945l2.049,0.25c0.031,0.24,0.111,0.406,0.23,0.5
	c0.17,0.125,0.43,0.188,0.801,0.188c0.459,0,0.809-0.073,1.049-0.219c0.15-0.094,0.271-0.24,0.361-0.438
	c0.049-0.156,0.068-0.432,0.068-0.828v-0.984c-0.529,0.729-1.199,1.094-2.01,1.094c-0.91,0-1.629-0.385-2.16-1.156
	c-0.41-0.604-0.619-1.354-0.619-2.25c0-1.135,0.27-2,0.82-2.594c0.539-0.594,1.219-0.891,2.02-0.891c0.83,0,1.52,0.365,2.061,1.094
	v-0.938h1.67v6.047c0,0.792-0.061,1.385-0.189,1.781c-0.131,0.396-0.32,0.706-0.561,0.93c-0.23,0.224-0.551,0.398-0.951,0.523
	c-0.389,0.125-0.889,0.188-1.5,0.188c-1.129,0-1.939-0.195-2.42-0.586c-0.479-0.391-0.719-0.888-0.719-1.492
	C318.51,28.111,318.51,28.039,318.51,27.945L318.51,27.945z M320.1,23.992c0,0.719,0.139,1.245,0.42,1.578
	c0.27,0.333,0.619,0.5,1.02,0.5c0.439,0,0.811-0.172,1.109-0.516c0.301-0.344,0.451-0.849,0.451-1.516
	c0-0.698-0.141-1.216-0.42-1.555c-0.291-0.338-0.66-0.508-1.111-0.508c-0.42,0-0.779,0.167-1.049,0.5
	C320.239,22.81,320.1,23.314,320.1,23.992L320.1,23.992z M330.53,25.367l1.77,0.297c-0.23,0.646-0.59,1.141-1.08,1.484
	s-1.109,0.516-1.85,0.516c-1.17,0-2.039-0.385-2.609-1.156c-0.441-0.615-0.67-1.385-0.67-2.313c0-1.125,0.299-2.002,0.889-2.633
	c0.58-0.63,1.32-0.945,2.211-0.945c1.01,0,1.799,0.331,2.379,0.992s0.852,1.674,0.82,3.039h-4.469
	c0.02,0.531,0.17,0.943,0.439,1.234s0.609,0.438,1.029,0.438c0.281,0,0.521-0.076,0.701-0.227
	C330.28,25.942,330.43,25.7,330.53,25.367L330.53,25.367z M330.62,23.554c-0.01-0.51-0.141-0.901-0.391-1.172
	c-0.26-0.271-0.568-0.406-0.93-0.406c-0.389,0-0.709,0.141-0.969,0.422c-0.25,0.292-0.381,0.677-0.381,1.156H330.62L330.62,23.554z
	 M335.559,27.507h-1.779v-6.734h1.65v0.953c0.279-0.458,0.539-0.758,0.77-0.898s0.48-0.211,0.76-0.211
	c0.41,0,0.801,0.109,1.18,0.328l-0.549,1.563c-0.301-0.198-0.59-0.297-0.852-0.297c-0.25,0-0.459,0.07-0.629,0.211
	s-0.311,0.391-0.4,0.75c-0.1,0.359-0.15,1.112-0.15,2.258V27.507L335.559,27.507z"/>
<polygon fill="#FFDD00" points="87.36,166.945 183.36,166.945 183.36,189.945 87.36,189.945 87.36,166.945 "/>
<polygon fill="#FFFF00" points="86.36,165.945 87.36,165.945 87.36,190.945 86.36,190.945 86.36,165.945 "/>
<polygon fill="#FFFF00" points="87.36,165.945 183.36,165.945 183.36,166.945 87.36,166.945 87.36,165.945 "/>
<polygon fill="#B29A00" points="87.36,189.945 184.36,189.945 184.36,190.945 87.36,190.945 87.36,189.945 "/>
<polygon fill="#B29A00" points="183.36,165.945 184.36,165.945 184.36,189.945 183.36,189.945 183.36,165.945 "/>
<path d="M99.55,180.336c0-0.948,0.14-1.745,0.42-2.392c0.22-0.469,0.51-0.893,0.88-1.272c0.36-0.381,0.76-0.659,1.2-0.836
	c0.57-0.25,1.24-0.375,2-0.375c1.38,0,2.48,0.427,3.3,1.28c0.82,0.854,1.23,2.036,1.23,3.547c0,1.5-0.41,2.675-1.22,3.523
	c-0.82,0.849-1.91,1.274-3.28,1.274c-1.38,0-2.48-0.423-3.3-1.267S99.55,181.814,99.55,180.336L99.55,180.336z M101.49,180.272
	c0,1.052,0.24,1.849,0.73,2.391c0.49,0.541,1.11,0.813,1.85,0.813c0.75,0,1.36-0.269,1.85-0.804c0.48-0.537,0.73-1.348,0.73-2.431
	c0-1.063-0.24-1.856-0.71-2.383c-0.47-0.525-1.09-0.789-1.87-0.789c-0.77,0-1.4,0.267-1.87,0.797
	C101.73,178.397,101.49,179.199,101.49,180.272L101.49,180.272z M109.96,184.929v-9.313h1.78v3.359c0.55-0.625,1.2-0.938,1.95-0.938
	c0.83,0,1.51,0.298,2.04,0.891c0.54,0.594,0.81,1.448,0.81,2.563c0,1.146-0.28,2.031-0.82,2.656c-0.55,0.625-1.21,0.938-1.99,0.938
	c-0.39,0-0.77-0.098-1.14-0.289c-0.38-0.193-0.7-0.478-0.97-0.853v0.984H109.96L109.96,184.929z M111.73,181.413
	c0,0.698,0.11,1.214,0.32,1.548c0.32,0.479,0.73,0.718,1.24,0.718c0.39,0,0.73-0.169,1.01-0.507c0.27-0.34,0.41-0.873,0.41-1.603
	c0-0.76-0.14-1.313-0.41-1.656c-0.28-0.344-0.64-0.516-1.07-0.516c-0.43,0-0.79,0.167-1.07,0.5
	C111.87,180.23,111.73,180.736,111.73,181.413L111.73,181.413z M117.93,177.272v-1.656h1.78v1.656H117.93L117.93,177.272z
	 M119.71,178.194v6.531c0,0.854-0.05,1.459-0.16,1.813c-0.11,0.354-0.32,0.631-0.64,0.828c-0.32,0.198-0.73,0.297-1.23,0.297
	c-0.17,0-0.36-0.016-0.57-0.047c-0.2-0.03-0.42-0.078-0.66-0.141l0.31-1.531c0.08,0.021,0.16,0.036,0.23,0.047
	c0.08,0.011,0.15,0.016,0.21,0.016c0.19,0,0.34-0.039,0.45-0.117c0.12-0.078,0.19-0.172,0.23-0.281
	c0.03-0.108,0.05-0.439,0.05-0.992v-6.422H119.71L119.71,178.194z M125.5,182.788l1.76,0.298c-0.23,0.645-0.59,1.14-1.08,1.483
	c-0.48,0.344-1.1,0.517-1.84,0.517c-1.18,0-2.05-0.387-2.61-1.157c-0.45-0.614-0.67-1.385-0.67-2.313c0-1.125,0.29-2.003,0.88-2.633
	c0.59-0.63,1.33-0.945,2.21-0.945c1.01,0,1.81,0.33,2.39,0.992c0.57,0.661,0.85,1.674,0.82,3.039h-4.47
	c0.021,0.531,0.16,0.943,0.44,1.234c0.27,0.292,0.61,0.438,1.03,0.438c0.28,0,0.51-0.075,0.7-0.227S125.39,183.121,125.5,182.788
	L125.5,182.788z M125.59,180.976c-0.01-0.51-0.14-0.901-0.4-1.172c-0.25-0.271-0.56-0.406-0.93-0.406c-0.38,0-0.71,0.141-0.97,0.422
	c-0.25,0.292-0.37,0.677-0.37,1.156H125.59L125.59,180.976z M134.7,180.179l-1.77,0.313c-0.05-0.344-0.18-0.604-0.4-0.78
	c-0.21-0.178-0.49-0.267-0.82-0.267c-0.44,0-0.79,0.151-1.05,0.453c-0.27,0.302-0.4,0.818-0.4,1.547c0,0.792,0.13,1.354,0.4,1.688
	c0.28,0.334,0.63,0.5,1.08,0.5c0.35,0,0.63-0.097,0.84-0.289s0.36-0.523,0.44-0.992l1.77,0.297c-0.19,0.802-0.54,1.409-1.05,1.82
	c-0.52,0.412-1.21,0.618-2.08,0.618c-0.98,0-1.77-0.313-2.35-0.938c-0.59-0.625-0.88-1.484-0.88-2.578
	c0-1.115,0.29-1.981,0.88-2.602c0.58-0.619,1.38-0.93,2.39-0.93c0.82,0,1.47,0.178,1.96,0.531
	C134.14,178.924,134.49,179.461,134.7,180.179L134.7,180.179z M139.14,178.194v1.422h-1.21v2.703c0,0.552,0.01,0.875,0.03,0.969
	s0.07,0.17,0.15,0.227c0.09,0.058,0.19,0.086,0.3,0.086c0.17,0,0.41-0.057,0.72-0.172l0.16,1.391c-0.42,0.177-0.89,0.267-1.41,0.267
	c-0.32,0-0.62-0.056-0.88-0.164c-0.26-0.11-0.45-0.25-0.57-0.422c-0.12-0.173-0.2-0.404-0.24-0.696
	c-0.04-0.208-0.06-0.625-0.06-1.25v-2.938h-0.81v-1.422h0.81v-1.344l1.8-1.047v2.391H139.14L139.14,178.194z M139.91,181.897
	l1.83-0.172c0.11,0.615,0.34,1.065,0.67,1.352c0.33,0.286,0.79,0.43,1.359,0.43c0.6,0,1.061-0.127,1.37-0.382
	c0.31-0.257,0.46-0.556,0.46-0.899c0-0.219-0.07-0.406-0.2-0.563c-0.13-0.156-0.35-0.292-0.68-0.406
	c-0.21-0.072-0.71-0.208-1.5-0.406c-1.01-0.25-1.71-0.557-2.12-0.922c-0.56-0.51-0.84-1.135-0.84-1.875
	c0-0.468,0.13-0.909,0.39-1.32c0.27-0.411,0.65-0.727,1.16-0.945c0.5-0.219,1.12-0.327,1.84-0.327c1.16,0,2.04,0.257,2.63,0.772
	c0.59,0.517,0.9,1.201,0.93,2.055l-1.88,0.078c-0.08-0.479-0.25-0.822-0.51-1.03c-0.26-0.209-0.66-0.313-1.19-0.313
	c-0.55,0-0.98,0.109-1.28,0.328c-0.2,0.146-0.3,0.339-0.3,0.578c0,0.219,0.09,0.407,0.27,0.563c0.24,0.208,0.82,0.419,1.73,0.634
	c0.92,0.213,1.6,0.435,2.03,0.663c0.44,0.229,0.78,0.545,1.03,0.945c0.24,0.401,0.36,0.898,0.36,1.492
	c0,0.531-0.14,1.029-0.44,1.492c-0.3,0.464-0.72,0.81-1.26,1.039c-0.54,0.229-1.21,0.344-2.01,0.344c-1.18,0-2.09-0.273-2.72-0.82
	C140.41,183.733,140.04,182.939,139.91,181.897L139.91,181.897z M152.14,178.194v1.422h-1.21v2.703c0,0.552,0.01,0.875,0.03,0.969
	s0.07,0.17,0.15,0.227c0.09,0.058,0.19,0.086,0.3,0.086c0.17,0,0.41-0.057,0.72-0.172l0.16,1.391c-0.42,0.177-0.89,0.267-1.41,0.267
	c-0.32,0-0.62-0.056-0.88-0.164c-0.26-0.11-0.45-0.25-0.57-0.422c-0.12-0.173-0.2-0.404-0.24-0.696
	c-0.04-0.208-0.06-0.625-0.06-1.25v-2.938h-0.81v-1.422h0.81v-1.344l1.8-1.047v2.391H152.14L152.14,178.194z M152.96,181.461
	c0-0.595,0.14-1.167,0.44-1.72c0.29-0.552,0.7-0.974,1.24-1.266c0.53-0.291,1.14-0.438,1.8-0.438c1.01,0,1.85,0.33,2.5,0.992
	c0.66,0.661,0.99,1.497,0.99,2.508c0,1.021-0.33,1.867-1,2.539c-0.66,0.673-1.49,1.009-2.49,1.009c-0.61,0-1.2-0.142-1.76-0.423
	c-0.57-0.281-0.99-0.689-1.28-1.227C153.1,182.9,152.96,182.241,152.96,181.461L152.96,181.461z M154.79,181.554
	c0,0.667,0.16,1.18,0.47,1.539c0.32,0.359,0.71,0.539,1.18,0.539c0.47,0,0.86-0.18,1.17-0.539c0.32-0.359,0.47-0.877,0.47-1.555
	c0-0.656-0.15-1.161-0.47-1.516c-0.31-0.354-0.7-0.531-1.17-0.531c-0.47,0-0.86,0.178-1.18,0.531
	C154.95,180.377,154.79,180.888,154.79,181.554L154.79,181.554z M163.02,184.929h-1.78v-6.734h1.66v0.953
	c0.28-0.458,0.54-0.758,0.76-0.897c0.23-0.142,0.49-0.212,0.77-0.212c0.41,0,0.8,0.109,1.17,0.328l-0.54,1.563
	c-0.31-0.198-0.59-0.297-0.85-0.297c-0.25,0-0.46,0.07-0.63,0.211s-0.311,0.391-0.41,0.75c-0.1,0.359-0.15,1.111-0.15,2.258V184.929
	L163.02,184.929z M170.29,182.788l1.76,0.298c-0.23,0.645-0.59,1.14-1.08,1.483c-0.49,0.344-1.1,0.517-1.84,0.517
	c-1.18,0-2.05-0.387-2.61-1.157c-0.45-0.614-0.67-1.385-0.67-2.313c0-1.125,0.29-2.003,0.88-2.633c0.59-0.63,1.33-0.945,2.21-0.945
	c1.01,0,1.81,0.33,2.39,0.992c0.57,0.661,0.85,1.674,0.82,3.039h-4.47c0.02,0.531,0.16,0.943,0.43,1.234
	c0.28,0.292,0.62,0.438,1.04,0.438c0.28,0,0.51-0.075,0.7-0.227S170.18,183.121,170.29,182.788L170.29,182.788z M170.38,180.976
	c-0.01-0.51-0.14-0.901-0.4-1.172c-0.25-0.271-0.56-0.406-0.93-0.406c-0.38,0-0.71,0.141-0.97,0.422
	c-0.25,0.292-0.37,0.677-0.37,1.156H170.38L170.38,180.976z"/>
<path fill="none" stroke="#000000" stroke-miterlimit="1.45" d="M11.61,103.493h60v15h15v31.785h-75V103.493z M71.61,103.493v15h15
	L71.61,103.493z"/>
<path fill="#404040" d="M33.69,116.897v-8.593h3.25c0.56,0,0.99,0.026,1.29,0.078c0.43,0.073,0.79,0.208,1.08,0.406
	c0.28,0.198,0.51,0.474,0.68,0.828s0.26,0.745,0.26,1.172c0,0.729-0.23,1.346-0.69,1.852c-0.47,0.505-1.31,0.757-2.53,0.757h-2.2
	v3.5H33.69L33.69,116.897z M34.83,112.397h2.22c0.74,0,1.26-0.138,1.57-0.414c0.3-0.276,0.46-0.664,0.46-1.164
	c0-0.354-0.09-0.659-0.271-0.914c-0.19-0.255-0.42-0.424-0.72-0.508c-0.19-0.052-0.55-0.078-1.06-0.078h-2.2V112.397L34.83,112.397z
	 M45.64,116.897v-0.922c-0.48,0.709-1.15,1.063-1.98,1.063c-0.36,0-0.71-0.07-1.02-0.211c-0.32-0.141-0.56-0.318-0.71-0.531
	c-0.16-0.214-0.27-0.477-0.33-0.789c-0.04-0.198-0.06-0.526-0.06-0.985v-3.843h1.06v3.453c0,0.541,0.02,0.911,0.061,1.109
	c0.06,0.271,0.2,0.487,0.41,0.649c0.22,0.161,0.49,0.242,0.81,0.242c0.31,0,0.61-0.081,0.88-0.242c0.28-0.162,0.48-0.383,0.6-0.665
	c0.12-0.281,0.18-0.687,0.18-1.218v-3.328h1.041v6.218H45.64L45.64,116.897z M49.21,116.897h-0.99v-8.593h1.07v3.062
	c0.45-0.552,1.01-0.828,1.7-0.828c0.39,0,0.75,0.075,1.09,0.227c0.34,0.151,0.62,0.367,0.84,0.648c0.22,0.281,0.4,0.62,0.52,1.016
	c0.13,0.395,0.19,0.817,0.19,1.265c0,1.063-0.26,1.886-0.8,2.469c-0.53,0.583-1.16,0.875-1.89,0.875c-0.74,0-1.31-0.307-1.73-0.922
	V116.897L49.21,116.897z M49.19,113.742c0,0.74,0.11,1.276,0.32,1.609c0.33,0.542,0.78,0.813,1.34,0.813
	c0.46,0,0.86-0.198,1.2-0.594c0.33-0.396,0.5-0.995,0.5-1.797c0-0.812-0.16-1.411-0.48-1.797c-0.32-0.385-0.71-0.578-1.17-0.578
	s-0.86,0.201-1.2,0.602S49.19,112.981,49.19,113.742L49.19,113.742z M54.88,116.897v-8.593h1.07v8.593H54.88L54.88,116.897z
	 M57.58,109.522v-1.218h1.06v1.218H57.58L57.58,109.522z M57.58,116.897v-6.218h1.06v6.218H57.58L57.58,116.897z M64.31,114.617
	l1.03,0.141c-0.11,0.708-0.41,1.265-0.87,1.672c-0.47,0.406-1.05,0.609-1.72,0.609c-0.86,0-1.54-0.279-2.06-0.836
	c-0.51-0.557-0.77-1.357-0.77-2.398c0-0.667,0.11-1.253,0.33-1.758c0.23-0.505,0.57-0.883,1.02-1.133
	c0.45-0.25,0.95-0.375,1.49-0.375c0.67,0,1.22,0.169,1.65,0.508c0.43,0.338,0.709,0.825,0.839,1.461l-1.03,0.156
	c-0.1-0.417-0.27-0.732-0.52-0.945c-0.25-0.214-0.55-0.321-0.91-0.321c-0.53,0-0.96,0.19-1.29,0.571c-0.34,0.38-0.5,0.981-0.5,1.804
	c0,0.844,0.16,1.453,0.48,1.828c0.32,0.375,0.74,0.563,1.25,0.563c0.42,0,0.76-0.125,1.04-0.375
	C64.05,115.539,64.23,115.147,64.31,114.617L64.31,114.617z"/>
<path fill="#404040" d="M14.13,129.739l1.03-0.155c0.06,0.417,0.23,0.733,0.49,0.952c0.27,0.22,0.65,0.328,1.14,0.328
	c0.48,0,0.83-0.096,1.07-0.289c0.23-0.192,0.35-0.424,0.35-0.694c0-0.24-0.11-0.428-0.31-0.563c-0.15-0.093-0.51-0.213-1.08-0.358
	c-0.77-0.198-1.31-0.367-1.6-0.509c-0.3-0.141-0.53-0.336-0.68-0.585c-0.16-0.25-0.24-0.531-0.24-0.845
	c0-0.27,0.06-0.526,0.19-0.765c0.12-0.24,0.3-0.438,0.52-0.594c0.16-0.115,0.39-0.214,0.67-0.297c0.28-0.083,0.59-0.125,0.92-0.125
	c0.48,0,0.9,0.07,1.27,0.211c0.37,0.141,0.65,0.331,0.82,0.57c0.18,0.24,0.3,0.558,0.36,0.954l-1.03,0.141
	c-0.04-0.313-0.17-0.561-0.4-0.743c-0.22-0.182-0.54-0.273-0.96-0.273c-0.48,0-0.82,0.08-1.03,0.242
	c-0.21,0.161-0.31,0.351-0.31,0.57c0,0.135,0.04,0.254,0.12,0.359c0.1,0.115,0.23,0.209,0.41,0.282c0.1,0.041,0.42,0.13,0.94,0.265
	c0.75,0.209,1.27,0.375,1.56,0.5s0.52,0.309,0.69,0.547c0.16,0.24,0.25,0.542,0.25,0.906c0,0.355-0.11,0.685-0.31,0.993
	c-0.2,0.307-0.5,0.546-0.88,0.718c-0.39,0.172-0.82,0.258-1.31,0.258c-0.82,0-1.43-0.169-1.86-0.508
	C14.51,130.894,14.24,130.396,14.13,129.739L14.13,129.739z M24.8,129.6l1.1,0.125c-0.17,0.635-0.49,1.13-0.96,1.484
	c-0.47,0.354-1.06,0.53-1.78,0.53c-0.9,0-1.63-0.28-2.161-0.844c-0.54-0.562-0.81-1.349-0.81-2.359c0-1.042,0.27-1.852,0.82-2.43
	c0.54-0.578,1.23-0.867,2.09-0.867c0.83,0,1.51,0.281,2.04,0.844c0.52,0.562,0.79,1.359,0.79,2.391c0,0.062,0,0.156,0,0.281h-4.64
	c0.04,0.687,0.23,1.211,0.57,1.569c0.35,0.359,0.78,0.539,1.3,0.539c0.39,0,0.72-0.101,0.99-0.305
	C24.43,130.356,24.65,130.036,24.8,129.6L24.8,129.6z M21.35,127.896h3.47c-0.04-0.53-0.17-0.927-0.39-1.187
	c-0.35-0.406-0.78-0.609-1.32-0.609c-0.48,0-0.89,0.161-1.22,0.484C21.56,126.907,21.38,127.344,21.35,127.896L21.35,127.896z
	 M27.19,131.6v-8.594h1.07v8.594H27.19L27.19,131.6z M30.14,131.6v-5.407H29.2v-0.812h0.94v-0.672c0-0.417,0.04-0.724,0.11-0.922
	c0.11-0.281,0.29-0.505,0.54-0.672c0.26-0.167,0.61-0.25,1.07-0.25c0.3,0,0.63,0.037,0.99,0.11l-0.16,0.906
	c-0.22-0.031-0.43-0.047-0.63-0.047c-0.32,0-0.55,0.068-0.68,0.203c-0.13,0.135-0.19,0.391-0.19,0.766v0.578h1.22v0.812h-1.22v5.407
	H30.14L30.14,131.6z M32.8,129.021v-1.062h3.25v1.062H32.8L32.8,129.021z M41.28,130.834c-0.39,0.333-0.77,0.567-1.13,0.702
	c-0.36,0.136-0.75,0.203-1.16,0.203c-0.69,0-1.22-0.167-1.58-0.5c-0.371-0.333-0.55-0.76-0.55-1.28c0-0.303,0.07-0.581,0.21-0.837
	c0.13-0.255,0.31-0.458,0.54-0.608c0.23-0.151,0.49-0.263,0.77-0.336c0.2-0.063,0.51-0.12,0.94-0.172
	c0.84-0.095,1.46-0.215,1.87-0.36c0-0.146,0-0.233,0-0.265c0-0.438-0.1-0.745-0.3-0.922c-0.27-0.229-0.67-0.344-1.2-0.344
	c-0.49,0-0.85,0.086-1.09,0.258c-0.24,0.172-0.42,0.477-0.53,0.915l-1.04-0.142c0.1-0.437,0.25-0.791,0.47-1.062
	c0.22-0.271,0.53-0.479,0.94-0.625c0.41-0.146,0.88-0.219,1.41-0.219c0.53,0,0.96,0.063,1.29,0.188
	c0.34,0.125,0.58,0.281,0.74,0.468c0.15,0.188,0.26,0.427,0.33,0.719c0.03,0.177,0.04,0.5,0.04,0.969v1.405
	c0,0.979,0.03,1.6,0.07,1.86c0.05,0.26,0.14,0.51,0.28,0.75h-1.11C41.38,131.381,41.32,131.126,41.28,130.834L41.28,130.834z
	 M41.19,128.475c-0.38,0.156-0.96,0.291-1.72,0.406c-0.44,0.062-0.74,0.133-0.92,0.211s-0.31,0.189-0.41,0.336
	c-0.1,0.145-0.15,0.312-0.15,0.5c0,0.281,0.1,0.515,0.32,0.703c0.21,0.187,0.52,0.28,0.93,0.28c0.4,0,0.77-0.089,1.08-0.266
	c0.32-0.177,0.55-0.421,0.7-0.734c0.11-0.239,0.17-0.589,0.17-1.047V128.475L41.19,128.475z M43.47,129.739l1.04-0.155
	c0.06,0.417,0.22,0.733,0.49,0.952c0.26,0.22,0.64,0.328,1.13,0.328c0.48,0,0.84-0.096,1.07-0.289c0.23-0.192,0.35-0.424,0.35-0.694
	c0-0.24-0.1-0.428-0.31-0.563c-0.15-0.093-0.51-0.213-1.08-0.358c-0.77-0.198-1.3-0.367-1.6-0.509c-0.3-0.141-0.52-0.336-0.68-0.585
	c-0.16-0.25-0.23-0.531-0.23-0.845c0-0.27,0.06-0.526,0.18-0.765c0.13-0.24,0.3-0.438,0.52-0.594c0.17-0.115,0.39-0.214,0.67-0.297
	c0.28-0.083,0.59-0.125,0.92-0.125c0.48,0,0.91,0.07,1.28,0.211c0.37,0.141,0.64,0.331,0.82,0.57c0.17,0.24,0.29,0.558,0.36,0.954
	l-1.04,0.141c-0.04-0.313-0.17-0.561-0.39-0.743c-0.23-0.182-0.55-0.273-0.96-0.273c-0.48,0-0.83,0.08-1.04,0.242
	c-0.2,0.161-0.31,0.351-0.31,0.57c0,0.135,0.04,0.254,0.13,0.359c0.09,0.115,0.23,0.209,0.4,0.282c0.11,0.041,0.42,0.13,0.94,0.265
	c0.75,0.209,1.27,0.375,1.56,0.5s0.52,0.309,0.69,0.547c0.17,0.24,0.25,0.542,0.25,0.906c0,0.355-0.1,0.685-0.3,0.993
	c-0.21,0.307-0.5,0.546-0.89,0.718c-0.38,0.172-0.82,0.258-1.31,0.258c-0.81,0-1.43-0.169-1.85-0.508
	C43.86,130.894,43.59,130.396,43.47,129.739L43.47,129.739z M49.47,129.739l1.04-0.155c0.06,0.417,0.22,0.733,0.49,0.952
	c0.26,0.22,0.64,0.328,1.13,0.328c0.48,0,0.84-0.096,1.07-0.289c0.23-0.192,0.35-0.424,0.35-0.694c0-0.24-0.1-0.428-0.31-0.563
	c-0.15-0.093-0.51-0.213-1.08-0.358c-0.77-0.198-1.3-0.367-1.6-0.509c-0.3-0.141-0.52-0.336-0.68-0.585
	c-0.16-0.25-0.23-0.531-0.23-0.845c0-0.27,0.06-0.526,0.18-0.765c0.13-0.24,0.3-0.438,0.52-0.594c0.17-0.115,0.39-0.214,0.67-0.297
	c0.28-0.083,0.59-0.125,0.92-0.125c0.48,0,0.91,0.07,1.28,0.211c0.37,0.141,0.64,0.331,0.82,0.57c0.17,0.24,0.29,0.558,0.36,0.954
	l-1.04,0.141c-0.04-0.313-0.17-0.561-0.39-0.743c-0.23-0.182-0.55-0.273-0.96-0.273c-0.48,0-0.83,0.08-1.04,0.242
	c-0.2,0.161-0.31,0.351-0.31,0.57c0,0.135,0.04,0.254,0.13,0.359c0.09,0.115,0.23,0.209,0.4,0.282c0.11,0.041,0.42,0.13,0.94,0.265
	c0.75,0.209,1.27,0.375,1.56,0.5s0.52,0.309,0.69,0.547c0.17,0.24,0.25,0.542,0.25,0.906c0,0.355-0.1,0.685-0.3,0.993
	c-0.21,0.307-0.5,0.546-0.89,0.718c-0.38,0.172-0.82,0.258-1.31,0.258c-0.81,0-1.43-0.169-1.85-0.508
	C49.86,130.894,49.59,130.396,49.47,129.739L49.47,129.739z M55.9,124.225v-1.219h1.06v1.219H55.9L55.9,124.225z M55.9,131.6v-6.219
	h1.06v6.219H55.9L55.9,131.6z M58.36,132.114l1.03,0.156c0.04,0.313,0.16,0.542,0.36,0.688c0.26,0.197,0.61,0.297,1.06,0.297
	c0.49,0,0.87-0.1,1.13-0.297c0.27-0.198,0.45-0.47,0.54-0.813c0.07-0.218,0.09-0.671,0.08-1.359c-0.46,0.542-1.03,0.813-1.72,0.813
	c-0.85,0-1.51-0.311-1.98-0.93c-0.47-0.62-0.7-1.357-0.7-2.211c0-0.594,0.1-1.144,0.32-1.649c0.21-0.505,0.52-0.893,0.93-1.164
	c0.4-0.27,0.88-0.406,1.43-0.406c0.74,0,1.35,0.297,1.83,0.891v-0.75h0.97v5.375c0,0.969-0.1,1.655-0.3,2.062
	c-0.19,0.407-0.51,0.728-0.93,0.961c-0.43,0.235-0.96,0.353-1.58,0.353c-0.74,0-1.34-0.167-1.8-0.5
	C58.57,133.297,58.35,132.792,58.36,132.114L58.36,132.114z M59.23,128.381c0,0.812,0.17,1.405,0.49,1.78s0.73,0.563,1.22,0.563
	c0.49,0,0.9-0.188,1.22-0.563c0.33-0.375,0.5-0.958,0.5-1.75c0-0.76-0.17-1.333-0.51-1.719c-0.34-0.385-0.75-0.578-1.23-0.578
	c-0.47,0-0.87,0.19-1.19,0.57C59.4,127.065,59.23,127.631,59.23,128.381L59.23,128.381z M65.24,131.6v-6.219h0.93v0.875
	c0.46-0.677,1.12-1.016,1.99-1.016c0.37,0,0.72,0.068,1.04,0.203c0.31,0.136,0.55,0.313,0.71,0.532
	c0.15,0.218,0.26,0.473,0.33,0.765c0.03,0.198,0.04,0.542,0.04,1.031v3.829h-1.04v-3.782c0-0.437-0.05-0.76-0.13-0.968
	c-0.08-0.209-0.23-0.378-0.44-0.508c-0.21-0.131-0.45-0.196-0.73-0.196c-0.45,0-0.84,0.144-1.17,0.43
	c-0.32,0.287-0.49,0.826-0.49,1.617v3.407H65.24L65.24,131.6z M76.16,129.6l1.09,0.125c-0.16,0.635-0.48,1.13-0.95,1.484
	c-0.47,0.354-1.06,0.53-1.78,0.53c-0.91,0-1.63-0.28-2.17-0.844c-0.53-0.562-0.8-1.349-0.8-2.359c0-1.042,0.27-1.852,0.81-2.43
	s1.24-0.867,2.1-0.867c0.83,0,1.51,0.281,2.04,0.844c0.52,0.562,0.78,1.359,0.78,2.391c0,0.062,0,0.156,0,0.281h-4.64
	c0.05,0.687,0.24,1.211,0.58,1.569c0.35,0.359,0.78,0.539,1.3,0.539c0.38,0,0.72-0.101,0.99-0.305
	C75.79,130.356,76,130.036,76.16,129.6L76.16,129.6z M72.71,127.896h3.47c-0.05-0.53-0.18-0.927-0.4-1.187
	c-0.34-0.406-0.78-0.609-1.31-0.609c-0.49,0-0.9,0.161-1.22,0.484C72.92,126.907,72.74,127.344,72.71,127.896L72.71,127.896z
	 M82.61,131.6v-0.782c-0.39,0.615-0.97,0.922-1.73,0.922c-0.5,0-0.96-0.138-1.37-0.414c-0.42-0.275-0.74-0.658-0.97-1.147
	c-0.23-0.49-0.35-1.052-0.35-1.688c0-0.614,0.11-1.177,0.32-1.687c0.2-0.511,0.52-0.899,0.93-1.164
	c0.42-0.266,0.88-0.399,1.39-0.399c0.38,0,0.71,0.078,1,0.235c0.3,0.156,0.53,0.359,0.72,0.609v-3.078h1.05v8.594H82.61L82.61,131.6
	z M79.29,128.489c0,0.803,0.16,1.399,0.5,1.789c0.33,0.392,0.73,0.586,1.18,0.586c0.46,0,0.85-0.187,1.18-0.562
	c0.32-0.375,0.48-0.948,0.48-1.719c0-0.854-0.16-1.479-0.49-1.875s-0.73-0.594-1.21-0.594c-0.47,0-0.86,0.19-1.17,0.57
	C79.44,127.065,79.29,127.666,79.29,128.489L79.29,128.489z"/>
<path fill="#404040" d="M27.56,138.926v-1.219h1.06v1.219H27.56L27.56,138.926z M27.56,146.301v-6.219h1.06v6.219H27.56
	L27.56,146.301z M30.22,146.301v-6.219h0.94v0.875c0.46-0.678,1.12-1.017,1.98-1.017c0.38,0,0.73,0.068,1.04,0.203
	c0.32,0.136,0.56,0.313,0.71,0.532c0.16,0.218,0.271,0.474,0.33,0.765c0.03,0.198,0.05,0.542,0.05,1.032v3.828h-1.05v-3.782
	c0-0.437-0.04-0.76-0.12-0.968c-0.09-0.209-0.23-0.378-0.439-0.508c-0.21-0.131-0.45-0.195-0.73-0.195
	c-0.45,0-0.84,0.143-1.17,0.429c-0.33,0.287-0.49,0.826-0.49,1.617v3.407H30.22L30.22,146.301z M36.47,144.44l1.04-0.156
	c0.06,0.417,0.22,0.734,0.49,0.953c0.26,0.22,0.64,0.328,1.13,0.328c0.48,0,0.84-0.096,1.07-0.289c0.24-0.191,0.35-0.424,0.35-0.694
	c0-0.24-0.1-0.428-0.31-0.563c-0.15-0.093-0.5-0.213-1.08-0.359c-0.77-0.197-1.3-0.366-1.6-0.508c-0.3-0.14-0.52-0.336-0.68-0.586
	c-0.16-0.25-0.23-0.531-0.23-0.843c0-0.271,0.06-0.526,0.18-0.766c0.13-0.24,0.3-0.438,0.52-0.595c0.17-0.113,0.39-0.213,0.67-0.297
	c0.28-0.083,0.59-0.125,0.92-0.125c0.48,0,0.91,0.071,1.28,0.211c0.37,0.142,0.64,0.331,0.82,0.571
	c0.17,0.239,0.291,0.557,0.36,0.953l-1.03,0.14c-0.05-0.312-0.18-0.56-0.4-0.742c-0.23-0.182-0.55-0.272-0.96-0.272
	c-0.48,0-0.83,0.08-1.04,0.242c-0.2,0.16-0.31,0.351-0.31,0.569c0,0.137,0.04,0.255,0.13,0.36c0.09,0.114,0.23,0.208,0.4,0.281
	c0.11,0.041,0.42,0.13,0.94,0.265c0.75,0.209,1.27,0.375,1.56,0.5c0.3,0.125,0.52,0.308,0.69,0.547c0.17,0.24,0.25,0.542,0.25,0.907
	c0,0.354-0.1,0.684-0.3,0.992c-0.21,0.307-0.5,0.547-0.89,0.719c-0.38,0.171-0.82,0.257-1.31,0.257c-0.81,0-1.43-0.169-1.85-0.507
	C36.86,145.595,36.59,145.098,36.47,144.44L36.47,144.44z M45.19,145.362l0.16,0.922c-0.3,0.063-0.57,0.095-0.8,0.095
	c-0.38,0-0.68-0.061-0.89-0.181s-0.35-0.278-0.44-0.476c-0.09-0.198-0.14-0.615-0.14-1.25v-3.579h-0.76v-0.812h0.76v-1.548
	l1.05-0.625v2.173h1.06v0.812h-1.06v3.641c0,0.303,0.02,0.495,0.06,0.578c0.03,0.084,0.09,0.151,0.18,0.203
	c0.08,0.052,0.2,0.078,0.35,0.078C44.85,145.394,45.01,145.384,45.19,145.362L45.19,145.362z M50.29,145.534
	c-0.39,0.333-0.77,0.568-1.13,0.703c-0.36,0.136-0.75,0.203-1.16,0.203c-0.69,0-1.22-0.166-1.58-0.5
	c-0.37-0.333-0.55-0.76-0.55-1.281c0-0.302,0.07-0.581,0.2-0.836c0.14-0.255,0.32-0.458,0.55-0.608
	c0.23-0.151,0.49-0.264,0.77-0.336c0.2-0.063,0.51-0.12,0.93-0.172c0.85-0.095,1.47-0.215,1.88-0.359c0-0.146,0-0.235,0-0.266
	c0-0.438-0.1-0.745-0.3-0.923c-0.27-0.229-0.67-0.344-1.2-0.344c-0.49,0-0.85,0.086-1.09,0.258c-0.24,0.172-0.42,0.478-0.54,0.914
	l-1.03-0.14c0.1-0.438,0.25-0.792,0.47-1.063c0.22-0.271,0.53-0.479,0.94-0.625c0.41-0.146,0.87-0.219,1.41-0.219
	c0.53,0,0.96,0.063,1.29,0.188c0.34,0.125,0.58,0.28,0.74,0.469c0.15,0.187,0.26,0.427,0.33,0.718c0.03,0.177,0.04,0.5,0.04,0.969
	v1.406c0,0.979,0.03,1.599,0.07,1.86c0.05,0.26,0.14,0.51,0.28,0.75H50.5C50.39,146.082,50.32,145.826,50.29,145.534L50.29,145.534z
	 M50.2,143.176c-0.39,0.156-0.96,0.291-1.72,0.406c-0.44,0.062-0.74,0.133-0.92,0.211c-0.18,0.077-0.32,0.189-0.42,0.336
	c-0.09,0.146-0.14,0.312-0.14,0.5c0,0.28,0.1,0.515,0.32,0.703c0.21,0.187,0.52,0.28,0.93,0.28c0.4,0,0.76-0.088,1.08-0.265
	c0.32-0.178,0.55-0.422,0.7-0.735c0.11-0.238,0.17-0.588,0.17-1.047V143.176L50.2,143.176z M52.9,146.301v-6.219h0.94v0.875
	c0.46-0.678,1.12-1.017,1.99-1.017c0.37,0,0.72,0.068,1.04,0.203c0.31,0.136,0.55,0.313,0.71,0.532
	c0.15,0.218,0.26,0.474,0.32,0.765c0.04,0.198,0.05,0.542,0.05,1.032v3.828H56.9v-3.782c0-0.437-0.04-0.76-0.12-0.968
	c-0.08-0.209-0.23-0.378-0.44-0.508c-0.21-0.131-0.45-0.195-0.73-0.195c-0.45,0-0.84,0.143-1.17,0.429
	c-0.32,0.287-0.49,0.826-0.49,1.617v3.407H52.9L52.9,146.301z M63.64,144.019l1.03,0.141c-0.11,0.708-0.4,1.267-0.87,1.673
	c-0.47,0.405-1.04,0.608-1.72,0.608c-0.86,0-1.54-0.278-2.06-0.836c-0.51-0.557-0.77-1.356-0.77-2.397
	c0-0.668,0.11-1.254,0.34-1.759c0.22-0.505,0.56-0.883,1.01-1.133c0.46-0.25,0.95-0.375,1.49-0.375c0.67,0,1.22,0.17,1.65,0.508
	c0.43,0.339,0.71,0.826,0.84,1.461l-1.03,0.156c-0.1-0.416-0.27-0.73-0.52-0.945c-0.25-0.214-0.55-0.319-0.9-0.319
	c-0.54,0-0.97,0.189-1.3,0.569c-0.331,0.381-0.5,0.982-0.5,1.806c0,0.843,0.16,1.453,0.48,1.828c0.33,0.375,0.74,0.562,1.25,0.562
	c0.42,0,0.77-0.125,1.04-0.375C63.38,144.94,63.56,144.551,63.64,144.019L63.64,144.019z M69.83,144.301l1.09,0.125
	c-0.16,0.635-0.48,1.13-0.95,1.483c-0.47,0.354-1.06,0.531-1.78,0.531c-0.91,0-1.63-0.281-2.17-0.843c-0.53-0.563-0.8-1.35-0.8-2.36
	c0-1.041,0.27-1.851,0.81-2.429c0.54-0.579,1.24-0.868,2.1-0.868c0.83,0,1.51,0.282,2.03,0.844c0.53,0.563,0.79,1.359,0.79,2.392
	c0,0.062,0,0.156,0,0.281h-4.64c0.04,0.687,0.24,1.211,0.58,1.569c0.34,0.36,0.78,0.539,1.3,0.539c0.38,0,0.71-0.101,0.99-0.304
	C69.46,145.059,69.67,144.737,69.83,144.301L69.83,144.301z M66.38,142.598h3.46c-0.04-0.532-0.17-0.928-0.39-1.188
	c-0.34-0.405-0.78-0.608-1.31-0.608c-0.49,0-0.9,0.161-1.23,0.483C66.59,141.607,66.41,142.045,66.38,142.598L66.38,142.598z"/>
<line fill="none" stroke="#000000" stroke-miterlimit="1.45" stroke-dasharray="6,2" x1="302.35" y1="139.363" x2="301.18" y2="204.328"/>
<polygon fill="#FFFFFF" points="300.911,219.325 307.2,203.438 295.2,203.221 "/>
<polygon fill="none" stroke="#000000" stroke-miterlimit="1.45" points="300.911,219.325 307.2,203.438 295.2,203.221 "/>
<path d="M260.85,181.042l1.139,0.172c-0.359,0.989-0.889,1.736-1.578,2.241c-0.682,0.506-1.451,0.759-2.311,0.759
	c-1.041,0-1.871-0.318-2.48-0.953c-0.6-0.636-0.91-1.547-0.91-2.734c0-1.542,0.461-2.823,1.391-3.844
	c0.83-0.896,1.869-1.344,3.09-1.344c0.91,0,1.65,0.245,2.209,0.733c0.561,0.49,0.891,1.146,0.98,1.97l-1.08,0.094
	c-0.1-0.625-0.33-1.089-0.68-1.392c-0.359-0.302-0.82-0.452-1.381-0.452c-1.049,0-1.898,0.464-2.549,1.391
	c-0.561,0.802-0.84,1.76-0.84,2.875c0,0.875,0.219,1.547,0.65,2.015c0.43,0.47,1,0.704,1.689,0.704c0.6,0,1.141-0.196,1.609-0.586
	C260.28,182.3,260.629,181.75,260.85,181.042L260.85,181.042z M262.69,184.072l1.299-6.218h0.932l-0.26,1.265
	c0.318-0.479,0.639-0.833,0.939-1.062c0.311-0.229,0.619-0.344,0.93-0.344c0.221,0,0.48,0.072,0.779,0.219l-0.43,0.984
	c-0.18-0.125-0.379-0.188-0.6-0.188c-0.369,0-0.75,0.205-1.15,0.617c-0.391,0.411-0.689,1.153-0.91,2.226l-0.529,2.5H262.69
	L262.69,184.072z M271.25,181.964l1.029,0.094c-0.15,0.51-0.49,0.997-1.02,1.461c-0.541,0.463-1.17,0.695-1.9,0.695
	c-0.471,0-0.9-0.107-1.279-0.32c-0.391-0.214-0.682-0.524-0.881-0.93c-0.199-0.406-0.301-0.87-0.301-1.392
	c0-0.677,0.16-1.336,0.471-1.976c0.32-0.642,0.721-1.115,1.221-1.422c0.5-0.308,1.039-0.461,1.629-0.461
	c0.74,0,1.33,0.229,1.77,0.688c0.441,0.458,0.66,1.088,0.66,1.891c0,0.302-0.02,0.614-0.068,0.938H268
	c-0.021,0.114-0.031,0.224-0.031,0.328c0,0.583,0.131,1.026,0.4,1.328s0.6,0.453,0.99,0.453c0.359,0,0.721-0.117,1.07-0.353
	C270.78,182.753,271.049,182.411,271.25,181.964L271.25,181.964z M268.17,180.417h3.479c0.012-0.114,0.021-0.193,0.021-0.234
	c0-0.531-0.131-0.938-0.4-1.219c-0.26-0.281-0.609-0.422-1.02-0.422c-0.461,0-0.881,0.155-1.25,0.469
	C268.62,179.322,268.35,179.792,268.17,180.417L268.17,180.417z M277.549,183.292c-0.369,0.322-0.719,0.557-1.061,0.702
	c-0.34,0.146-0.699,0.22-1.1,0.22c-0.57,0-1.029-0.169-1.379-0.509c-0.35-0.338-0.531-0.772-0.531-1.304
	c0-0.344,0.08-0.648,0.24-0.915c0.15-0.265,0.361-0.479,0.621-0.64c0.26-0.162,0.59-0.279,0.969-0.353
	c0.24-0.052,0.691-0.091,1.361-0.116c0.67-0.026,1.139-0.097,1.42-0.211c0.09-0.292,0.129-0.531,0.129-0.72
	c0-0.25-0.09-0.441-0.27-0.578c-0.25-0.197-0.609-0.297-1.08-0.297c-0.439,0-0.811,0.1-1.09,0.297
	c-0.279,0.198-0.49,0.479-0.619,0.845l-1.07-0.095c0.219-0.613,0.57-1.086,1.039-1.414c0.48-0.327,1.07-0.491,1.791-0.491
	c0.77,0,1.379,0.182,1.83,0.547c0.34,0.271,0.52,0.625,0.52,1.062c0,0.334-0.051,0.72-0.15,1.157l-0.34,1.547
	c-0.109,0.489-0.17,0.891-0.17,1.203c0,0.198,0.051,0.479,0.141,0.843h-1.08C277.61,183.864,277.569,183.604,277.549,183.292
	L277.549,183.292z M277.94,180.917c-0.15,0.063-0.311,0.109-0.48,0.141s-0.459,0.062-0.85,0.094
	c-0.621,0.052-1.051,0.122-1.311,0.21c-0.25,0.089-0.439,0.225-0.57,0.407c-0.129,0.182-0.199,0.383-0.199,0.601
	c0,0.303,0.109,0.548,0.311,0.735c0.209,0.188,0.5,0.281,0.879,0.281c0.35,0,0.691-0.091,1.01-0.274
	c0.33-0.182,0.58-0.439,0.771-0.772C277.69,182.006,277.831,181.531,277.94,180.917L277.94,180.917z M282.5,183.214l-0.17,0.858
	c-0.25,0.073-0.5,0.11-0.73,0.11c-0.43,0-0.77-0.104-1.02-0.313c-0.191-0.155-0.281-0.369-0.281-0.64
	c0-0.136,0.051-0.448,0.15-0.938l0.75-3.625h-0.82l0.17-0.813h0.83l0.32-1.532l1.211-0.733l-0.471,2.266h1.049l-0.18,0.813h-1.039
	l-0.721,3.438c-0.1,0.438-0.139,0.703-0.139,0.797c0,0.125,0.029,0.218,0.109,0.281c0.07,0.062,0.189,0.094,0.359,0.094
	C282.12,183.276,282.319,183.256,282.5,183.214L282.5,183.214z M287.93,181.964l1.029,0.094c-0.15,0.51-0.49,0.997-1.02,1.461
	c-0.541,0.463-1.17,0.695-1.9,0.695c-0.471,0-0.9-0.107-1.279-0.32c-0.391-0.214-0.68-0.524-0.881-0.93
	c-0.199-0.406-0.289-0.87-0.289-1.392c0-0.677,0.148-1.336,0.459-1.976c0.32-0.642,0.721-1.115,1.221-1.422
	c0.5-0.308,1.039-0.461,1.629-0.461c0.74,0,1.33,0.229,1.771,0.688c0.439,0.458,0.67,1.088,0.67,1.891
	c0,0.302-0.031,0.614-0.08,0.938h-4.58c-0.02,0.114-0.031,0.224-0.031,0.328c0,0.583,0.131,1.026,0.4,1.328
	c0.281,0.302,0.6,0.453,0.99,0.453c0.359,0,0.721-0.117,1.07-0.353C287.459,182.753,287.729,182.411,287.93,181.964L287.93,181.964z
	 M284.85,180.417h3.49c0.01-0.114,0.01-0.193,0.01-0.234c0-0.531-0.131-0.938-0.4-1.219c-0.26-0.281-0.6-0.422-1.02-0.422
	c-0.461,0-0.881,0.155-1.25,0.469C285.299,179.322,285.03,179.792,284.85,180.417L284.85,180.417z"/>
<polyline fill="none" stroke="#000000" stroke-miterlimit="1.45" points="322.219,219.338 322.639,219.105 329.581,215.131 
	336.11,211.132 342.11,207.102 347.489,203.035 352.139,198.927 355.95,194.77 358.831,190.558 360.67,186.285 361.36,181.945 
	360.84,177.535 359.17,173.058 356.45,168.52 352.799,163.927 348.319,159.285 343.11,154.602 337.27,149.882 330.92,145.131 
	328.469,143.406 328.389,143.351 "/>
<polygon points="322.649,139.344 331.25,139.251 334.129,147.357 325.53,147.45 "/>
<path d="M373.2,177.06l1.141,0.172c-0.371,0.99-0.891,1.737-1.58,2.242c-0.691,0.505-1.461,0.758-2.311,0.758
	c-1.039,0-1.869-0.318-2.48-0.953c-0.609-0.636-0.91-1.547-0.91-2.734c0-1.541,0.461-2.822,1.391-3.844
	c0.83-0.896,1.859-1.344,3.09-1.344c0.91,0,1.641,0.245,2.211,0.734c0.559,0.489,0.889,1.146,0.979,1.969l-1.08,0.094
	c-0.1-0.625-0.33-1.089-0.689-1.391c-0.35-0.302-0.811-0.453-1.369-0.453c-1.051,0-1.9,0.464-2.551,1.391
	c-0.561,0.803-0.84,1.761-0.84,2.875c0,0.875,0.211,1.548,0.65,2.016c0.43,0.469,0.99,0.703,1.689,0.703
	c0.6,0,1.131-0.195,1.609-0.585C372.629,178.317,372.979,177.768,373.2,177.06L373.2,177.06z M375.04,180.091l1.779-8.594h1.061
	l-0.689,3.297c0.4-0.375,0.77-0.646,1.1-0.813c0.34-0.167,0.689-0.25,1.061-0.25c0.51,0,0.91,0.135,1.189,0.406
	c0.291,0.271,0.43,0.63,0.43,1.078c0,0.219-0.059,0.62-0.18,1.203l-0.77,3.672h-1.061l0.791-3.766
	c0.119-0.552,0.18-0.896,0.18-1.031c0-0.208-0.07-0.375-0.211-0.5c-0.139-0.125-0.35-0.188-0.619-0.188
	c-0.391,0-0.75,0.099-1.1,0.297c-0.34,0.198-0.611,0.472-0.811,0.82c-0.201,0.349-0.381,0.914-0.541,1.695l-0.568,2.672H375.04
	L375.04,180.091z M383.209,172.7l0.25-1.203h1.061l-0.26,1.203H383.209L383.209,172.7z M381.661,180.091l1.299-6.218h1.061
	l-1.291,6.218H381.661L381.661,180.091z M384.28,180.091l1.801-8.594h1.059l-1.799,8.594H384.28L384.28,180.091z M391.229,179.185
	c-0.6,0.698-1.229,1.047-1.889,1.047c-0.59,0-1.09-0.219-1.48-0.656s-0.58-1.067-0.58-1.891c0-0.76,0.15-1.453,0.459-2.078
	c0.301-0.625,0.691-1.094,1.16-1.406c0.471-0.313,0.941-0.469,1.41-0.469c0.771,0,1.352,0.37,1.75,1.109l0.701-3.344h1.049
	l-1.779,8.594h-0.99L391.229,179.185L391.229,179.185z M388.319,177.481c0,0.438,0.051,0.781,0.141,1.031
	c0.08,0.25,0.23,0.459,0.43,0.625c0.211,0.167,0.451,0.25,0.75,0.25c0.471,0,0.91-0.25,1.311-0.75
	c0.52-0.666,0.779-1.489,0.779-2.469c0-0.489-0.129-0.872-0.389-1.148s-0.58-0.414-0.971-0.414c-0.25,0-0.48,0.055-0.699,0.164
	c-0.211,0.109-0.42,0.3-0.621,0.57c-0.199,0.271-0.379,0.618-0.52,1.039C388.389,176.802,388.319,177.169,388.319,177.481
	L388.319,177.481z M393.719,180.091l1.291-6.218h0.939l-0.27,1.265c0.33-0.479,0.639-0.833,0.949-1.063
	c0.311-0.229,0.621-0.344,0.93-0.344c0.221,0,0.48,0.073,0.781,0.219l-0.441,0.984c-0.17-0.125-0.369-0.187-0.59-0.187
	c-0.379,0-0.76,0.204-1.148,0.616c-0.391,0.411-0.691,1.153-0.91,2.227l-0.531,2.5H393.719L393.719,180.091z M402.27,177.981
	l1.039,0.094c-0.148,0.511-0.49,0.997-1.029,1.461c-0.529,0.464-1.17,0.695-1.9,0.695c-0.469,0-0.891-0.106-1.279-0.32
	c-0.381-0.214-0.67-0.523-0.871-0.93c-0.199-0.406-0.299-0.87-0.299-1.391c0-0.678,0.16-1.336,0.469-1.977
	c0.311-0.641,0.721-1.114,1.221-1.422c0.5-0.307,1.041-0.461,1.619-0.461c0.74,0,1.33,0.229,1.781,0.688
	c0.439,0.459,0.66,1.089,0.66,1.891c0,0.302-0.031,0.615-0.08,0.938h-4.58c-0.02,0.113-0.031,0.224-0.031,0.327
	c0,0.583,0.141,1.026,0.41,1.328c0.271,0.302,0.602,0.453,0.98,0.453c0.371,0,0.73-0.117,1.07-0.352
	C401.799,178.771,402.081,178.43,402.27,177.981L402.27,177.981z M399.2,176.435h3.48c0.01-0.114,0.02-0.193,0.02-0.234
	c0-0.531-0.141-0.938-0.4-1.219c-0.27-0.281-0.609-0.422-1.029-0.422c-0.451,0-0.871,0.156-1.25,0.469
	C399.649,175.341,399.37,175.81,399.2,176.435L399.2,176.435z M404.389,180.091l1.291-6.218h0.959l-0.219,1.077
	c0.41-0.427,0.799-0.736,1.17-0.93c0.359-0.193,0.729-0.289,1.109-0.289c0.5,0,0.891,0.135,1.18,0.406
	c0.281,0.271,0.43,0.636,0.43,1.094c0,0.229-0.049,0.594-0.139,1.094l-0.801,3.766h-1.061l0.83-3.938
	c0.08-0.386,0.121-0.672,0.121-0.859c0-0.208-0.07-0.375-0.211-0.5c-0.139-0.125-0.35-0.188-0.619-0.188
	c-0.541,0-1.02,0.195-1.451,0.586c-0.43,0.392-0.74,1.061-0.939,2.008l-0.609,2.891H404.389L404.389,180.091z"/>
<path d="M369.2,191.761l1.141,0.172c-0.371,0.99-0.891,1.737-1.58,2.242c-0.691,0.506-1.461,0.758-2.311,0.758
	c-1.051,0-1.869-0.318-2.48-0.953c-0.609-0.635-0.91-1.547-0.91-2.734c0-1.542,0.461-2.822,1.391-3.844
	c0.83-0.896,1.859-1.344,3.09-1.344c0.91,0,1.641,0.245,2.199,0.735c0.57,0.488,0.891,1.145,0.99,1.968l-1.08,0.094
	c-0.1-0.625-0.33-1.089-0.689-1.391c-0.35-0.303-0.811-0.453-1.369-0.453c-1.061,0-1.9,0.464-2.551,1.391
	c-0.561,0.802-0.84,1.76-0.84,2.875c0,0.875,0.211,1.547,0.641,2.017c0.439,0.468,1,0.702,1.699,0.702
	c0.59,0,1.131-0.195,1.609-0.586C368.629,193.019,368.979,192.47,369.2,191.761L369.2,191.761z M371.219,192.433
	c0-1.219,0.361-2.224,1.061-3.015c0.6-0.657,1.369-0.985,2.33-0.985c0.75,0,1.359,0.235,1.811,0.703
	c0.459,0.469,0.689,1.099,0.689,1.891c0,0.719-0.141,1.385-0.439,2c-0.291,0.614-0.701,1.086-1.23,1.414s-1.09,0.492-1.689,0.492
	c-0.48,0-0.91-0.104-1.311-0.313c-0.4-0.209-0.701-0.503-0.91-0.883C371.331,193.357,371.219,192.923,371.219,192.433
	L371.219,192.433z M372.27,192.323c0,0.583,0.141,1.026,0.42,1.328s0.641,0.453,1.08,0.453c0.23,0,0.449-0.044,0.68-0.133
	c0.221-0.088,0.43-0.227,0.619-0.414c0.182-0.188,0.342-0.401,0.48-0.64c0.141-0.24,0.24-0.5,0.33-0.782
	c0.121-0.385,0.189-0.755,0.189-1.109c0-0.563-0.148-1-0.43-1.313c-0.289-0.313-0.65-0.469-1.07-0.469
	c-0.34,0-0.639,0.08-0.908,0.242c-0.271,0.161-0.521,0.394-0.74,0.695c-0.23,0.302-0.391,0.656-0.5,1.063
	C372.319,191.651,372.27,192.011,372.27,192.323L372.27,192.323z M377.61,194.793l1.801-8.595h1.059l-1.789,8.595H377.61
	L377.61,194.793z M380.28,194.793l1.801-8.595h1.059l-1.799,8.595H380.28L380.28,194.793z M387.6,192.683l1.029,0.094
	c-0.141,0.51-0.48,0.997-1.02,1.461c-0.541,0.463-1.17,0.695-1.9,0.695c-0.471,0-0.891-0.107-1.279-0.32
	c-0.381-0.214-0.68-0.523-0.871-0.93c-0.199-0.406-0.299-0.87-0.299-1.39c0-0.679,0.15-1.336,0.469-1.978
	c0.311-0.641,0.721-1.115,1.221-1.422s1.039-0.461,1.619-0.461c0.74,0,1.33,0.229,1.771,0.688c0.449,0.458,0.67,1.089,0.67,1.891
	c0,0.302-0.031,0.615-0.08,0.938h-4.58c-0.02,0.114-0.031,0.225-0.031,0.328c0,0.583,0.141,1.026,0.41,1.328
	c0.271,0.302,0.602,0.453,0.98,0.453c0.371,0,0.721-0.117,1.07-0.351C387.129,193.472,387.399,193.131,387.6,192.683L387.6,192.683z
	 M384.52,191.136h3.49c0.01-0.114,0.01-0.192,0.01-0.234c0-0.531-0.131-0.938-0.391-1.219c-0.27-0.281-0.609-0.422-1.029-0.422
	c-0.461,0-0.871,0.157-1.25,0.469C384.979,190.043,384.7,190.511,384.52,191.136L384.52,191.136z M394,192.526l1.059,0.109
	c-0.26,0.782-0.639,1.359-1.129,1.734s-1.041,0.563-1.67,0.563c-0.68,0-1.23-0.219-1.65-0.656s-0.631-1.047-0.631-1.828
	c0-0.688,0.131-1.359,0.41-2.016c0.271-0.656,0.65-1.153,1.15-1.492s1.07-0.508,1.721-0.508c0.67,0,1.199,0.188,1.59,0.563
	c0.389,0.375,0.58,0.875,0.58,1.5l-1.031,0.063c-0.01-0.396-0.129-0.703-0.35-0.922c-0.219-0.218-0.52-0.328-0.879-0.328
	c-0.432,0-0.801,0.133-1.111,0.399c-0.309,0.265-0.559,0.674-0.74,1.226c-0.17,0.552-0.26,1.078-0.26,1.578
	c0,0.532,0.111,0.93,0.352,1.196c0.229,0.265,0.52,0.397,0.869,0.397c0.34,0,0.67-0.13,0.98-0.391
	C393.569,193.453,393.819,193.058,394,192.526L394,192.526z M398.18,193.933l-0.17,0.86c-0.25,0.071-0.49,0.108-0.73,0.108
	c-0.43,0-0.77-0.104-1.02-0.313c-0.191-0.156-0.281-0.369-0.281-0.641c0-0.136,0.051-0.447,0.16-0.938l0.75-3.625h-0.83l0.17-0.813
	h0.83l0.33-1.53l1.201-0.735l-0.471,2.266h1.051l-0.17,0.813h-1.051l-0.721,3.438c-0.09,0.438-0.139,0.703-0.139,0.797
	c0,0.125,0.039,0.219,0.109,0.281s0.189,0.094,0.359,0.094C397.799,193.995,398.01,193.975,398.18,193.933L398.18,193.933z
	 M400.549,187.401l0.25-1.203h1.061l-0.27,1.203H400.549L400.549,187.401z M399,194.793l1.299-6.22h1.061l-1.301,6.22H399
	L399,194.793z M401.899,192.433c0-1.219,0.361-2.224,1.061-3.015c0.6-0.657,1.371-0.985,2.33-0.985c0.75,0,1.359,0.235,1.811,0.703
	c0.459,0.469,0.689,1.099,0.689,1.891c0,0.719-0.141,1.385-0.439,2c-0.291,0.614-0.701,1.086-1.23,1.414s-1.09,0.492-1.689,0.492
	c-0.48,0-0.91-0.104-1.311-0.313c-0.4-0.209-0.699-0.503-0.91-0.883C402.01,193.357,401.899,192.923,401.899,192.433
	L401.899,192.433z M402.95,192.323c0,0.583,0.141,1.026,0.42,1.328s0.641,0.453,1.08,0.453c0.23,0,0.449-0.044,0.68-0.133
	c0.221-0.088,0.43-0.227,0.621-0.414c0.18-0.188,0.34-0.401,0.479-0.64c0.131-0.24,0.24-0.5,0.33-0.782
	c0.121-0.385,0.191-0.755,0.191-1.109c0-0.563-0.15-1-0.432-1.313c-0.289-0.313-0.648-0.469-1.068-0.469
	c-0.34,0-0.641,0.08-0.91,0.242c-0.271,0.161-0.521,0.394-0.74,0.695c-0.23,0.302-0.391,0.656-0.5,1.063
	C403,191.651,402.95,192.011,402.95,192.323L402.95,192.323z M408.389,194.793l1.291-6.22h0.959l-0.219,1.078
	c0.42-0.427,0.809-0.737,1.17-0.93c0.369-0.192,0.74-0.289,1.109-0.289c0.5,0,0.891,0.136,1.18,0.406
	c0.291,0.271,0.43,0.636,0.43,1.094c0,0.229-0.049,0.594-0.139,1.094l-0.801,3.767h-1.061l0.83-3.938
	c0.08-0.385,0.121-0.672,0.121-0.859c0-0.209-0.07-0.375-0.211-0.5c-0.139-0.125-0.34-0.188-0.619-0.188
	c-0.541,0-1.02,0.195-1.451,0.586c-0.43,0.391-0.74,1.06-0.939,2.008l-0.609,2.892H408.389L408.389,194.793z"/>
<polyline fill="none" stroke="#000000" stroke-miterlimit="1.45" points="323.02,114.372 324.76,113.372 331.729,109.167 
	338.28,104.954 344.299,100.727 349.68,96.484 354.319,92.224 358.12,87.941 360.959,83.637 362.739,79.305 363.36,74.945 
	362.739,70.555 360.959,66.137 358.12,61.691 354.319,57.223 349.68,52.734 344.299,48.227 338.28,43.704 331.729,39.168 
	330.309,38.243 330.229,38.19 "/>
<polygon points="324.36,34.371 332.959,34 336.09,42.009 327.5,42.38 "/>
<path d="M375.29,70.607l1.141,0.172c-0.371,0.99-0.891,1.737-1.58,2.242c-0.689,0.505-1.461,0.758-2.311,0.758
	c-1.039,0-1.869-0.317-2.48-0.953c-0.609-0.635-0.91-1.547-0.91-2.734c0-1.542,0.461-2.823,1.391-3.844
	c0.83-0.896,1.859-1.344,3.09-1.344c0.91,0,1.641,0.245,2.201,0.734c0.568,0.49,0.898,1.146,0.988,1.969l-1.08,0.094
	c-0.1-0.625-0.328-1.088-0.689-1.391c-0.35-0.302-0.811-0.453-1.369-0.453c-1.051,0-1.9,0.464-2.551,1.391
	c-0.561,0.802-0.84,1.761-0.84,2.875c0,0.875,0.211,1.547,0.65,2.016c0.43,0.469,0.99,0.703,1.689,0.703
	c0.6,0,1.131-0.195,1.609-0.586C374.719,71.865,375.069,71.316,375.29,70.607L375.29,70.607z M377.129,73.639l1.781-8.594h1.059
	l-0.689,3.297c0.4-0.375,0.77-0.646,1.1-0.813c0.34-0.167,0.689-0.25,1.061-0.25c0.51,0,0.91,0.136,1.189,0.406
	c0.291,0.271,0.43,0.63,0.43,1.078c0,0.219-0.059,0.62-0.18,1.203l-0.77,3.672h-1.061l0.791-3.766
	c0.119-0.552,0.18-0.896,0.18-1.031c0-0.208-0.07-0.375-0.211-0.5c-0.148-0.125-0.35-0.188-0.619-0.188
	c-0.391,0-0.75,0.099-1.1,0.297c-0.34,0.198-0.611,0.472-0.811,0.82c-0.199,0.349-0.381,0.914-0.541,1.695l-0.568,2.672H377.129
	L377.129,73.639z M385.299,66.248l0.25-1.203h1.061l-0.26,1.203H385.299L385.299,66.248z M383.75,73.639l1.299-6.219h1.061
	l-1.291,6.219H383.75L383.75,73.639z M386.37,73.639l1.801-8.594h1.059l-1.799,8.594H386.37L386.37,73.639z M393.319,72.732
	c-0.6,0.698-1.238,1.047-1.889,1.047c-0.6,0-1.09-0.219-1.48-0.656s-0.58-1.067-0.58-1.891c0-0.76,0.15-1.453,0.461-2.078
	c0.299-0.625,0.689-1.094,1.158-1.406c0.471-0.313,0.941-0.469,1.41-0.469c0.771,0,1.352,0.37,1.75,1.109l0.701-3.344h1.049
	l-1.779,8.594h-0.99L393.319,72.732L393.319,72.732z M390.411,71.029c0,0.438,0.049,0.781,0.139,1.031
	c0.08,0.25,0.23,0.458,0.43,0.625c0.211,0.167,0.451,0.25,0.75,0.25c0.471,0,0.91-0.25,1.311-0.75
	c0.52-0.667,0.779-1.489,0.779-2.469c0-0.489-0.129-0.872-0.389-1.148c-0.26-0.276-0.58-0.414-0.971-0.414
	c-0.25,0-0.48,0.055-0.699,0.164c-0.211,0.109-0.42,0.3-0.621,0.57c-0.199,0.271-0.379,0.617-0.52,1.039
	S390.411,70.717,390.411,71.029L390.411,71.029z M395.809,73.639l1.291-6.219h0.939l-0.27,1.266c0.33-0.479,0.641-0.833,0.949-1.063
	c0.311-0.229,0.621-0.344,0.93-0.344c0.221,0,0.48,0.073,0.781,0.219l-0.441,0.984c-0.17-0.125-0.369-0.188-0.59-0.188
	c-0.379,0-0.76,0.206-1.148,0.617c-0.391,0.412-0.691,1.154-0.91,2.227l-0.531,2.5H395.809L395.809,73.639z M404.36,71.529
	l1.039,0.094c-0.148,0.511-0.488,0.998-1.029,1.461c-0.529,0.464-1.17,0.695-1.9,0.695c-0.469,0-0.889-0.106-1.279-0.32
	c-0.381-0.213-0.67-0.523-0.871-0.93c-0.199-0.406-0.299-0.87-0.299-1.391c0-0.677,0.16-1.336,0.469-1.977
	c0.311-0.641,0.721-1.114,1.221-1.422c0.5-0.307,1.041-0.461,1.621-0.461c0.738,0,1.33,0.229,1.779,0.688
	c0.439,0.458,0.66,1.089,0.66,1.891c0,0.302-0.031,0.615-0.08,0.938h-4.58c-0.02,0.115-0.029,0.224-0.029,0.328
	c0,0.583,0.139,1.026,0.408,1.328c0.271,0.302,0.602,0.453,0.98,0.453c0.371,0,0.721-0.117,1.07-0.352S404.17,71.978,404.36,71.529
	L404.36,71.529z M401.29,69.982h3.48c0.01-0.114,0.02-0.192,0.02-0.234c0-0.531-0.141-0.938-0.4-1.219
	c-0.27-0.281-0.609-0.422-1.029-0.422c-0.449,0-0.871,0.156-1.25,0.469C401.739,68.889,401.459,69.357,401.29,69.982L401.29,69.982z
	 M406.479,73.639l1.291-6.219h0.959l-0.219,1.078c0.41-0.427,0.799-0.737,1.17-0.93c0.359-0.192,0.73-0.289,1.109-0.289
	c0.5,0,0.891,0.136,1.18,0.406c0.281,0.271,0.43,0.636,0.43,1.094c0,0.229-0.049,0.594-0.139,1.094l-0.801,3.766h-1.061l0.83-3.938
	c0.08-0.385,0.121-0.672,0.121-0.859c0-0.208-0.07-0.375-0.211-0.5c-0.139-0.125-0.35-0.188-0.619-0.188
	c-0.541,0-1.02,0.195-1.451,0.586c-0.43,0.391-0.738,1.06-0.939,2.008l-0.609,2.891H406.479L406.479,73.639z"/>
<path d="M371.29,85.309l1.141,0.172c-0.371,0.99-0.891,1.737-1.58,2.242c-0.689,0.506-1.461,0.758-2.311,0.758
	c-1.051,0-1.869-0.318-2.48-0.953c-0.609-0.635-0.91-1.547-0.91-2.734c0-1.542,0.461-2.823,1.391-3.844
	c0.83-0.896,1.859-1.344,3.09-1.344c0.91,0,1.641,0.245,2.201,0.735c0.568,0.489,0.889,1.145,0.988,1.968l-1.08,0.094
	c-0.109-0.625-0.328-1.089-0.689-1.391c-0.35-0.302-0.811-0.453-1.369-0.453c-1.061,0-1.9,0.464-2.551,1.391
	c-0.561,0.802-0.84,1.76-0.84,2.875c0,0.875,0.211,1.547,0.641,2.016c0.439,0.468,1,0.703,1.699,0.703
	c0.59,0,1.131-0.196,1.609-0.586C370.719,86.566,371.069,86.018,371.29,85.309L371.29,85.309z M373.309,85.98
	c0-1.219,0.361-2.224,1.061-3.015c0.6-0.657,1.369-0.985,2.33-0.985c0.75,0,1.359,0.235,1.811,0.703
	c0.459,0.469,0.689,1.099,0.689,1.891c0,0.719-0.141,1.385-0.439,2c-0.291,0.614-0.701,1.086-1.23,1.414
	c-0.529,0.328-1.09,0.492-1.689,0.492c-0.48,0-0.91-0.104-1.311-0.312c-0.4-0.209-0.699-0.503-0.91-0.883
	C373.42,86.906,373.309,86.471,373.309,85.98L373.309,85.98z M374.36,85.872c0,0.583,0.141,1.026,0.42,1.328
	c0.279,0.302,0.641,0.453,1.08,0.453c0.23,0,0.449-0.044,0.68-0.133c0.221-0.088,0.43-0.226,0.621-0.414
	c0.18-0.187,0.34-0.401,0.479-0.64c0.131-0.24,0.24-0.5,0.33-0.782c0.121-0.385,0.191-0.755,0.191-1.109c0-0.563-0.15-1-0.432-1.313
	c-0.289-0.312-0.648-0.468-1.068-0.468c-0.342,0-0.641,0.08-0.91,0.242c-0.271,0.161-0.521,0.393-0.74,0.695
	c-0.23,0.302-0.391,0.656-0.5,1.063C374.411,85.2,374.36,85.559,374.36,85.872L374.36,85.872z M379.7,88.341l1.801-8.595h1.059
	l-1.789,8.595H379.7L379.7,88.341z M382.37,88.341l1.801-8.595h1.059l-1.799,8.595H382.37L382.37,88.341z M389.69,86.23l1.029,0.094
	c-0.139,0.51-0.48,0.997-1.02,1.461c-0.539,0.463-1.17,0.695-1.9,0.695c-0.469,0-0.889-0.107-1.279-0.32
	c-0.391-0.214-0.68-0.524-0.871-0.93c-0.199-0.406-0.299-0.87-0.299-1.39c0-0.678,0.15-1.336,0.469-1.977
	c0.311-0.641,0.721-1.115,1.221-1.422c0.5-0.307,1.041-0.461,1.621-0.461c0.738,0,1.328,0.229,1.77,0.688
	c0.449,0.458,0.67,1.088,0.67,1.89c0,0.302-0.031,0.615-0.08,0.938h-4.58c-0.02,0.114-0.029,0.224-0.029,0.328
	c0,0.583,0.139,1.026,0.408,1.328c0.271,0.302,0.602,0.453,0.98,0.453c0.371,0,0.721-0.117,1.07-0.351
	C389.219,87.02,389.489,86.679,389.69,86.23L389.69,86.23z M386.61,84.684h3.49c0.01-0.114,0.01-0.192,0.01-0.234
	c0-0.531-0.131-0.938-0.391-1.219c-0.27-0.281-0.609-0.422-1.029-0.422c-0.461,0-0.871,0.157-1.25,0.469
	C387.069,83.59,386.79,84.059,386.61,84.684L386.61,84.684z M396.081,86.075l1.068,0.109c-0.26,0.782-0.639,1.36-1.129,1.735
	s-1.041,0.562-1.67,0.562c-0.68,0-1.23-0.219-1.65-0.656c-0.42-0.438-0.631-1.047-0.631-1.828c0-0.688,0.131-1.36,0.41-2.016
	c0.271-0.656,0.65-1.154,1.15-1.492c0.5-0.339,1.07-0.508,1.721-0.508c0.67,0,1.199,0.188,1.59,0.563s0.58,0.875,0.58,1.5
	l-1.031,0.062c-0.01-0.396-0.129-0.703-0.35-0.922c-0.219-0.218-0.52-0.328-0.879-0.328c-0.43,0-0.801,0.133-1.111,0.399
	c-0.318,0.265-0.559,0.674-0.738,1.226c-0.172,0.552-0.262,1.078-0.262,1.578c0,0.532,0.111,0.93,0.352,1.196
	c0.229,0.265,0.52,0.398,0.869,0.398c0.34,0,0.67-0.13,0.98-0.391C395.661,87.001,395.911,86.605,396.081,86.075L396.081,86.075z
	 M400.27,87.48l-0.17,0.86c-0.25,0.072-0.49,0.109-0.73,0.109c-0.43,0-0.77-0.104-1.02-0.313c-0.189-0.156-0.281-0.369-0.281-0.64
	c0-0.136,0.051-0.448,0.16-0.938l0.75-3.625h-0.83l0.17-0.812h0.83l0.33-1.531l1.201-0.735l-0.471,2.266h1.051l-0.18,0.812h-1.041
	l-0.721,3.438c-0.09,0.437-0.139,0.703-0.139,0.797c0,0.125,0.039,0.218,0.109,0.281c0.07,0.062,0.189,0.094,0.359,0.094
	C399.889,87.543,400.1,87.522,400.27,87.48L400.27,87.48z M402.639,80.95l0.25-1.204h1.061l-0.27,1.204H402.639L402.639,80.95z
	 M401.09,88.341l1.299-6.219h1.061l-1.301,6.219H401.09L401.09,88.341z M403.989,85.98c0-1.219,0.361-2.224,1.061-3.015
	c0.6-0.657,1.371-0.985,2.33-0.985c0.75,0,1.359,0.235,1.811,0.703c0.459,0.469,0.689,1.099,0.689,1.891
	c0,0.719-0.141,1.385-0.439,2c-0.291,0.614-0.701,1.086-1.23,1.414c-0.529,0.328-1.09,0.492-1.689,0.492
	c-0.48,0-0.91-0.104-1.311-0.312c-0.4-0.209-0.699-0.503-0.91-0.883C404.1,86.906,403.989,86.471,403.989,85.98L403.989,85.98z
	 M405.04,85.872c0,0.583,0.141,1.026,0.42,1.328c0.279,0.302,0.641,0.453,1.08,0.453c0.23,0,0.449-0.044,0.68-0.133
	c0.221-0.088,0.43-0.226,0.611-0.414c0.189-0.187,0.35-0.401,0.488-0.64c0.131-0.24,0.24-0.5,0.33-0.782
	c0.121-0.385,0.182-0.755,0.182-1.109c0-0.563-0.141-1-0.42-1.313c-0.291-0.312-0.65-0.468-1.08-0.468c-0.33,0-0.631,0.08-0.9,0.242
	c-0.27,0.161-0.52,0.393-0.74,0.695c-0.23,0.302-0.391,0.656-0.5,1.063C405.09,85.2,405.04,85.559,405.04,85.872L405.04,85.872z
	 M410.479,88.341l1.291-6.219h0.959L412.51,83.2c0.42-0.427,0.809-0.737,1.17-0.93c0.369-0.193,0.73-0.289,1.109-0.289
	c0.5,0,0.891,0.136,1.18,0.406c0.291,0.271,0.43,0.636,0.43,1.094c0,0.229-0.049,0.594-0.139,1.094l-0.801,3.766h-1.061l0.83-3.938
	c0.08-0.385,0.121-0.672,0.121-0.859c0-0.209-0.07-0.375-0.211-0.5c-0.139-0.125-0.34-0.188-0.619-0.188
	c-0.541,0-1.02,0.195-1.451,0.586c-0.43,0.391-0.738,1.06-0.939,2.008l-0.609,2.891H410.479L410.479,88.341z"/>
<line fill="none" stroke="#000000" stroke-miterlimit="1.45" stroke-dasharray="6,2" x1="302.581" y1="34.416" x2="302.581" y2="99.378"/>
<polygon fill="#FFFFFF" points="302.581,114.378 308.581,98.378 296.581,98.378 "/>
<polygon fill="none" stroke="#000000" stroke-miterlimit="1.45" points="302.581,114.378 308.581,98.378 296.581,98.378 "/>
<path d="M263.299,76.109l1.131,0.297c-0.24,0.927-0.67,1.636-1.281,2.125c-0.619,0.49-1.369,0.734-2.27,0.734
	c-0.93,0-1.68-0.188-2.27-0.563c-0.58-0.375-1.02-0.919-1.32-1.633c-0.311-0.713-0.459-1.481-0.459-2.305
	c0-0.896,0.17-1.677,0.52-2.344c0.34-0.667,0.83-1.172,1.459-1.516c0.631-0.344,1.32-0.516,2.09-0.516
	c0.852,0,1.57,0.219,2.16,0.656s1,1.052,1.23,1.844l-1.129,0.266c-0.201-0.625-0.49-1.081-0.871-1.367
	c-0.379-0.286-0.85-0.43-1.43-0.43c-0.65,0-1.199,0.159-1.641,0.477c-0.449,0.318-0.76,0.742-0.939,1.273S258,74.193,258,74.766
	c0,0.729,0.109,1.365,0.33,1.906c0.209,0.542,0.539,0.948,0.988,1.219c0.451,0.271,0.932,0.406,1.471,0.406
	c0.631,0,1.17-0.182,1.609-0.547C262.85,77.386,263.149,76.839,263.299,76.109L263.299,76.109z M265.69,79.125v-6.219h0.949v0.938
	c0.24-0.438,0.461-0.727,0.66-0.867c0.211-0.141,0.43-0.211,0.68-0.211c0.361,0,0.721,0.109,1.08,0.328l-0.359,0.984
	c-0.26-0.156-0.51-0.234-0.76-0.234c-0.24,0-0.451,0.07-0.641,0.211c-0.18,0.141-0.311,0.336-0.379,0.586
	c-0.121,0.375-0.191,0.781-0.191,1.219v3.266H265.69L265.69,79.125z M273.95,77.125l1.09,0.125c-0.16,0.636-0.48,1.13-0.949,1.484
	c-0.471,0.354-1.061,0.531-1.781,0.531c-0.91,0-1.629-0.281-2.17-0.844c-0.529-0.563-0.799-1.349-0.799-2.359
	c0-1.042,0.27-1.852,0.809-2.43c0.541-0.578,1.24-0.867,2.102-0.867c0.83,0,1.51,0.281,2.029,0.844
	c0.529,0.563,0.789,1.359,0.789,2.391c0,0.063,0,0.156,0,0.281h-4.639c0.039,0.688,0.24,1.211,0.58,1.57s0.779,0.539,1.299,0.539
	c0.381,0,0.711-0.102,0.99-0.305C273.581,77.883,273.79,77.563,273.95,77.125L273.95,77.125z M270.5,75.422h3.459
	c-0.039-0.531-0.17-0.927-0.391-1.188c-0.34-0.406-0.779-0.609-1.309-0.609c-0.49,0-0.9,0.162-1.23,0.484
	C270.709,74.433,270.53,74.87,270.5,75.422L270.5,75.422z M280.43,78.359c-0.391,0.333-0.77,0.568-1.131,0.703
	c-0.359,0.136-0.75,0.203-1.16,0.203c-0.689,0-1.219-0.167-1.58-0.5c-0.369-0.333-0.549-0.76-0.549-1.281
	c0-0.302,0.07-0.581,0.209-0.836c0.131-0.255,0.311-0.458,0.541-0.609c0.229-0.151,0.49-0.263,0.77-0.336
	c0.199-0.063,0.51-0.12,0.939-0.172c0.84-0.094,1.461-0.213,1.871-0.359c0-0.146,0-0.234,0-0.266c0-0.438-0.102-0.745-0.301-0.922
	c-0.27-0.229-0.67-0.344-1.199-0.344c-0.49,0-0.852,0.086-1.09,0.258c-0.24,0.172-0.42,0.477-0.531,0.914l-1.039-0.141
	c0.1-0.438,0.25-0.792,0.469-1.063c0.221-0.271,0.531-0.479,0.941-0.625c0.41-0.146,0.879-0.219,1.41-0.219
	c0.529,0,0.959,0.063,1.289,0.188c0.34,0.125,0.58,0.281,0.74,0.469c0.15,0.188,0.26,0.427,0.33,0.719
	c0.029,0.177,0.039,0.5,0.039,0.969v1.406c0,0.979,0.031,1.599,0.07,1.859c0.051,0.261,0.141,0.511,0.281,0.75h-1.111
	C280.53,78.906,280.469,78.651,280.43,78.359L280.43,78.359z M280.34,76c-0.381,0.156-0.961,0.292-1.721,0.406
	c-0.439,0.063-0.74,0.133-0.92,0.211s-0.32,0.19-0.41,0.336c-0.1,0.146-0.15,0.313-0.15,0.5c0,0.281,0.1,0.516,0.32,0.703
	c0.211,0.188,0.52,0.281,0.93,0.281c0.4,0,0.771-0.088,1.08-0.266c0.32-0.177,0.551-0.422,0.701-0.734
	c0.109-0.239,0.17-0.588,0.17-1.047V76L280.34,76z M285.34,78.188l0.16,0.922c-0.301,0.063-0.57,0.094-0.801,0.094
	c-0.381,0-0.68-0.06-0.891-0.18c-0.209-0.12-0.359-0.278-0.439-0.477c-0.09-0.198-0.141-0.614-0.141-1.25v-3.578h-0.76v-0.813h0.76
	v-1.547l1.051-0.625v2.172h1.061v0.813h-1.061v3.641c0,0.302,0.02,0.495,0.051,0.578c0.039,0.083,0.1,0.151,0.18,0.203
	c0.09,0.052,0.209,0.078,0.359,0.078C285,78.219,285.161,78.208,285.34,78.188L285.34,78.188z M290.629,77.125l1.09,0.125
	c-0.16,0.636-0.48,1.13-0.949,1.484c-0.471,0.354-1.061,0.531-1.781,0.531c-0.908,0-1.629-0.281-2.158-0.844
	c-0.541-0.563-0.811-1.349-0.811-2.359c0-1.042,0.27-1.852,0.811-2.43c0.539-0.578,1.238-0.867,2.1-0.867
	c0.83,0,1.51,0.281,2.039,0.844c0.52,0.563,0.781,1.359,0.781,2.391c0,0.063,0,0.156,0,0.281h-4.641
	c0.051,0.688,0.24,1.211,0.58,1.57c0.35,0.359,0.779,0.539,1.299,0.539c0.381,0,0.721-0.102,0.99-0.305
	C290.26,77.883,290.469,77.563,290.629,77.125L290.629,77.125z M287.18,75.422h3.469c-0.049-0.531-0.18-0.927-0.398-1.188
	c-0.34-0.406-0.781-0.609-1.311-0.609c-0.49,0-0.9,0.162-1.221,0.484C287.389,74.433,287.209,74.87,287.18,75.422L287.18,75.422z"/>
<line fill="none" stroke="#000000" stroke-miterlimit="1.45" x1="267.03" y1="139.385" x2="191.69" y2="165.871"/>
<polygon points="185.08,168.192 190.03,161.154 198.29,163.55 193.35,170.589 "/>
<path d="M164.95,128.788l1.13-0.108l-0.02,0.313c0,0.323,0.08,0.622,0.24,0.898c0.15,0.276,0.41,0.49,0.75,0.641
	c0.35,0.151,0.77,0.227,1.26,0.227c0.69,0,1.21-0.151,1.57-0.453c0.36-0.302,0.54-0.646,0.54-1.031c0-0.271-0.09-0.516-0.28-0.734
	c-0.2-0.219-0.729-0.516-1.61-0.891c-0.68-0.292-1.13-0.516-1.37-0.672c-0.391-0.25-0.68-0.526-0.86-0.828
	c-0.19-0.302-0.28-0.646-0.28-1.031c0-0.438,0.12-0.834,0.36-1.188c0.25-0.354,0.6-0.625,1.06-0.812c0.47-0.188,1-0.282,1.59-0.282
	c0.7,0,1.29,0.118,1.77,0.352s0.82,0.547,1.04,0.937c0.22,0.391,0.33,0.763,0.33,1.118c0,0.031,0,0.088-0.01,0.171l-1.11,0.094
	c0-0.239-0.02-0.432-0.07-0.578c-0.07-0.229-0.19-0.427-0.36-0.594c-0.16-0.166-0.39-0.299-0.68-0.398
	c-0.28-0.099-0.6-0.149-0.96-0.149c-0.62,0-1.11,0.141-1.45,0.422c-0.27,0.219-0.41,0.506-0.41,0.86c0,0.208,0.06,0.396,0.17,0.562
	c0.11,0.167,0.31,0.328,0.6,0.485c0.2,0.114,0.68,0.338,1.44,0.671c0.61,0.282,1.04,0.5,1.28,0.657
	c0.31,0.198,0.55,0.445,0.72,0.742c0.16,0.297,0.25,0.633,0.25,1.008c0,0.469-0.14,0.898-0.42,1.289
	c-0.29,0.391-0.68,0.693-1.18,0.906c-0.5,0.214-1.07,0.32-1.71,0.32c-0.97,0-1.77-0.211-2.39-0.633
	C165.26,130.656,164.95,129.894,164.95,128.788L164.95,128.788z M174.99,130.711l-0.17,0.859c-0.25,0.073-0.5,0.109-0.74,0.109
	c-0.43,0-0.76-0.104-1.01-0.313c-0.19-0.156-0.29-0.37-0.29-0.641c0-0.135,0.06-0.448,0.16-0.938l0.75-3.625h-0.83l0.17-0.812h0.83
	l0.33-1.531l1.2-0.735l-0.46,2.266h1.04l-0.17,0.812h-1.05l-0.72,3.438c-0.09,0.438-0.14,0.703-0.14,0.797
	c0,0.125,0.04,0.219,0.11,0.281c0.081,0.063,0.2,0.094,0.36,0.094C174.6,130.773,174.81,130.753,174.99,130.711L174.99,130.711z
	 M176.04,129.211c0-1.219,0.35-2.225,1.06-3.016c0.6-0.657,1.37-0.985,2.33-0.985c0.75,0,1.36,0.235,1.81,0.703
	c0.46,0.469,0.69,1.099,0.69,1.891c0,0.719-0.14,1.386-0.44,2c-0.29,0.615-0.7,1.086-1.23,1.414c-0.53,0.328-1.09,0.492-1.69,0.492
	c-0.48,0-0.91-0.104-1.31-0.313c-0.4-0.208-0.7-0.503-0.91-0.883S176.04,129.7,176.04,129.211L176.04,129.211z M177.09,129.102
	c0,0.583,0.14,1.026,0.42,1.328c0.28,0.302,0.64,0.453,1.08,0.453c0.23,0,0.45-0.044,0.68-0.133c0.22-0.089,0.431-0.227,0.61-0.414
	c0.19-0.188,0.35-0.401,0.49-0.641c0.13-0.24,0.24-0.5,0.33-0.781c0.12-0.386,0.18-0.756,0.18-1.109c0-0.563-0.14-1-0.43-1.312
	c-0.28-0.313-0.641-0.469-1.07-0.469c-0.33,0-0.63,0.081-0.9,0.242c-0.27,0.162-0.52,0.393-0.74,0.695
	c-0.23,0.302-0.39,0.656-0.5,1.063C177.14,128.43,177.09,128.788,177.09,129.102L177.09,129.102z M182.53,131.57l1.29-6.219h0.94
	l-0.26,1.266c0.32-0.48,0.63-0.834,0.94-1.063c0.31-0.229,0.62-0.344,0.93-0.344c0.22,0,0.48,0.073,0.78,0.219l-0.44,0.984
	c-0.17-0.125-0.37-0.187-0.59-0.187c-0.37,0-0.76,0.206-1.15,0.617c-0.39,0.412-0.69,1.153-0.91,2.227l-0.53,2.5H182.53
	L182.53,131.57z M191.09,129.461l1.03,0.094c-0.15,0.511-0.49,0.998-1.03,1.461c-0.53,0.464-1.17,0.695-1.9,0.695
	c-0.46,0-0.89-0.106-1.28-0.32c-0.38-0.213-0.67-0.523-0.87-0.93c-0.2-0.406-0.3-0.869-0.3-1.391c0-0.677,0.16-1.336,0.47-1.977
	c0.31-0.64,0.72-1.114,1.22-1.422c0.5-0.307,1.04-0.461,1.62-0.461c0.74,0,1.33,0.23,1.78,0.688c0.44,0.458,0.66,1.088,0.66,1.891
	c0,0.303-0.02,0.614-0.08,0.938h-4.57c-0.03,0.115-0.04,0.224-0.04,0.328c0,0.583,0.14,1.025,0.41,1.328
	c0.27,0.302,0.6,0.453,0.98,0.453c0.37,0,0.73-0.117,1.08-0.352C190.61,130.25,190.89,129.908,191.09,129.461L191.09,129.461z
	 M188.01,127.913h3.48c0.01-0.113,0.02-0.191,0.02-0.233c0-0.531-0.14-0.937-0.4-1.219c-0.27-0.281-0.61-0.422-1.02-0.422
	c-0.46,0-0.88,0.157-1.25,0.469C188.46,126.82,188.18,127.289,188.01,127.913L188.01,127.913z M196.72,129.211
	c0-1.219,0.35-2.225,1.06-3.016c0.59-0.657,1.37-0.985,2.33-0.985c0.75,0,1.35,0.235,1.81,0.703c0.46,0.469,0.69,1.099,0.69,1.891
	c0,0.719-0.15,1.386-0.44,2c-0.29,0.615-0.7,1.086-1.23,1.414c-0.53,0.328-1.1,0.492-1.69,0.492c-0.48,0-0.92-0.104-1.31-0.313
	c-0.4-0.208-0.7-0.503-0.91-0.883S196.72,129.7,196.72,129.211L196.72,129.211z M197.77,129.102c0,0.583,0.141,1.026,0.42,1.328
	s0.64,0.453,1.08,0.453c0.22,0,0.45-0.044,0.67-0.133c0.23-0.089,0.43-0.227,0.62-0.414s0.351-0.401,0.49-0.641
	c0.13-0.24,0.24-0.5,0.32-0.781c0.13-0.386,0.19-0.756,0.19-1.109c0-0.563-0.14-1-0.43-1.312c-0.28-0.313-0.64-0.469-1.07-0.469
	c-0.33,0-0.63,0.081-0.9,0.242c-0.28,0.162-0.52,0.393-0.75,0.695c-0.22,0.302-0.38,0.656-0.49,1.063
	C197.82,128.43,197.77,128.788,197.77,129.102L197.77,129.102z M203.2,131.57l1.79-8.594h1.06l-0.64,3.078
	c0.34-0.312,0.649-0.531,0.92-0.656c0.27-0.125,0.56-0.188,0.86-0.188c0.57,0,1.05,0.217,1.44,0.649
	c0.39,0.432,0.59,1.06,0.59,1.883c0,0.553-0.08,1.058-0.23,1.516c-0.16,0.459-0.35,0.844-0.58,1.156
	c-0.23,0.313-0.47,0.56-0.71,0.742c-0.25,0.183-0.5,0.32-0.76,0.414c-0.26,0.093-0.51,0.141-0.75,0.141
	c-0.41,0-0.77-0.109-1.08-0.328s-0.56-0.547-0.73-0.984l-0.25,1.172H203.2L203.2,131.57z M204.77,129.008v0.203
	c0,0.531,0.12,0.935,0.37,1.211c0.25,0.275,0.57,0.414,0.96,0.414c0.36,0,0.7-0.127,1.01-0.383s0.57-0.658,0.77-1.211
	c0.19-0.552,0.29-1.063,0.29-1.531c0-0.521-0.12-0.927-0.37-1.218c-0.25-0.292-0.56-0.438-0.94-0.438c-0.37,0-0.72,0.149-1.05,0.445
	c-0.32,0.297-0.59,0.752-0.81,1.368C204.85,128.325,204.77,128.705,204.77,129.008L204.77,129.008z M211.38,124.18l0.25-1.203h1.05
	l-0.25,1.203H211.38L211.38,124.18z M208.02,133.913l0.19-0.905c0.24,0.063,0.45,0.094,0.64,0.094c0.23,0,0.41-0.076,0.54-0.227
	c0.14-0.151,0.28-0.565,0.43-1.242l1.29-6.281h1.07l-1.35,6.469c-0.17,0.813-0.36,1.364-0.58,1.656
	c-0.29,0.385-0.7,0.578-1.23,0.578C208.75,134.055,208.41,134.008,208.02,133.913L208.02,133.913z M217.11,129.461l1.029,0.094
	c-0.15,0.511-0.49,0.998-1.029,1.461c-0.529,0.464-1.16,0.695-1.89,0.695c-0.47,0-0.9-0.106-1.29-0.32
	c-0.38-0.213-0.67-0.523-0.87-0.93c-0.2-0.406-0.3-0.869-0.3-1.391c0-0.677,0.16-1.336,0.47-1.977c0.31-0.64,0.72-1.114,1.22-1.422
	c0.5-0.307,1.04-0.461,1.63-0.461c0.739,0,1.331,0.23,1.77,0.688s0.66,1.088,0.66,1.891c0,0.303-0.021,0.614-0.08,0.938h-4.57
	c-0.02,0.115-0.03,0.224-0.03,0.328c0,0.583,0.13,1.025,0.4,1.328c0.27,0.302,0.6,0.453,0.99,0.453c0.36,0,0.721-0.117,1.07-0.352
	C216.639,130.25,216.911,129.908,217.11,129.461L217.11,129.461z M214.03,127.913h3.48c0.01-0.113,0.02-0.191,0.02-0.233
	c0-0.531-0.131-0.937-0.4-1.219c-0.27-0.281-0.609-0.422-1.019-0.422c-0.46,0-0.88,0.157-1.25,0.469
	C214.48,126.82,214.21,127.289,214.03,127.913L214.03,127.913z M223.5,129.305l1.059,0.108c-0.26,0.782-0.629,1.36-1.119,1.735
	s-1.051,0.563-1.67,0.563c-0.68,0-1.23-0.219-1.65-0.656c-0.43-0.438-0.641-1.047-0.641-1.828c0-0.688,0.141-1.359,0.41-2.016
	c0.271-0.656,0.66-1.153,1.16-1.492c0.5-0.338,1.07-0.508,1.721-0.508c0.66,0,1.189,0.188,1.58,0.563
	c0.389,0.375,0.59,0.875,0.59,1.5l-1.029,0.063c-0.012-0.396-0.131-0.704-0.361-0.922c-0.219-0.218-0.51-0.328-0.879-0.328
	c-0.432,0-0.801,0.133-1.111,0.399c-0.309,0.265-0.559,0.674-0.729,1.227c-0.182,0.552-0.271,1.077-0.271,1.578
	c0,0.531,0.121,0.93,0.352,1.195c0.238,0.266,0.529,0.398,0.869,0.398s0.67-0.13,0.99-0.391
	C223.081,130.231,223.319,129.836,223.5,129.305L223.5,129.305z M227.69,130.711l-0.17,0.859c-0.25,0.073-0.5,0.109-0.74,0.109
	c-0.43,0-0.76-0.104-1.01-0.313c-0.189-0.156-0.291-0.37-0.291-0.641c0-0.135,0.061-0.448,0.16-0.938l0.75-3.625h-0.83l0.17-0.812
	h0.83l0.33-1.531l1.201-0.735l-0.471,2.266h1.051l-0.17,0.812h-1.051l-0.721,3.438c-0.09,0.438-0.139,0.703-0.139,0.797
	c0,0.125,0.039,0.219,0.109,0.281c0.08,0.063,0.199,0.094,0.359,0.094C227.299,130.773,227.51,130.753,227.69,130.711
	L227.69,130.711z"/>
<path d="M171.19,146.271l1.29-6.219h0.94l-0.27,1.266c0.33-0.479,0.64-0.834,0.95-1.063c0.31-0.229,0.62-0.344,0.93-0.344
	c0.22,0,0.48,0.072,0.78,0.219l-0.439,0.984c-0.17-0.125-0.37-0.188-0.59-0.188c-0.38,0-0.76,0.206-1.15,0.617
	c-0.39,0.412-0.69,1.153-0.91,2.227l-0.53,2.5H171.19L171.19,146.271z M179.74,144.162l1.04,0.094
	c-0.15,0.511-0.49,0.998-1.03,1.461c-0.53,0.464-1.169,0.695-1.9,0.695c-0.46,0-0.89-0.106-1.28-0.32
	c-0.38-0.213-0.67-0.523-0.87-0.93s-0.3-0.869-0.3-1.391c0-0.677,0.16-1.336,0.47-1.977s0.72-1.114,1.22-1.423
	c0.5-0.307,1.04-0.46,1.62-0.46c0.74,0,1.33,0.229,1.78,0.688c0.44,0.458,0.66,1.089,0.66,1.891c0,0.303-0.03,0.614-0.08,0.938
	h-4.58c-0.02,0.115-0.03,0.224-0.03,0.328c0,0.584,0.14,1.025,0.41,1.328c0.27,0.302,0.6,0.453,0.979,0.453
	c0.37,0,0.73-0.117,1.07-0.352C179.27,144.951,179.55,144.609,179.74,144.162L179.74,144.162z M176.67,142.615h3.48
	c0.01-0.114,0.02-0.192,0.02-0.234c0-0.531-0.14-0.938-0.4-1.219c-0.27-0.281-0.609-0.422-1.03-0.422c-0.45,0-0.87,0.156-1.25,0.469
	C177.12,141.521,176.84,141.99,176.67,142.615L176.67,142.615z M182,146.271l1.12-5.406h-0.94l0.16-0.813h0.95l0.19-0.891
	c0.09-0.438,0.19-0.756,0.29-0.953c0.1-0.198,0.26-0.359,0.48-0.484c0.23-0.125,0.53-0.188,0.92-0.188c0.27,0,0.66,0.058,1.17,0.172
	l-0.19,0.922c-0.36-0.094-0.66-0.141-0.9-0.141c-0.21,0-0.37,0.053-0.47,0.156c-0.11,0.104-0.2,0.349-0.28,0.734l-0.14,0.672h1.18
	l-0.17,0.813h-1.19l-1.12,5.406H182L182,146.271z M189.75,144.162l1.03,0.094c-0.14,0.511-0.48,0.998-1.02,1.461
	c-0.54,0.464-1.17,0.695-1.9,0.695c-0.47,0-0.89-0.106-1.28-0.32c-0.38-0.213-0.68-0.523-0.87-0.93c-0.2-0.406-0.3-0.869-0.3-1.391
	c0-0.677,0.15-1.336,0.47-1.977c0.31-0.641,0.72-1.114,1.22-1.423c0.5-0.307,1.04-0.46,1.62-0.46c0.74,0,1.33,0.229,1.77,0.688
	c0.45,0.458,0.67,1.089,0.67,1.891c0,0.303-0.03,0.614-0.081,0.938h-4.58c-0.02,0.115-0.03,0.224-0.03,0.328
	c0,0.584,0.14,1.025,0.41,1.328c0.27,0.302,0.6,0.453,0.98,0.453c0.37,0,0.72-0.117,1.07-0.352S189.55,144.609,189.75,144.162
	L189.75,144.162z M186.67,142.615h3.49c0.01-0.114,0.01-0.192,0.01-0.234c0-0.531-0.13-0.938-0.39-1.219
	c-0.27-0.281-0.61-0.422-1.03-0.422c-0.459,0-0.87,0.156-1.25,0.469C187.13,141.521,186.85,141.99,186.67,142.615L186.67,142.615z
	 M191.86,146.271l1.3-6.219h0.94l-0.27,1.266c0.331-0.479,0.64-0.834,0.95-1.063c0.31-0.229,0.61-0.344,0.93-0.344
	c0.22,0,0.48,0.072,0.78,0.219l-0.44,0.984c-0.18-0.125-0.37-0.188-0.59-0.188c-0.38,0-0.76,0.206-1.15,0.617
	c-0.39,0.412-0.7,1.153-0.92,2.227l-0.53,2.5H191.86L191.86,146.271z M200.42,144.162l1.03,0.094
	c-0.141,0.511-0.48,0.998-1.021,1.461c-0.54,0.464-1.17,0.695-1.9,0.695c-0.47,0-0.89-0.106-1.28-0.32
	c-0.39-0.213-0.68-0.523-0.87-0.93c-0.2-0.406-0.3-0.869-0.3-1.391c0-0.677,0.15-1.336,0.47-1.977c0.31-0.641,0.72-1.114,1.22-1.423
	c0.5-0.307,1.04-0.46,1.62-0.46c0.74,0,1.33,0.229,1.77,0.688c0.45,0.458,0.67,1.089,0.67,1.891c0,0.303-0.03,0.614-0.081,0.938
	h-4.58c-0.02,0.115-0.03,0.224-0.03,0.328c0,0.584,0.14,1.025,0.41,1.328c0.27,0.302,0.6,0.453,0.98,0.453
	c0.37,0,0.72-0.117,1.07-0.352C199.95,144.951,200.22,144.609,200.42,144.162L200.42,144.162z M197.34,142.615h3.49
	c0.01-0.114,0.01-0.192,0.01-0.234c0-0.531-0.13-0.938-0.39-1.219c-0.27-0.281-0.61-0.422-1.03-0.422c-0.46,0-0.87,0.156-1.25,0.469
	C197.8,141.521,197.52,141.99,197.34,142.615L197.34,142.615z M202.53,146.271l1.3-6.219h0.95l-0.22,1.078
	c0.42-0.428,0.811-0.737,1.18-0.93c0.36-0.192,0.73-0.289,1.11-0.289c0.5,0,0.89,0.136,1.18,0.406c0.28,0.271,0.43,0.635,0.43,1.094
	c0,0.229-0.05,0.594-0.15,1.094l-0.79,3.766h-1.06l0.82-3.938c0.09-0.386,0.13-0.672,0.13-0.859c0-0.208-0.07-0.375-0.21-0.5
	s-0.35-0.188-0.62-0.188c-0.54,0-1.03,0.195-1.45,0.586c-0.43,0.391-0.74,1.06-0.94,2.008l-0.61,2.891H202.53L202.53,146.271z
	 M213.49,144.006l1.06,0.109c-0.26,0.781-0.63,1.359-1.12,1.734c-0.49,0.375-1.05,0.563-1.68,0.563c-0.67,0-1.22-0.219-1.64-0.656
	c-0.43-0.438-0.64-1.047-0.64-1.828c0-0.688,0.14-1.359,0.41-2.016s0.66-1.153,1.16-1.492c0.5-0.338,1.07-0.508,1.71-0.508
	c0.67,0,1.2,0.188,1.59,0.563s0.59,0.875,0.59,1.5l-1.04,0.063c-0.01-0.396-0.12-0.703-0.35-0.922
	c-0.22-0.219-0.51-0.328-0.88-0.328c-0.43,0-0.8,0.133-1.11,0.398s-0.56,0.674-0.73,1.227c-0.18,0.553-0.27,1.078-0.27,1.578
	c0,0.531,0.12,0.93,0.35,1.195c0.24,0.266,0.53,0.398,0.87,0.398c0.34,0,0.67-0.131,0.98-0.391
	C213.07,144.933,213.31,144.537,213.49,144.006L213.49,144.006z M219.77,144.162l1.029,0.094c-0.139,0.511-0.49,0.998-1.02,1.461
	c-0.541,0.464-1.17,0.695-1.9,0.695c-0.469,0-0.9-0.106-1.279-0.32c-0.39-0.213-0.68-0.523-0.88-0.93
	c-0.19-0.406-0.29-0.869-0.29-1.391c0-0.677,0.15-1.336,0.46-1.977c0.32-0.641,0.72-1.114,1.22-1.423
	c0.5-0.307,1.051-0.46,1.629-0.46c0.74,0,1.33,0.229,1.771,0.688c0.439,0.458,0.67,1.089,0.67,1.891c0,0.303-0.031,0.614-0.08,0.938
	h-4.58c-0.02,0.115-0.031,0.224-0.031,0.328c0,0.584,0.131,1.025,0.4,1.328c0.281,0.302,0.6,0.453,0.99,0.453
	c0.359,0,0.721-0.117,1.07-0.352S219.569,144.609,219.77,144.162L219.77,144.162z M216.69,142.615h3.49
	c0.01-0.114,0.01-0.192,0.01-0.234c0-0.531-0.131-0.938-0.4-1.219c-0.26-0.281-0.6-0.422-1.02-0.422
	c-0.461,0-0.881,0.156-1.25,0.469C217.139,141.521,216.87,141.99,216.69,142.615L216.69,142.615z"/>
<line fill="none" stroke="#000000" stroke-miterlimit="1.45" stroke-dasharray="6,2" x1="265.25" y1="219.323" x2="189.8" y2="192.685"/>
<polygon points="186.02,191.354 195.34,201.006 186.02,191.354 199.34,189.69 "/>
<polygon fill="none" stroke="#000000" stroke-linecap="square" stroke-miterlimit="10" points="186.02,191.354 195.34,201.006 
	186.02,191.354 199.34,189.69 "/>
<path fill="#808080" d="M201.57,224.638l1.1,3.109h-0.94l-1.45-3.249l2.75-2.953H204L201.57,224.638L201.57,224.638z
	 M204.28,224.638l1.06,3.109h-1l-1.34-3.266l2.64-2.937h1.061L204.28,224.638L204.28,224.638z M212.39,226.935
	c-0.87,0.99-1.76,1.485-2.67,1.485c-0.56,0-1.02-0.162-1.36-0.485c-0.34-0.323-0.52-0.718-0.52-1.187c0-0.303,0.08-0.823,0.24-1.563
	l0.871-4.203h1.24l-0.97,4.642c-0.08,0.396-0.13,0.697-0.13,0.905c0,0.271,0.09,0.484,0.25,0.642c0.17,0.155,0.42,0.233,0.74,0.233
	c0.34,0,0.68-0.086,1.01-0.258c0.34-0.172,0.62-0.401,0.86-0.687c0.24-0.287,0.439-0.623,0.58-1.009
	c0.11-0.25,0.22-0.692,0.35-1.327l0.65-3.142h1.25l-1.51,7.267h-1.16L212.39,226.935L212.39,226.935z M215.33,225.763l1.239-0.078
	c0,0.354,0.051,0.659,0.16,0.914c0.111,0.256,0.311,0.461,0.611,0.618c0.299,0.155,0.639,0.233,1.02,0.233
	c0.561,0,0.971-0.108,1.24-0.327c0.27-0.22,0.41-0.475,0.41-0.767c0-0.219-0.08-0.422-0.24-0.609c-0.17-0.197-0.58-0.435-1.23-0.711
	c-0.66-0.275-1.08-0.471-1.27-0.586c-0.301-0.188-0.531-0.408-0.689-0.664c-0.15-0.255-0.231-0.544-0.231-0.866
	c0-0.573,0.231-1.065,0.69-1.478c0.449-0.411,1.1-0.617,1.92-0.617c0.9,0,1.6,0.211,2.08,0.634c0.48,0.422,0.721,0.976,0.73,1.664
	l-1.201,0.077c-0.02-0.438-0.18-0.783-0.469-1.039c-0.291-0.255-0.701-0.383-1.24-0.383c-0.42,0-0.76,0.1-1,0.297
	c-0.23,0.198-0.35,0.411-0.35,0.642c0,0.218,0.1,0.416,0.309,0.593c0.131,0.115,0.49,0.297,1.061,0.547
	c0.951,0.406,1.541,0.729,1.781,0.969c0.398,0.386,0.6,0.85,0.6,1.392c0,0.354-0.111,0.705-0.33,1.054
	c-0.221,0.349-0.561,0.628-1.01,0.836c-0.451,0.209-0.99,0.313-1.602,0.313c-0.85,0-1.559-0.209-2.139-0.625
	C215.58,227.378,215.3,226.7,215.33,225.763L215.33,225.763z M227.549,225.778l1.211,0.125c-0.18,0.594-0.58,1.162-1.201,1.703
	c-0.619,0.542-1.359,0.813-2.229,0.813c-0.531,0-1.021-0.125-1.471-0.375c-0.461-0.25-0.801-0.612-1.029-1.086
	c-0.24-0.475-0.361-1.014-0.361-1.617c0-0.803,0.191-1.576,0.561-2.321c0.369-0.744,0.85-1.297,1.43-1.656
	c0.58-0.358,1.211-0.539,1.891-0.539c0.859,0,1.549,0.269,2.07,0.806c0.51,0.536,0.77,1.268,0.77,2.194
	c0,0.354-0.029,0.72-0.09,1.095h-5.34c-0.031,0.146-0.041,0.275-0.041,0.39c0,0.677,0.16,1.196,0.471,1.555
	c0.32,0.359,0.699,0.539,1.16,0.539c0.42,0,0.83-0.141,1.24-0.422S227.319,226.3,227.549,225.778L227.549,225.778z M223.959,223.981
	h4.08c0-0.125,0-0.219,0-0.281c0-0.614-0.16-1.086-0.459-1.414c-0.311-0.327-0.711-0.491-1.201-0.491
	c-0.529,0-1.02,0.182-1.449,0.547C224.489,222.705,224.17,223.253,223.959,223.981L223.959,223.981z M232.62,224.685l-1.02-3.14
	h0.99l1.309,3.312l-2.67,2.891H230.1L232.62,224.685L232.62,224.685z M235.29,224.747l-1.01-3.202h0.92l1.4,3.312l-2.781,2.891
	h-0.979L235.29,224.747L235.29,224.747z"/>
<line fill="none" stroke="#808080" stroke-miterlimit="1.45" stroke-dasharray="6,2" x1="115.21" y1="166.882" x2="86.58" y2="149.559"/>
</svg>
