<?xml version="1.0" encoding="utf-8"?>
<!-- Generator: Adobe Illustrator 16.0.0, SVG Export Plug-In . SVG Version: 6.00 Build 0)  -->
<!DOCTYPE svg PUBLIC "-//W3C//DTD SVG 1.1//EN" "http://www.w3.org/Graphics/SVG/1.1/DTD/svg11.dtd">
<svg version="1.1" id="Layer_1" xmlns="http://www.w3.org/2000/svg" xmlns:xlink="http://www.w3.org/1999/xlink" x="0px" y="0px"
	 width="252px" height="252px" viewBox="0 0 252 252" enable-background="new 0 0 252 252" xml:space="preserve">
<polygon fill="#FFCC99" points="80.36,114.945 176.36,114.945 176.36,137.945 80.36,137.945 80.36,114.945 "/>
<polygon fill="#FFFFDA" points="79.36,113.945 80.36,113.945 80.36,138.945 79.36,138.945 79.36,113.945 "/>
<polygon fill="#FFFFDA" points="80.36,113.945 176.36,113.945 176.36,114.945 80.36,114.945 80.36,113.945 "/>
<polygon fill="#B28E6B" points="80.36,137.945 177.36,137.945 177.36,138.945 80.36,138.945 80.36,137.945 "/>
<polygon fill="#B28E6B" points="176.36,113.945 177.36,113.945 177.36,137.945 176.36,137.945 176.36,113.945 "/>
<path d="M86.11,123.143h3.43c0.78,0,1.36,0.062,1.77,0.187c0.55,0.157,1.02,0.441,1.41,0.852c0.38,0.411,0.68,0.914,0.88,1.508
	c0.2,0.594,0.3,1.328,0.3,2.203c0,0.76-0.09,1.422-0.28,1.984c-0.23,0.677-0.561,1.224-1,1.641c-0.32,0.312-0.76,0.557-1.31,0.734
	c-0.42,0.136-0.97,0.202-1.67,0.202h-3.53V123.143L86.11,123.143z M87.98,124.721v6.172h1.41c0.53,0,0.91-0.031,1.14-0.094
	c0.3-0.073,0.55-0.2,0.76-0.383c0.2-0.183,0.36-0.481,0.49-0.898c0.12-0.417,0.19-0.984,0.19-1.703s-0.07-1.271-0.19-1.656
	c-0.13-0.386-0.3-0.688-0.53-0.907c-0.23-0.218-0.52-0.364-0.879-0.437c-0.26-0.063-0.77-0.094-1.541-0.094H87.98L87.98,124.721z
	 M95.42,132.454v-9.312h1.78v3.359c0.55-0.625,1.2-0.937,1.95-0.937c0.82,0,1.5,0.297,2.04,0.89c0.54,0.594,0.81,1.448,0.81,2.563
	c0,1.146-0.28,2.031-0.83,2.656c-0.54,0.625-1.21,0.938-1.99,0.938c-0.38,0-0.76-0.097-1.14-0.289c-0.37-0.192-0.7-0.477-0.97-0.852
	v0.983H95.42L95.42,132.454z M97.18,128.939c0,0.698,0.11,1.213,0.33,1.547c0.31,0.479,0.72,0.718,1.24,0.718
	c0.391,0,0.73-0.169,1-0.507c0.28-0.339,0.42-0.873,0.42-1.602c0-0.76-0.14-1.313-0.42-1.656c-0.27-0.344-0.63-0.516-1.07-0.516
	c-0.42,0-0.78,0.167-1.07,0.5C97.33,127.758,97.18,128.263,97.18,128.939L97.18,128.939z M109.4,129.033l1.82,0.578
	c-0.28,1.01-0.75,1.764-1.391,2.258c-0.649,0.494-1.47,0.742-2.47,0.742c-1.24,0-2.26-0.422-3.06-1.266
	c-0.79-0.844-1.19-2-1.19-3.469c0-1.542,0.4-2.742,1.2-3.602c0.8-0.86,1.86-1.289,3.161-1.289c1.13,0,2.06,0.338,2.78,1.015
	c0.42,0.396,0.73,0.969,0.95,1.719l-1.86,0.438c-0.11-0.48-0.34-0.86-0.69-1.141c-0.35-0.281-0.78-0.422-1.28-0.422
	c-0.68,0-1.24,0.247-1.68,0.742c-0.43,0.495-0.64,1.3-0.64,2.415c0,1.167,0.21,2,0.64,2.5c0.42,0.5,0.98,0.75,1.65,0.75
	c0.5,0,0.93-0.159,1.29-0.477C108.99,130.208,109.25,129.711,109.4,129.033L109.4,129.033z M112.4,128.986
	c0-0.594,0.15-1.167,0.44-1.719s0.71-0.974,1.24-1.266c0.54-0.291,1.14-0.437,1.81-0.437c1.01,0,1.84,0.331,2.5,0.992
	c0.65,0.661,0.98,1.497,0.98,2.508c0,1.021-0.33,1.867-0.99,2.539c-0.66,0.672-1.49,1.008-2.49,1.008c-0.62,0-1.21-0.141-1.77-0.422
	c-0.56-0.281-0.99-0.689-1.28-1.227C112.55,130.427,112.4,129.768,112.4,128.986L112.4,128.986z M114.23,129.079
	c0,0.667,0.16,1.181,0.48,1.54c0.31,0.359,0.71,0.539,1.18,0.539c0.47,0,0.859-0.18,1.169-0.539c0.311-0.359,0.47-0.878,0.47-1.555
	c0-0.656-0.16-1.162-0.47-1.516c-0.31-0.354-0.7-0.531-1.169-0.531c-0.47,0-0.871,0.177-1.18,0.531
	C114.39,127.902,114.23,128.413,114.23,129.079L114.23,129.079z M126.889,132.454h-1.779v-3.437c0-0.729-0.04-1.201-0.12-1.414
	c-0.08-0.214-0.2-0.38-0.37-0.5c-0.18-0.12-0.38-0.18-0.62-0.18c-0.3,0-0.58,0.086-0.82,0.258c-0.25,0.172-0.41,0.396-0.51,0.672
	c-0.09,0.276-0.14,0.794-0.14,1.555v3.046h-1.78v-6.733h1.66v0.984c0.58-0.76,1.32-1.14,2.21-1.14c0.4,0,0.76,0.07,1.08,0.211
	c0.33,0.14,0.569,0.32,0.74,0.539c0.18,0.219,0.291,0.469,0.359,0.75c0.061,0.281,0.09,0.682,0.09,1.203V132.454L126.889,132.454z
	 M134.831,132.454h-1.781v-3.437c0-0.729-0.039-1.201-0.119-1.414c-0.08-0.214-0.199-0.38-0.371-0.5
	c-0.17-0.12-0.379-0.18-0.619-0.18c-0.301,0-0.57,0.086-0.82,0.258c-0.24,0.172-0.41,0.396-0.51,0.672
	c-0.09,0.276-0.141,0.794-0.141,1.555v3.046h-1.779v-6.733h1.66v0.984c0.58-0.76,1.32-1.14,2.219-1.14c0.391,0,0.75,0.07,1.07,0.211
	c0.33,0.14,0.57,0.32,0.75,0.539c0.17,0.219,0.281,0.469,0.352,0.75c0.059,0.281,0.09,0.682,0.09,1.203V132.454L134.831,132.454z
	 M140.549,130.314l1.77,0.297c-0.229,0.646-0.588,1.141-1.078,1.484s-1.102,0.516-1.84,0.516c-1.182,0-2.051-0.386-2.611-1.157
	c-0.449-0.613-0.67-1.385-0.67-2.312c0-1.125,0.291-2.003,0.881-2.633c0.59-0.63,1.32-0.945,2.209-0.945
	c1.01,0,1.801,0.331,2.381,0.992s0.85,1.675,0.82,3.039h-4.471c0.02,0.531,0.17,0.942,0.439,1.233
	c0.271,0.292,0.621,0.438,1.031,0.438c0.279,0,0.52-0.076,0.709-0.227C140.299,130.89,140.45,130.647,140.549,130.314
	L140.549,130.314z M140.649,128.502c-0.01-0.511-0.148-0.901-0.398-1.172c-0.26-0.271-0.57-0.407-0.932-0.407
	c-0.389,0-0.709,0.141-0.969,0.422c-0.25,0.292-0.369,0.677-0.369,1.156H140.649L140.649,128.502z M149.75,127.705l-1.76,0.313
	c-0.061-0.344-0.191-0.604-0.4-0.781c-0.221-0.177-0.49-0.266-0.82-0.266c-0.439,0-0.789,0.15-1.061,0.453
	c-0.26,0.302-0.4,0.817-0.4,1.547c0,0.792,0.141,1.354,0.41,1.688c0.271,0.333,0.631,0.5,1.08,0.5c0.34,0,0.621-0.097,0.83-0.289
	c0.221-0.192,0.371-0.523,0.451-0.992l1.77,0.297c-0.189,0.802-0.541,1.409-1.061,1.82c-0.51,0.411-1.199,0.617-2.07,0.617
	c-0.99,0-1.779-0.313-2.359-0.938s-0.869-1.484-0.869-2.578c0-1.114,0.289-1.982,0.869-2.601c0.58-0.62,1.381-0.93,2.391-0.93
	c0.83,0,1.48,0.177,1.959,0.531C149.2,126.45,149.54,126.986,149.75,127.705L149.75,127.705z M154.2,125.721v1.422h-1.219v2.703
	c0,0.552,0.008,0.875,0.029,0.969c0.02,0.094,0.08,0.169,0.16,0.227s0.18,0.086,0.299,0.086c0.16,0,0.4-0.058,0.721-0.173
	l0.15,1.392c-0.42,0.177-0.881,0.266-1.4,0.266c-0.33,0-0.619-0.055-0.881-0.164c-0.26-0.109-0.449-0.25-0.57-0.422
	c-0.119-0.172-0.199-0.404-0.238-0.696c-0.041-0.208-0.061-0.625-0.061-1.25v-2.937h-0.82v-1.422h0.82v-1.344l1.791-1.047v2.391
	H154.2L154.2,125.721z M155.44,124.798v-1.656h1.779v1.656H155.44L155.44,124.798z M155.44,132.454v-6.733h1.779v6.733H155.44
	L155.44,132.454z M158.629,128.986c0-0.594,0.141-1.167,0.43-1.719c0.301-0.552,0.711-0.974,1.25-1.266
	c0.531-0.291,1.131-0.437,1.801-0.437c1.01,0,1.84,0.331,2.5,0.992s0.98,1.497,0.98,2.508c0,1.021-0.33,1.867-0.99,2.539
	s-1.49,1.008-2.49,1.008c-0.609,0-1.199-0.141-1.77-0.422c-0.561-0.281-0.98-0.689-1.281-1.227
	C158.77,130.427,158.629,129.768,158.629,128.986L158.629,128.986z M160.45,129.079c0,0.667,0.16,1.181,0.48,1.54
	s0.709,0.539,1.18,0.539s0.859-0.18,1.17-0.539s0.471-0.878,0.471-1.555c0-0.656-0.16-1.162-0.471-1.516
	c-0.311-0.354-0.699-0.531-1.17-0.531s-0.859,0.177-1.18,0.531C160.61,127.902,160.45,128.413,160.45,129.079L160.45,129.079z
	 M173.11,132.454h-1.779v-3.437c0-0.729-0.041-1.201-0.111-1.414c-0.08-0.214-0.209-0.38-0.379-0.5s-0.381-0.18-0.621-0.18
	c-0.299,0-0.568,0.086-0.818,0.258c-0.24,0.172-0.41,0.396-0.5,0.672c-0.102,0.276-0.15,0.794-0.15,1.555v3.046h-1.781v-6.733h1.66
	v0.984c0.58-0.76,1.32-1.14,2.221-1.14c0.391,0,0.75,0.07,1.08,0.211c0.32,0.14,0.57,0.32,0.74,0.539
	c0.17,0.219,0.289,0.469,0.35,0.75c0.061,0.281,0.09,0.682,0.09,1.203V132.454L173.11,132.454z"/>
<polygon fill="#FFCC99" points="79.36,219.945 175.36,219.945 175.36,242.945 79.36,242.945 79.36,219.945 "/>
<polygon fill="#FFFFDA" points="78.36,218.945 79.36,218.945 79.36,243.945 78.36,243.945 78.36,218.945 "/>
<polygon fill="#FFFFDA" points="79.36,218.945 175.36,218.945 175.36,219.945 79.36,219.945 79.36,218.945 "/>
<polygon fill="#B28E6B" points="79.36,242.945 176.36,242.945 176.36,243.945 79.36,243.945 79.36,242.945 "/>
<polygon fill="#B28E6B" points="175.36,218.945 176.36,218.945 176.36,242.945 175.36,242.945 175.36,218.945 "/>
<path d="M88.53,228.091h3.44c0.77,0,1.36,0.062,1.76,0.187c0.55,0.156,1.02,0.44,1.41,0.853c0.38,0.411,0.68,0.914,0.88,1.508
	c0.2,0.593,0.31,1.328,0.31,2.203c0,0.76-0.1,1.422-0.29,1.983c-0.22,0.678-0.56,1.225-1,1.642c-0.32,0.312-0.76,0.557-1.31,0.733
	c-0.41,0.136-0.97,0.203-1.67,0.203h-3.53V228.091L88.53,228.091z M90.4,229.669v6.172h1.41c0.53,0,0.91-0.032,1.14-0.095
	c0.3-0.072,0.56-0.2,0.76-0.383c0.2-0.182,0.37-0.481,0.49-0.897c0.13-0.417,0.189-0.985,0.189-1.703
	c0-0.719-0.06-1.271-0.189-1.657c-0.121-0.385-0.3-0.687-0.53-0.906c-0.23-0.219-0.52-0.364-0.88-0.437
	c-0.26-0.063-0.77-0.094-1.541-0.094H90.4L90.4,229.669z M97.84,237.402v-9.312h1.78v3.358c0.55-0.625,1.2-0.937,1.95-0.937
	c0.83,0,1.51,0.296,2.04,0.89c0.54,0.594,0.81,1.448,0.81,2.563c0,1.146-0.28,2.03-0.82,2.655c-0.55,0.625-1.209,0.938-2,0.938
	c-0.38,0-0.76-0.096-1.14-0.289c-0.37-0.192-0.69-0.476-0.96-0.851v0.983H97.84L97.84,237.402z M99.6,233.888
	c0,0.697,0.11,1.213,0.33,1.546c0.319,0.479,0.729,0.719,1.24,0.719c0.39,0,0.73-0.169,1-0.508c0.28-0.338,0.42-0.872,0.42-1.601
	c0-0.762-0.14-1.313-0.42-1.656c-0.27-0.344-0.63-0.517-1.07-0.517c-0.42,0-0.78,0.167-1.07,0.5
	C99.75,232.704,99.6,233.21,99.6,233.888L99.6,233.888z M105.39,234.371l1.83-0.172c0.11,0.615,0.34,1.065,0.669,1.353
	c0.331,0.286,0.79,0.429,1.36,0.429c0.601,0,1.06-0.127,1.371-0.383c0.3-0.255,0.46-0.554,0.46-0.898c0-0.219-0.07-0.405-0.2-0.562
	c-0.13-0.157-0.36-0.292-0.68-0.407c-0.22-0.073-0.72-0.208-1.5-0.406c-1.01-0.25-1.72-0.557-2.12-0.922
	c-0.57-0.51-0.85-1.135-0.85-1.875c0-0.469,0.14-0.909,0.4-1.32c0.27-0.411,0.65-0.727,1.16-0.944c0.5-0.219,1.11-0.329,1.83-0.329
	c1.17,0,2.05,0.258,2.64,0.774c0.59,0.515,0.89,1.199,0.93,2.055l-1.88,0.078c-0.08-0.479-0.25-0.823-0.51-1.032
	c-0.26-0.208-0.66-0.313-1.19-0.313c-0.55,0-0.98,0.109-1.28,0.328c-0.2,0.146-0.3,0.339-0.3,0.578c0,0.219,0.09,0.406,0.27,0.563
	c0.24,0.208,0.81,0.419,1.73,0.632c0.92,0.214,1.59,0.435,2.03,0.665c0.44,0.229,0.78,0.544,1.02,0.945
	c0.25,0.4,0.37,0.897,0.37,1.491c0,0.531-0.15,1.029-0.44,1.492c-0.3,0.464-0.72,0.811-1.26,1.039
	c-0.54,0.229-1.21,0.344-2.02,0.344c-1.17,0-2.08-0.272-2.71-0.819S105.51,235.413,105.39,234.371L105.39,234.371z M117.62,230.669
	v1.422h-1.22v2.703c0,0.552,0.01,0.875,0.04,0.969c0.02,0.093,0.07,0.169,0.15,0.226c0.08,0.058,0.18,0.086,0.3,0.086
	c0.16,0,0.4-0.057,0.72-0.172l0.15,1.392c-0.41,0.177-0.88,0.265-1.4,0.265c-0.33,0-0.62-0.054-0.88-0.164
	c-0.26-0.109-0.45-0.25-0.57-0.422c-0.12-0.171-0.2-0.403-0.24-0.695c-0.04-0.208-0.06-0.625-0.06-1.25v-2.937h-0.82v-1.422h0.82
	v-1.345l1.79-1.047v2.392H117.62L117.62,230.669z M120.19,232.716l-1.63-0.297c0.19-0.646,0.5-1.125,0.95-1.438
	c0.44-0.312,1.1-0.468,1.97-0.468c0.81,0,1.4,0.093,1.78,0.281c0.39,0.187,0.66,0.427,0.82,0.719c0.17,0.291,0.25,0.822,0.25,1.593
	l-0.02,2.078c0,0.594,0.03,1.032,0.09,1.313c0.05,0.281,0.16,0.583,0.32,0.906h-1.77c-0.05-0.114-0.11-0.291-0.17-0.531
	c-0.03-0.104-0.05-0.172-0.06-0.202c-0.32,0.291-0.64,0.513-0.99,0.664c-0.34,0.15-0.71,0.226-1.11,0.226
	c-0.69,0-1.24-0.19-1.64-0.57c-0.39-0.38-0.59-0.856-0.59-1.43c0-0.375,0.09-0.713,0.27-1.015c0.19-0.303,0.44-0.531,0.771-0.688
	c0.33-0.156,0.8-0.297,1.41-0.422c0.84-0.156,1.41-0.302,1.74-0.438v-0.172c0-0.344-0.09-0.588-0.26-0.733
	c-0.17-0.146-0.49-0.22-0.96-0.22c-0.31,0-0.56,0.063-0.74,0.188C120.45,232.184,120.3,232.402,120.19,232.716L120.19,232.716z
	 M122.58,234.169c-0.23,0.072-0.59,0.16-1.09,0.265c-0.49,0.104-0.82,0.209-0.98,0.313c-0.22,0.167-0.34,0.375-0.34,0.625
	s0.09,0.467,0.28,0.648c0.189,0.183,0.42,0.274,0.7,0.274c0.33,0,0.64-0.104,0.93-0.313c0.22-0.156,0.36-0.354,0.42-0.593
	c0.05-0.146,0.08-0.434,0.08-0.86V234.169L122.58,234.169z M129.18,230.669v1.422h-1.221v2.703c0,0.552,0.01,0.875,0.031,0.969
	c0.029,0.093,0.078,0.169,0.16,0.226c0.08,0.058,0.18,0.086,0.299,0.086c0.16,0,0.4-0.057,0.721-0.172l0.15,1.392
	c-0.41,0.177-0.881,0.265-1.4,0.265c-0.33,0-0.621-0.054-0.881-0.164c-0.26-0.109-0.449-0.25-0.57-0.422
	c-0.12-0.171-0.2-0.403-0.24-0.695c-0.039-0.208-0.06-0.625-0.06-1.25v-2.937h-0.82v-1.422h0.82v-1.345l1.79-1.047v2.392H129.18
	L129.18,230.669z M134.321,235.263l1.77,0.296c-0.23,0.646-0.59,1.141-1.08,1.485c-0.49,0.344-1.1,0.515-1.84,0.515
	c-1.182,0-2.051-0.385-2.611-1.156c-0.449-0.614-0.67-1.385-0.67-2.312c0-1.125,0.291-2.003,0.881-2.634
	c0.59-0.63,1.32-0.944,2.209-0.944c1.012,0,1.801,0.33,2.381,0.992c0.58,0.661,0.85,1.674,0.82,3.039h-4.471
	c0.021,0.53,0.17,0.942,0.441,1.233c0.27,0.292,0.619,0.438,1.029,0.438c0.279,0,0.52-0.076,0.709-0.228
	C134.069,235.838,134.219,235.596,134.321,235.263L134.321,235.263z M134.42,233.449c-0.01-0.51-0.15-0.9-0.4-1.172
	c-0.26-0.271-0.57-0.406-0.93-0.406c-0.391,0-0.711,0.142-0.971,0.423c-0.25,0.291-0.369,0.677-0.369,1.155H134.42L134.42,233.449z
	 M137.51,230.669h1.639v0.905c0.592-0.708,1.291-1.062,2.111-1.062c0.42,0,0.799,0.088,1.109,0.265
	c0.32,0.177,0.58,0.443,0.791,0.797c0.289-0.354,0.609-0.62,0.959-0.797c0.34-0.177,0.701-0.265,1.09-0.265
	c0.5,0,0.92,0.099,1.27,0.296c0.34,0.198,0.592,0.495,0.762,0.891c0.129,0.281,0.189,0.745,0.189,1.392v4.312h-1.779v-3.858
	c0-0.667-0.07-1.095-0.191-1.281c-0.17-0.261-0.42-0.392-0.77-0.392c-0.25,0-0.48,0.075-0.701,0.227
	c-0.219,0.152-0.379,0.375-0.479,0.672c-0.09,0.297-0.141,0.763-0.141,1.399v3.233h-1.789v-3.687c0-0.657-0.031-1.081-0.09-1.274
	c-0.061-0.191-0.16-0.336-0.301-0.429c-0.131-0.094-0.311-0.142-0.541-0.142c-0.27,0-0.52,0.075-0.738,0.227
	c-0.221,0.152-0.371,0.365-0.471,0.641c-0.1,0.276-0.15,0.737-0.15,1.383v3.281h-1.779V230.669L137.51,230.669z M153.11,235.263
	l1.77,0.296c-0.229,0.646-0.59,1.141-1.08,1.485c-0.49,0.344-1.1,0.515-1.84,0.515c-1.18,0-2.049-0.385-2.609-1.156
	c-0.451-0.614-0.68-1.385-0.68-2.312c0-1.125,0.299-2.003,0.889-2.634c0.592-0.63,1.32-0.944,2.211-0.944
	c1.01,0,1.799,0.33,2.379,0.992c0.58,0.661,0.852,1.674,0.82,3.039H150.5c0.02,0.53,0.17,0.942,0.439,1.233
	c0.27,0.292,0.619,0.438,1.029,0.438c0.281,0,0.521-0.076,0.701-0.228C152.86,235.838,153.01,235.596,153.11,235.263L153.11,235.263
	z M153.209,233.449c-0.01-0.51-0.15-0.9-0.4-1.172c-0.26-0.271-0.57-0.406-0.93-0.406c-0.391,0-0.709,0.142-0.969,0.423
	c-0.25,0.291-0.381,0.677-0.381,1.155H153.209L153.209,233.449z M162.559,237.402h-1.779v-3.437c0-0.729-0.039-1.201-0.119-1.414
	c-0.08-0.214-0.201-0.381-0.371-0.5c-0.17-0.12-0.379-0.181-0.619-0.181c-0.301,0-0.57,0.086-0.82,0.259
	c-0.24,0.172-0.41,0.396-0.51,0.672c-0.09,0.275-0.141,0.794-0.141,1.554v3.047h-1.779v-6.733h1.66v0.983
	c0.58-0.76,1.318-1.14,2.219-1.14c0.391,0,0.75,0.07,1.07,0.21c0.33,0.141,0.57,0.321,0.75,0.54c0.17,0.218,0.279,0.468,0.35,0.75
	c0.061,0.281,0.09,0.682,0.09,1.203V237.402L162.559,237.402z M167.469,230.669v1.422h-1.219v2.703c0,0.552,0.01,0.875,0.029,0.969
	c0.02,0.093,0.08,0.169,0.16,0.226c0.08,0.058,0.18,0.086,0.301,0.086c0.158,0,0.398-0.057,0.719-0.172l0.15,1.392
	c-0.42,0.177-0.881,0.265-1.4,0.265c-0.33,0-0.619-0.054-0.879-0.164c-0.26-0.109-0.451-0.25-0.57-0.422
	c-0.121-0.171-0.201-0.403-0.24-0.695c-0.041-0.208-0.061-0.625-0.061-1.25v-2.937h-0.82v-1.422h0.82v-1.345l1.791-1.047v2.392
	H167.469L167.469,230.669z"/>
<polygon fill="#99CCFF" points="80.36,9.945 176.36,9.945 176.36,32.945 80.36,32.945 80.36,9.945 "/>
<polygon fill="#DAFFFF" points="79.36,8.945 80.36,8.945 80.36,33.945 79.36,33.945 79.36,8.945 "/>
<polygon fill="#DAFFFF" points="80.36,8.945 176.36,8.945 176.36,9.945 80.36,9.945 80.36,8.945 "/>
<polygon fill="#6B8EB2" points="80.36,32.945 177.36,32.945 177.36,33.945 80.36,33.945 80.36,32.945 "/>
<polygon fill="#6B8EB2" points="176.36,8.945 177.36,8.945 177.36,32.945 176.36,32.945 176.36,8.945 "/>
<path d="M95.12,18.195h3.44c0.77,0,1.36,0.063,1.77,0.188c0.55,0.156,1.02,0.44,1.4,0.852c0.39,0.412,0.68,0.914,0.89,1.508
	c0.2,0.594,0.3,1.328,0.3,2.203c0,0.76-0.09,1.422-0.28,1.984c-0.229,0.677-0.56,1.224-1,1.641c-0.32,0.313-0.76,0.557-1.31,0.734
	c-0.42,0.135-0.98,0.203-1.67,0.203h-3.54V18.195L95.12,18.195z M97,19.773v6.172h1.41c0.53,0,0.91-0.031,1.14-0.094
	c0.3-0.073,0.55-0.201,0.75-0.383c0.21-0.182,0.37-0.482,0.5-0.898c0.12-0.417,0.18-0.984,0.18-1.703s-0.06-1.271-0.18-1.656
	c-0.13-0.385-0.31-0.688-0.54-0.906c-0.22-0.219-0.52-0.365-0.87-0.438c-0.26-0.063-0.78-0.094-1.55-0.094H97L97,19.773z
	 M104.43,27.507v-9.313h1.79v3.359c0.55-0.625,1.2-0.938,1.95-0.938c0.82,0,1.5,0.297,2.04,0.891c0.53,0.594,0.8,1.448,0.8,2.563
	c0,1.146-0.27,2.031-0.82,2.656s-1.21,0.938-1.99,0.938c-0.39,0-0.77-0.096-1.14-0.289c-0.38-0.193-0.7-0.477-0.97-0.852v0.984
	H104.43L104.43,27.507z M106.2,23.992c0,0.698,0.11,1.213,0.33,1.547c0.31,0.479,0.72,0.719,1.23,0.719c0.4,0,0.73-0.169,1.01-0.508
	c0.28-0.338,0.41-0.873,0.41-1.602c0-0.76-0.13-1.313-0.41-1.656c-0.28-0.344-0.63-0.516-1.07-0.516c-0.43,0-0.78,0.167-1.07,0.5
	S106.2,23.314,106.2,23.992L106.2,23.992z M112.44,27.507v-9.313h2.81l1.69,6.359l1.67-6.359h2.81v9.313h-1.75v-7.328l-1.84,7.328
	h-1.81l-1.83-7.328v7.328H112.44L112.44,27.507z M124.61,22.82l-1.62-0.297c0.18-0.646,0.5-1.125,0.94-1.438
	c0.44-0.313,1.1-0.469,1.98-0.469c0.799,0,1.389,0.094,1.78,0.281c0.379,0.188,0.66,0.427,0.82,0.719s0.24,0.823,0.24,1.594
	l-0.01,2.078c0,0.594,0.02,1.031,0.078,1.313c0.061,0.281,0.17,0.583,0.32,0.906h-1.76c-0.061-0.115-0.109-0.292-0.18-0.531
	c-0.029-0.104-0.051-0.172-0.061-0.203c-0.309,0.292-0.639,0.513-0.979,0.664c-0.351,0.151-0.72,0.227-1.11,0.227
	c-0.7,0-1.25-0.19-1.64-0.57c-0.4-0.38-0.6-0.857-0.6-1.43c0-0.375,0.09-0.713,0.28-1.016c0.18-0.302,0.43-0.531,0.76-0.688
	c0.331-0.156,0.8-0.297,1.42-0.422c0.83-0.156,1.41-0.302,1.73-0.438v-0.172c0-0.344-0.09-0.588-0.262-0.734
	c-0.17-0.146-0.489-0.219-0.958-0.219c-0.31,0-0.56,0.063-0.73,0.188C124.87,22.289,124.72,22.507,124.61,22.82L124.61,22.82z
	 M127,24.273c-0.23,0.073-0.59,0.162-1.09,0.266c-0.49,0.104-0.82,0.208-0.97,0.313c-0.23,0.167-0.35,0.375-0.35,0.625
	s0.1,0.466,0.29,0.648c0.18,0.182,0.42,0.273,0.7,0.273c0.321,0,0.63-0.104,0.921-0.313c0.219-0.156,0.359-0.354,0.42-0.594
	c0.049-0.146,0.08-0.432,0.08-0.859V24.273L127,24.273z M136.639,27.507h-1.779V24.07c0-0.729-0.041-1.201-0.119-1.414
	c-0.08-0.213-0.201-0.38-0.381-0.5c-0.17-0.12-0.369-0.18-0.609-0.18c-0.311,0-0.58,0.086-0.82,0.258
	c-0.25,0.172-0.42,0.396-0.51,0.672c-0.1,0.276-0.141,0.794-0.141,1.555v3.047H130.5v-6.734h1.65v0.984
	c0.588-0.76,1.33-1.141,2.219-1.141c0.4,0,0.76,0.07,1.08,0.211s0.57,0.32,0.74,0.539s0.291,0.469,0.35,0.75
	c0.07,0.281,0.1,0.682,0.1,1.203V27.507L136.639,27.507z M139.78,22.82l-1.619-0.297c0.18-0.646,0.5-1.125,0.939-1.438
	s1.1-0.469,1.98-0.469c0.799,0,1.389,0.094,1.779,0.281c0.379,0.188,0.66,0.427,0.82,0.719s0.24,0.823,0.24,1.594l-0.01,2.078
	c0,0.594,0.02,1.031,0.078,1.313c0.061,0.281,0.172,0.583,0.32,0.906h-1.76c-0.061-0.115-0.109-0.292-0.18-0.531
	c-0.029-0.104-0.051-0.172-0.061-0.203c-0.309,0.292-0.639,0.513-0.979,0.664c-0.35,0.151-0.721,0.227-1.111,0.227
	c-0.699,0-1.25-0.19-1.639-0.57c-0.4-0.38-0.6-0.857-0.6-1.43c0-0.375,0.1-0.713,0.279-1.016s0.439-0.531,0.76-0.688
	c0.33-0.156,0.801-0.297,1.42-0.422c0.83-0.156,1.41-0.302,1.73-0.438v-0.172c0-0.344-0.08-0.588-0.26-0.734
	c-0.172-0.146-0.49-0.219-0.961-0.219c-0.311,0-0.549,0.063-0.73,0.188C140.04,22.289,139.899,22.507,139.78,22.82L139.78,22.82z
	 M142.17,24.273c-0.23,0.073-0.59,0.162-1.08,0.266c-0.5,0.104-0.82,0.208-0.98,0.313c-0.23,0.167-0.34,0.375-0.34,0.625
	s0.09,0.466,0.279,0.648c0.182,0.182,0.42,0.273,0.701,0.273c0.32,0,0.629-0.104,0.92-0.313c0.219-0.156,0.359-0.354,0.42-0.594
	c0.059-0.146,0.08-0.432,0.08-0.859V24.273L142.17,24.273z M145.51,27.945l2.049,0.25c0.031,0.24,0.111,0.406,0.23,0.5
	c0.17,0.125,0.43,0.188,0.801,0.188c0.459,0,0.811-0.073,1.049-0.219c0.15-0.094,0.271-0.24,0.361-0.438
	c0.049-0.156,0.07-0.432,0.07-0.828v-0.984c-0.531,0.729-1.201,1.094-2.012,1.094c-0.908,0-1.629-0.385-2.16-1.156
	c-0.41-0.604-0.619-1.354-0.619-2.25c0-1.135,0.27-2,0.82-2.594c0.539-0.594,1.221-0.891,2.02-0.891c0.83,0,1.52,0.365,2.061,1.094
	v-0.938h1.67v6.047c0,0.792-0.061,1.385-0.189,1.781c-0.131,0.396-0.32,0.706-0.561,0.93c-0.23,0.224-0.551,0.398-0.949,0.523
	c-0.391,0.125-0.891,0.188-1.5,0.188c-1.131,0-1.941-0.195-2.42-0.586c-0.48-0.391-0.721-0.888-0.721-1.492
	C145.51,28.111,145.51,28.039,145.51,27.945L145.51,27.945z M147.1,23.992c0,0.719,0.141,1.245,0.42,1.578
	c0.27,0.333,0.619,0.5,1.02,0.5c0.441,0,0.811-0.172,1.109-0.516c0.301-0.344,0.451-0.849,0.451-1.516
	c0-0.698-0.141-1.216-0.42-1.555c-0.291-0.338-0.66-0.508-1.109-0.508c-0.422,0-0.781,0.167-1.051,0.5
	C147.241,22.81,147.1,23.314,147.1,23.992L147.1,23.992z M157.53,25.367l1.77,0.297c-0.229,0.646-0.59,1.141-1.08,1.484
	s-1.109,0.516-1.85,0.516c-1.17,0-2.039-0.385-2.609-1.156c-0.439-0.615-0.67-1.385-0.67-2.313c0-1.125,0.299-2.002,0.889-2.633
	c0.58-0.63,1.32-0.945,2.211-0.945c1.01,0,1.801,0.331,2.381,0.992s0.85,1.674,0.818,3.039h-4.469
	c0.02,0.531,0.17,0.943,0.439,1.234s0.609,0.438,1.029,0.438c0.281,0,0.521-0.076,0.701-0.227
	C157.28,25.942,157.43,25.7,157.53,25.367L157.53,25.367z M157.62,23.554c-0.01-0.51-0.139-0.901-0.389-1.172
	c-0.262-0.271-0.57-0.406-0.932-0.406c-0.389,0-0.709,0.141-0.969,0.422c-0.25,0.292-0.381,0.677-0.381,1.156H157.62L157.62,23.554z
	 M162.559,27.507h-1.779v-6.734h1.65v0.953c0.279-0.458,0.539-0.758,0.77-0.898s0.48-0.211,0.76-0.211
	c0.41,0,0.801,0.109,1.18,0.328l-0.549,1.563c-0.301-0.198-0.59-0.297-0.85-0.297c-0.252,0-0.461,0.07-0.631,0.211
	s-0.311,0.391-0.4,0.75c-0.1,0.359-0.15,1.112-0.15,2.258V27.507L162.559,27.507z"/>
<polyline fill="none" stroke="#000000" stroke-miterlimit="1.45" points="107.63,139.376 101.1,143.687 94.79,148.114 
	88.98,152.539 83.78,156.959 79.29,161.371 75.59,165.777 72.81,170.176 71.03,174.565 70.36,178.945 70.86,183.315 72.48,187.676 
	75.09,192.027 78.62,196.371 82.95,200.709 87.98,205.039 93.62,209.364 99.77,213.687 102.55,215.524 102.64,215.578 "/>
<polygon points="108.51,219.391 99.92,219.771 96.77,211.767 105.36,211.385 "/>
<path d="M17.48,176.135l1.79-8.594h3.6c0.61,0,1.081,0.072,1.39,0.219c0.31,0.146,0.57,0.391,0.77,0.733
	c0.21,0.345,0.31,0.729,0.31,1.157c0,0.354-0.08,0.716-0.22,1.085c-0.149,0.37-0.33,0.675-0.55,0.915
	c-0.22,0.239-0.44,0.419-0.67,0.539c-0.23,0.119-0.47,0.205-0.72,0.257c-0.55,0.137-1.11,0.204-1.67,0.204h-2.16l-0.72,3.484H17.48
	L17.48,176.135z M19.56,171.682h1.891c0.74,0,1.28-0.081,1.62-0.242c0.35-0.162,0.62-0.404,0.83-0.727
	c0.21-0.323,0.31-0.667,0.31-1.031c0-0.281-0.05-0.511-0.16-0.688c-0.11-0.177-0.27-0.307-0.47-0.39
	c-0.2-0.084-0.59-0.125-1.15-0.125h-2.2L19.56,171.682L19.56,171.682z M29.56,175.354c-0.36,0.323-0.72,0.557-1.05,0.703
	c-0.34,0.146-0.71,0.219-1.11,0.219c-0.57,0-1.03-0.17-1.38-0.508c-0.35-0.339-0.52-0.774-0.52-1.305c0-0.345,0.08-0.648,0.23-0.914
	c0.16-0.267,0.37-0.479,0.63-0.642c0.26-0.161,0.58-0.277,0.97-0.351c0.23-0.052,0.689-0.091,1.35-0.117
	c0.669-0.026,1.15-0.097,1.43-0.211c0.08-0.292,0.12-0.532,0.12-0.719c0-0.25-0.09-0.443-0.26-0.578
	c-0.25-0.198-0.61-0.297-1.08-0.297c-0.45,0-0.81,0.099-1.1,0.297c-0.28,0.198-0.49,0.479-0.62,0.844l-1.06-0.094
	c0.22-0.615,0.56-1.086,1.04-1.414c0.47-0.328,1.07-0.492,1.78-0.492c0.78,0,1.38,0.183,1.83,0.546
	c0.35,0.271,0.52,0.625,0.52,1.063c0,0.333-0.05,0.719-0.14,1.156l-0.35,1.547c-0.11,0.489-0.17,0.891-0.17,1.203
	c0,0.197,0.05,0.479,0.14,0.844h-1.08C29.62,175.927,29.58,175.666,29.56,175.354L29.56,175.354z M29.95,172.979
	c-0.15,0.063-0.3,0.109-0.48,0.14c-0.17,0.032-0.45,0.063-0.85,0.095c-0.61,0.052-1.05,0.122-1.3,0.211
	c-0.26,0.089-0.45,0.224-0.58,0.405c-0.13,0.184-0.2,0.384-0.2,0.603c0,0.302,0.11,0.547,0.32,0.734c0.2,0.188,0.5,0.28,0.87,0.28
	c0.36,0,0.69-0.091,1.02-0.272c0.32-0.183,0.58-0.44,0.76-0.773C29.7,174.066,29.85,173.593,29.95,172.979L29.95,172.979z
	 M32.05,176.135l1.29-6.219h0.94l-0.27,1.266c0.33-0.479,0.64-0.834,0.95-1.063c0.31-0.229,0.62-0.343,0.93-0.343
	c0.22,0,0.48,0.072,0.78,0.218l-0.44,0.985c-0.17-0.125-0.37-0.188-0.59-0.188c-0.38,0-0.76,0.205-1.15,0.616
	c-0.39,0.412-0.69,1.154-0.91,2.228l-0.53,2.5H32.05L32.05,176.135z M40.6,174.025l1.041,0.093c-0.15,0.512-0.49,0.998-1.03,1.461
	c-0.53,0.465-1.17,0.696-1.9,0.696c-0.46,0-0.89-0.106-1.28-0.321c-0.38-0.213-0.67-0.522-0.87-0.929c-0.2-0.407-0.3-0.87-0.3-1.391
	c0-0.677,0.16-1.336,0.47-1.978c0.31-0.64,0.72-1.113,1.22-1.422c0.5-0.307,1.04-0.46,1.62-0.46c0.74,0,1.33,0.229,1.78,0.688
	c0.44,0.458,0.66,1.089,0.66,1.891c0,0.302-0.03,0.614-0.08,0.938h-4.58c-0.02,0.114-0.03,0.224-0.03,0.327
	c0,0.584,0.14,1.026,0.41,1.328c0.27,0.304,0.6,0.454,0.98,0.454c0.37,0,0.73-0.118,1.07-0.352
	C40.13,174.814,40.41,174.473,40.6,174.025L40.6,174.025z M37.53,172.479h3.48c0.01-0.115,0.02-0.193,0.02-0.235
	c0-0.53-0.14-0.937-0.4-1.218c-0.27-0.282-0.61-0.422-1.03-0.422c-0.45,0-0.87,0.156-1.25,0.468
	C37.98,171.385,37.7,171.854,37.53,172.479L37.53,172.479z M42.72,176.135l1.29-6.219h0.96l-0.22,1.077
	c0.41-0.427,0.8-0.736,1.17-0.929c0.36-0.193,0.73-0.289,1.11-0.289c0.5,0,0.89,0.135,1.18,0.406c0.28,0.271,0.43,0.635,0.43,1.094
	c0,0.229-0.05,0.593-0.14,1.093l-0.8,3.767h-1.06l0.83-3.938c0.08-0.385,0.12-0.671,0.12-0.858c0-0.208-0.07-0.375-0.21-0.5
	c-0.14-0.125-0.35-0.188-0.62-0.188c-0.54,0-1.02,0.195-1.45,0.585c-0.43,0.392-0.74,1.061-0.94,2.008l-0.61,2.892H42.72
	L42.72,176.135z M51.86,175.275l-0.17,0.859c-0.25,0.073-0.5,0.108-0.74,0.108c-0.42,0-0.76-0.104-1.01-0.312
	c-0.19-0.156-0.28-0.37-0.28-0.641c0-0.136,0.05-0.448,0.15-0.938l0.75-3.625h-0.83l0.18-0.813h0.82l0.33-1.531l1.2-0.734
	l-0.46,2.266h1.04l-0.17,0.813h-1.05l-0.71,3.438c-0.1,0.438-0.15,0.702-0.15,0.797c0,0.125,0.04,0.219,0.11,0.28
	c0.08,0.063,0.2,0.095,0.36,0.095C51.47,175.338,51.68,175.316,51.86,175.275L51.86,175.275z"/>
<path d="M7.52,190.836l1.8-8.595h3.61c0.7,0,1.24,0.061,1.61,0.181s0.66,0.344,0.87,0.672c0.21,0.328,0.31,0.742,0.31,1.242
	c0,0.697-0.23,1.278-0.68,1.741c-0.46,0.465-1.2,0.764-2.22,0.899c0.31,0.229,0.54,0.453,0.7,0.672c0.36,0.51,0.66,1.031,0.87,1.563
	l0.66,1.625h-1.28l-0.629-1.595c-0.21-0.583-0.46-1.083-0.75-1.5c-0.19-0.302-0.39-0.497-0.601-0.586
	c-0.2-0.088-0.53-0.132-0.99-0.132H9.47l-0.79,3.813H7.52L7.52,190.836z M9.66,186.086h1.59c0.73,0,1.21-0.011,1.43-0.031
	c0.43-0.042,0.791-0.138,1.07-0.289c0.27-0.151,0.49-0.357,0.64-0.617c0.16-0.261,0.24-0.537,0.24-0.829
	c0-0.25-0.06-0.468-0.17-0.656c-0.12-0.187-0.27-0.312-0.45-0.375c-0.18-0.062-0.5-0.094-0.94-0.094h-2.8L9.66,186.086L9.66,186.086
	z M20.59,188.727l1.03,0.093c-0.14,0.511-0.48,0.998-1.02,1.461c-0.54,0.464-1.17,0.696-1.9,0.696c-0.47,0-0.89-0.107-1.28-0.321
	c-0.39-0.213-0.68-0.522-0.87-0.929c-0.2-0.407-0.3-0.87-0.3-1.391c0-0.678,0.15-1.336,0.47-1.977c0.31-0.641,0.72-1.115,1.22-1.422
	c0.5-0.308,1.04-0.461,1.62-0.461c0.74,0,1.33,0.229,1.771,0.687c0.45,0.46,0.67,1.09,0.67,1.892c0,0.302-0.03,0.614-0.08,0.937
	h-4.58c-0.02,0.115-0.03,0.225-0.03,0.328c0,0.584,0.14,1.027,0.41,1.329s0.6,0.453,0.98,0.453c0.37,0,0.72-0.117,1.069-0.352
	C20.12,189.516,20.39,189.175,20.59,188.727L20.59,188.727z M17.51,187.18H21c0.01-0.115,0.01-0.193,0.01-0.235
	c0-0.531-0.13-0.937-0.39-1.218c-0.27-0.282-0.61-0.422-1.03-0.422c-0.46,0-0.87,0.156-1.25,0.469
	C17.97,186.086,17.69,186.555,17.51,187.18L17.51,187.18z M22.84,190.836l1.13-5.406h-0.94l0.16-0.813h0.95l0.19-0.89
	c0.09-0.438,0.19-0.755,0.29-0.953s0.26-0.36,0.48-0.485c0.23-0.125,0.53-0.187,0.92-0.187c0.27,0,0.66,0.057,1.17,0.172L27,183.194
	c-0.36-0.093-0.67-0.14-0.91-0.14c-0.2,0-0.36,0.052-0.46,0.156c-0.11,0.104-0.2,0.349-0.29,0.733l-0.14,0.672h1.19l-0.17,0.813
	h-1.19l-1.12,5.406H22.84L22.84,190.836z M30.6,188.727l1.03,0.093c-0.14,0.511-0.49,0.998-1.02,1.461
	c-0.54,0.464-1.17,0.696-1.9,0.696c-0.47,0-0.9-0.107-1.28-0.321c-0.39-0.213-0.68-0.522-0.88-0.929
	c-0.2-0.407-0.29-0.87-0.29-1.391c0-0.678,0.15-1.336,0.46-1.977c0.32-0.641,0.72-1.115,1.22-1.422c0.5-0.308,1.05-0.461,1.63-0.461
	c0.74,0,1.33,0.229,1.77,0.687c0.44,0.46,0.67,1.09,0.67,1.892c0,0.302-0.03,0.614-0.08,0.937h-4.58
	c-0.02,0.115-0.03,0.225-0.03,0.328c0,0.584,0.13,1.027,0.4,1.329c0.28,0.302,0.6,0.453,0.99,0.453c0.36,0,0.72-0.117,1.07-0.352
	C30.13,189.516,30.4,189.175,30.6,188.727L30.6,188.727z M27.52,187.18h3.49c0.01-0.115,0.01-0.193,0.01-0.235
	c0-0.531-0.129-0.937-0.399-1.218c-0.26-0.282-0.6-0.422-1.02-0.422c-0.46,0-0.88,0.156-1.25,0.469
	C27.97,186.086,27.7,186.555,27.52,187.18L27.52,187.18z M32.71,190.836l1.3-6.22h0.94l-0.27,1.267
	c0.32-0.479,0.64-0.833,0.95-1.063c0.3-0.229,0.61-0.343,0.92-0.343c0.22,0,0.48,0.073,0.79,0.218l-0.44,0.985
	c-0.18-0.125-0.38-0.188-0.6-0.188c-0.37,0-0.75,0.206-1.14,0.618c-0.391,0.411-0.7,1.153-0.92,2.227l-0.53,2.5H32.71L32.71,190.836
	z M41.27,188.727l1.03,0.093c-0.14,0.511-0.49,0.998-1.02,1.461c-0.54,0.464-1.17,0.696-1.9,0.696c-0.47,0-0.9-0.107-1.28-0.321
	c-0.39-0.213-0.68-0.522-0.88-0.929c-0.2-0.407-0.29-0.87-0.29-1.391c0-0.678,0.15-1.336,0.459-1.977
	c0.32-0.641,0.72-1.115,1.22-1.422c0.5-0.308,1.05-0.461,1.63-0.461c0.74,0,1.33,0.229,1.77,0.687c0.44,0.46,0.67,1.09,0.67,1.892
	c0,0.302-0.03,0.614-0.08,0.937h-4.58c-0.02,0.115-0.03,0.225-0.03,0.328c0,0.584,0.13,1.027,0.4,1.329
	c0.28,0.302,0.6,0.453,0.99,0.453c0.36,0,0.72-0.117,1.07-0.352C40.8,189.516,41.07,189.175,41.27,188.727L41.27,188.727z
	 M38.19,187.18h3.49c0.01-0.115,0.01-0.193,0.01-0.235c0-0.531-0.13-0.937-0.4-1.218c-0.26-0.282-0.6-0.422-1.02-0.422
	c-0.46,0-0.88,0.156-1.25,0.469C38.64,186.086,38.37,186.555,38.19,187.18L38.19,187.18z M43.38,190.836l1.3-6.22h0.95l-0.22,1.078
	c0.42-0.427,0.81-0.736,1.17-0.929c0.37-0.193,0.74-0.289,1.11-0.289c0.5,0,0.9,0.135,1.18,0.406c0.29,0.271,0.43,0.635,0.43,1.094
	c0,0.229-0.04,0.593-0.14,1.093l-0.791,3.767H47.3l0.83-3.938c0.08-0.386,0.13-0.672,0.13-0.86c0-0.208-0.07-0.375-0.21-0.5
	c-0.15-0.125-0.35-0.187-0.62-0.187c-0.54,0-1.03,0.195-1.46,0.586c-0.42,0.39-0.73,1.061-0.93,2.007l-0.61,2.892H43.38
	L43.38,190.836z M54.34,188.569l1.06,0.11c-0.26,0.781-0.64,1.358-1.13,1.733c-0.49,0.375-1.04,0.563-1.67,0.563
	c-0.68,0-1.22-0.219-1.649-0.657c-0.42-0.437-0.63-1.046-0.63-1.828c0-0.687,0.14-1.358,0.41-2.015
	c0.27-0.657,0.65-1.154,1.15-1.492c0.5-0.339,1.08-0.508,1.72-0.508c0.669,0,1.2,0.187,1.59,0.562s0.58,0.875,0.58,1.5l-1.03,0.063
	c-0.01-0.396-0.13-0.703-0.35-0.922c-0.22-0.219-0.52-0.328-0.88-0.328c-0.43,0-0.8,0.133-1.11,0.398s-0.56,0.675-0.74,1.227
	c-0.17,0.552-0.26,1.078-0.26,1.578c0,0.531,0.12,0.93,0.35,1.195s0.52,0.398,0.87,0.398c0.34,0,0.67-0.131,0.98-0.391
	C53.91,189.497,54.16,189.102,54.34,188.569L54.34,188.569z M60.62,188.727l1.03,0.093c-0.15,0.511-0.49,0.998-1.02,1.461
	c-0.54,0.464-1.17,0.696-1.9,0.696c-0.47,0-0.9-0.107-1.28-0.321c-0.391-0.213-0.68-0.522-0.88-0.929c-0.2-0.407-0.3-0.87-0.3-1.391
	c0-0.678,0.16-1.336,0.47-1.977c0.31-0.641,0.72-1.115,1.22-1.422c0.5-0.308,1.04-0.461,1.63-0.461c0.74,0,1.33,0.229,1.77,0.687
	c0.44,0.46,0.66,1.09,0.66,1.892c0,0.302-0.02,0.614-0.07,0.937H57.37c-0.02,0.115-0.03,0.225-0.03,0.328
	c0,0.584,0.13,1.027,0.4,1.329s0.6,0.453,0.99,0.453c0.36,0,0.72-0.117,1.07-0.352S60.42,189.175,60.62,188.727L60.62,188.727z
	 M57.54,187.18h3.48c0.01-0.115,0.021-0.193,0.021-0.235c0-0.531-0.13-0.937-0.4-1.218c-0.26-0.282-0.61-0.422-1.02-0.422
	c-0.459,0-0.88,0.156-1.25,0.469C57.99,186.086,57.72,186.555,57.54,187.18L57.54,187.18z"/>
<line fill="none" stroke="#000000" stroke-miterlimit="1.45" stroke-dasharray="6,2" x1="129.35" y1="139.363" x2="128.18" y2="204.328"/>
<polygon fill="#FFFFFF" points="127.911,219.325 134.2,203.438 122.2,203.221 "/>
<polygon fill="none" stroke="#000000" stroke-miterlimit="1.45" points="127.911,219.325 134.2,203.438 122.2,203.221 "/>
<path d="M87.85,181.042l1.14,0.172c-0.36,0.989-0.89,1.736-1.58,2.241c-0.68,0.506-1.45,0.759-2.31,0.759
	c-1.041,0-1.87-0.318-2.48-0.953c-0.601-0.636-0.91-1.547-0.91-2.734c0-1.542,0.46-2.823,1.39-3.844
	c0.83-0.896,1.87-1.344,3.09-1.344c0.91,0,1.65,0.245,2.21,0.733c0.56,0.49,0.89,1.146,0.98,1.97l-1.08,0.094
	c-0.1-0.625-0.33-1.089-0.68-1.392c-0.36-0.302-0.82-0.452-1.38-0.452c-1.05,0-1.9,0.464-2.55,1.391
	c-0.56,0.802-0.84,1.76-0.84,2.875c0,0.875,0.22,1.547,0.65,2.015c0.43,0.47,1,0.704,1.69,0.704c0.6,0,1.14-0.196,1.61-0.586
	C87.28,182.3,87.63,181.75,87.85,181.042L87.85,181.042z M89.69,184.072l1.3-6.218h0.93l-0.26,1.265
	c0.32-0.479,0.64-0.833,0.94-1.062c0.31-0.229,0.62-0.344,0.93-0.344c0.22,0,0.48,0.072,0.78,0.219l-0.43,0.984
	c-0.18-0.125-0.38-0.188-0.6-0.188c-0.37,0-0.75,0.205-1.15,0.617c-0.39,0.411-0.69,1.153-0.91,2.226l-0.53,2.5H89.69L89.69,184.072
	z M98.25,181.964l1.03,0.094c-0.15,0.51-0.49,0.997-1.02,1.461c-0.54,0.463-1.17,0.695-1.9,0.695c-0.47,0-0.9-0.107-1.28-0.32
	c-0.39-0.214-0.68-0.524-0.88-0.93c-0.2-0.406-0.3-0.87-0.3-1.392c0-0.677,0.16-1.336,0.47-1.976c0.32-0.642,0.72-1.115,1.22-1.422
	c0.5-0.308,1.04-0.461,1.63-0.461c0.74,0,1.33,0.229,1.77,0.688c0.44,0.458,0.66,1.088,0.66,1.891c0,0.302-0.02,0.614-0.07,0.938H95
	c-0.02,0.114-0.03,0.224-0.03,0.328c0,0.583,0.13,1.026,0.4,1.328s0.6,0.453,0.99,0.453c0.36,0,0.72-0.117,1.07-0.353
	C97.78,182.753,98.05,182.411,98.25,181.964L98.25,181.964z M95.17,180.417h3.48c0.01-0.114,0.02-0.193,0.02-0.234
	c0-0.531-0.13-0.938-0.4-1.219c-0.26-0.281-0.61-0.422-1.021-0.422c-0.459,0-0.879,0.155-1.25,0.469
	C95.62,179.322,95.35,179.792,95.17,180.417L95.17,180.417z M104.55,183.292c-0.37,0.322-0.72,0.557-1.06,0.702
	c-0.34,0.146-0.7,0.22-1.1,0.22c-0.57,0-1.03-0.169-1.38-0.509c-0.35-0.338-0.53-0.772-0.53-1.304c0-0.344,0.08-0.648,0.24-0.915
	c0.15-0.265,0.36-0.479,0.62-0.64c0.26-0.162,0.59-0.279,0.97-0.353c0.24-0.052,0.69-0.091,1.36-0.116
	c0.67-0.026,1.14-0.097,1.42-0.211c0.09-0.292,0.13-0.531,0.13-0.72c0-0.25-0.09-0.441-0.27-0.578
	c-0.25-0.197-0.61-0.297-1.08-0.297c-0.44,0-0.81,0.1-1.09,0.297c-0.28,0.198-0.49,0.479-0.62,0.845l-1.07-0.095
	c0.22-0.613,0.57-1.086,1.04-1.414c0.48-0.327,1.07-0.491,1.79-0.491c0.77,0,1.38,0.182,1.83,0.547
	c0.34,0.271,0.52,0.625,0.52,1.062c0,0.334-0.05,0.72-0.15,1.157l-0.34,1.547c-0.11,0.489-0.17,0.891-0.17,1.203
	c0,0.198,0.05,0.479,0.14,0.843h-1.08C104.61,183.864,104.57,183.604,104.55,183.292L104.55,183.292z M104.94,180.917
	c-0.15,0.063-0.31,0.109-0.48,0.141s-0.46,0.062-0.85,0.094c-0.62,0.052-1.05,0.122-1.31,0.21c-0.25,0.089-0.44,0.225-0.57,0.407
	c-0.13,0.182-0.2,0.383-0.2,0.601c0,0.303,0.11,0.548,0.31,0.735c0.21,0.188,0.5,0.281,0.88,0.281c0.35,0,0.69-0.091,1.01-0.274
	c0.33-0.182,0.58-0.439,0.77-0.772C104.69,182.006,104.83,181.531,104.94,180.917L104.94,180.917z M109.5,183.214l-0.17,0.858
	c-0.25,0.073-0.5,0.11-0.73,0.11c-0.43,0-0.77-0.104-1.021-0.313c-0.189-0.155-0.28-0.369-0.28-0.64c0-0.136,0.05-0.448,0.15-0.938
	l0.75-3.625h-0.82l0.17-0.813h0.83l0.32-1.532l1.21-0.733l-0.47,2.266h1.05l-0.18,0.813h-1.04l-0.72,3.438
	c-0.1,0.438-0.14,0.703-0.14,0.797c0,0.125,0.03,0.218,0.11,0.281c0.07,0.062,0.19,0.094,0.36,0.094
	C109.12,183.276,109.32,183.256,109.5,183.214L109.5,183.214z M114.93,181.964l1.03,0.094c-0.15,0.51-0.49,0.997-1.02,1.461
	c-0.54,0.463-1.17,0.695-1.9,0.695c-0.47,0-0.9-0.107-1.28-0.32c-0.39-0.214-0.68-0.524-0.88-0.93c-0.2-0.406-0.29-0.87-0.29-1.392
	c0-0.677,0.15-1.336,0.46-1.976c0.32-0.642,0.72-1.115,1.22-1.422c0.5-0.308,1.04-0.461,1.63-0.461c0.74,0,1.33,0.229,1.77,0.688
	c0.44,0.458,0.67,1.088,0.67,1.891c0,0.302-0.03,0.614-0.08,0.938h-4.58c-0.02,0.114-0.03,0.224-0.03,0.328
	c0,0.583,0.13,1.026,0.4,1.328c0.28,0.302,0.6,0.453,0.99,0.453c0.36,0,0.72-0.117,1.07-0.353
	C114.46,182.753,114.73,182.411,114.93,181.964L114.93,181.964z M111.85,180.417h3.49c0.01-0.114,0.01-0.193,0.01-0.234
	c0-0.531-0.13-0.938-0.4-1.219c-0.26-0.281-0.6-0.422-1.021-0.422c-0.459,0-0.88,0.155-1.25,0.469
	C112.3,179.322,112.03,179.792,111.85,180.417L111.85,180.417z"/>
<polyline fill="none" stroke="#000000" stroke-miterlimit="1.45" points="149.219,219.338 149.639,219.105 156.581,215.131 
	163.11,211.132 169.11,207.102 174.491,203.035 179.139,198.927 182.95,194.77 185.831,190.558 187.67,186.285 188.36,181.945 
	187.84,177.535 186.17,173.058 183.45,168.52 179.799,163.927 175.319,159.285 170.11,154.602 164.27,149.882 157.92,145.131 
	155.469,143.406 155.389,143.351 "/>
<polygon points="149.649,139.344 158.25,139.251 161.129,147.357 152.53,147.45 "/>
<path d="M200.2,177.06l1.141,0.172c-0.371,0.99-0.891,1.737-1.58,2.242s-1.461,0.758-2.311,0.758c-1.039,0-1.869-0.318-2.48-0.953
	c-0.609-0.636-0.91-1.547-0.91-2.734c0-1.541,0.461-2.822,1.391-3.844c0.83-0.896,1.859-1.344,3.09-1.344
	c0.91,0,1.641,0.245,2.211,0.734c0.559,0.489,0.889,1.146,0.98,1.969l-1.082,0.094c-0.1-0.625-0.328-1.089-0.689-1.391
	c-0.35-0.302-0.811-0.453-1.369-0.453c-1.051,0-1.9,0.464-2.551,1.391c-0.559,0.803-0.84,1.761-0.84,2.875
	c0,0.875,0.211,1.548,0.65,2.016c0.43,0.469,0.99,0.703,1.689,0.703c0.6,0,1.131-0.195,1.609-0.585
	C199.629,178.317,199.981,177.768,200.2,177.06L200.2,177.06z M202.04,180.091l1.779-8.594h1.061l-0.689,3.297
	c0.4-0.375,0.77-0.646,1.1-0.813c0.34-0.167,0.691-0.25,1.061-0.25c0.51,0,0.91,0.135,1.189,0.406c0.291,0.271,0.43,0.63,0.43,1.078
	c0,0.219-0.059,0.62-0.18,1.203l-0.77,3.672h-1.061l0.791-3.766c0.119-0.552,0.18-0.896,0.18-1.031c0-0.208-0.07-0.375-0.211-0.5
	c-0.139-0.125-0.35-0.188-0.619-0.188c-0.391,0-0.75,0.099-1.1,0.297c-0.34,0.198-0.611,0.472-0.811,0.82
	c-0.201,0.349-0.381,0.914-0.541,1.695l-0.568,2.672H202.04L202.04,180.091z M210.209,172.7l0.25-1.203h1.061l-0.26,1.203H210.209
	L210.209,172.7z M208.661,180.091l1.299-6.218h1.061l-1.289,6.218H208.661L208.661,180.091z M211.28,180.091l1.801-8.594h1.059
	l-1.799,8.594H211.28L211.28,180.091z M218.231,179.185c-0.602,0.698-1.23,1.047-1.891,1.047c-0.59,0-1.09-0.219-1.48-0.656
	s-0.58-1.067-0.58-1.891c0-0.76,0.15-1.453,0.461-2.078c0.299-0.625,0.689-1.094,1.16-1.406c0.469-0.313,0.939-0.469,1.408-0.469
	c0.771,0,1.352,0.37,1.75,1.109l0.701-3.344h1.049l-1.779,8.594h-0.99L218.231,179.185L218.231,179.185z M215.321,177.481
	c0,0.438,0.049,0.781,0.139,1.031c0.08,0.25,0.23,0.459,0.43,0.625c0.211,0.167,0.451,0.25,0.75,0.25c0.471,0,0.91-0.25,1.311-0.75
	c0.52-0.666,0.781-1.489,0.781-2.469c0-0.489-0.131-0.872-0.391-1.148s-0.58-0.414-0.971-0.414c-0.25,0-0.48,0.055-0.699,0.164
	c-0.211,0.109-0.42,0.3-0.621,0.57c-0.199,0.271-0.379,0.618-0.52,1.039C215.389,176.802,215.321,177.169,215.321,177.481
	L215.321,177.481z M220.719,180.091l1.291-6.218h0.939l-0.27,1.265c0.33-0.479,0.639-0.833,0.949-1.063
	c0.311-0.229,0.621-0.344,0.93-0.344c0.221,0,0.48,0.073,0.781,0.219l-0.439,0.984c-0.17-0.125-0.371-0.187-0.592-0.187
	c-0.379,0-0.76,0.204-1.148,0.616c-0.391,0.411-0.691,1.153-0.91,2.227l-0.531,2.5H220.719L220.719,180.091z M229.27,177.981
	l1.039,0.094c-0.148,0.511-0.488,0.997-1.029,1.461c-0.529,0.464-1.17,0.695-1.9,0.695c-0.469,0-0.891-0.106-1.279-0.32
	c-0.381-0.214-0.67-0.523-0.871-0.93c-0.199-0.406-0.299-0.87-0.299-1.391c0-0.678,0.16-1.336,0.469-1.977
	c0.311-0.641,0.721-1.114,1.221-1.422c0.5-0.307,1.041-0.461,1.621-0.461c0.738,0,1.33,0.229,1.779,0.688
	c0.439,0.459,0.66,1.089,0.66,1.891c0,0.302-0.031,0.615-0.08,0.938h-4.58c-0.02,0.113-0.029,0.224-0.029,0.327
	c0,0.583,0.139,1.026,0.41,1.328c0.27,0.302,0.6,0.453,0.979,0.453c0.371,0,0.73-0.117,1.07-0.352
	C228.799,178.771,229.081,178.43,229.27,177.981L229.27,177.981z M226.2,176.435h3.48c0.01-0.114,0.02-0.193,0.02-0.234
	c0-0.531-0.141-0.938-0.4-1.219c-0.27-0.281-0.609-0.422-1.029-0.422c-0.451,0-0.869,0.156-1.25,0.469
	C226.651,175.341,226.37,175.81,226.2,176.435L226.2,176.435z M231.389,180.091l1.291-6.218h0.959l-0.219,1.077
	c0.41-0.427,0.799-0.736,1.17-0.93c0.359-0.193,0.729-0.289,1.109-0.289c0.5,0,0.891,0.135,1.18,0.406
	c0.281,0.271,0.43,0.636,0.43,1.094c0,0.229-0.049,0.594-0.139,1.094l-0.801,3.766h-1.061l0.83-3.938
	c0.08-0.386,0.121-0.672,0.121-0.859c0-0.208-0.07-0.375-0.211-0.5c-0.139-0.125-0.35-0.188-0.619-0.188
	c-0.541,0-1.02,0.195-1.449,0.586c-0.432,0.392-0.742,1.061-0.941,2.008l-0.609,2.891H231.389L231.389,180.091z"/>
<path d="M196.2,191.761l1.141,0.172c-0.371,0.99-0.891,1.737-1.58,2.242c-0.689,0.506-1.461,0.758-2.311,0.758
	c-1.051,0-1.869-0.318-2.48-0.953c-0.609-0.635-0.91-1.547-0.91-2.734c0-1.542,0.461-2.822,1.391-3.844
	c0.83-0.896,1.859-1.344,3.09-1.344c0.91,0,1.641,0.245,2.201,0.735c0.568,0.488,0.889,1.145,0.99,1.968l-1.08,0.094
	c-0.102-0.625-0.332-1.089-0.691-1.391c-0.35-0.303-0.809-0.453-1.369-0.453c-1.061,0-1.9,0.464-2.551,1.391
	c-0.561,0.802-0.84,1.76-0.84,2.875c0,0.875,0.211,1.547,0.641,2.017c0.439,0.468,1,0.702,1.699,0.702
	c0.59,0,1.131-0.195,1.611-0.586C195.629,193.019,195.979,192.47,196.2,191.761L196.2,191.761z M198.219,192.433
	c0-1.219,0.361-2.224,1.061-3.015c0.6-0.657,1.369-0.985,2.33-0.985c0.75,0,1.359,0.235,1.811,0.703
	c0.459,0.469,0.689,1.099,0.689,1.891c0,0.719-0.141,1.385-0.439,2c-0.291,0.614-0.701,1.086-1.23,1.414s-1.09,0.492-1.689,0.492
	c-0.48,0-0.91-0.104-1.311-0.313c-0.4-0.209-0.701-0.503-0.91-0.883C198.331,193.357,198.219,192.923,198.219,192.433
	L198.219,192.433z M199.27,192.323c0,0.583,0.141,1.026,0.42,1.328s0.641,0.453,1.08,0.453c0.23,0,0.449-0.044,0.68-0.133
	c0.221-0.088,0.43-0.227,0.621-0.414c0.18-0.188,0.34-0.401,0.479-0.64c0.141-0.24,0.24-0.5,0.33-0.782
	c0.121-0.385,0.189-0.755,0.189-1.109c0-0.563-0.148-1-0.43-1.313c-0.289-0.313-0.648-0.469-1.07-0.469
	c-0.34,0-0.639,0.08-0.908,0.242c-0.271,0.161-0.521,0.394-0.74,0.695c-0.23,0.302-0.391,0.656-0.5,1.063
	C199.319,191.651,199.27,192.011,199.27,192.323L199.27,192.323z M204.61,194.793l1.801-8.595h1.059l-1.789,8.595H204.61
	L204.61,194.793z M207.28,194.793l1.801-8.595h1.059l-1.799,8.595H207.28L207.28,194.793z M214.6,192.683l1.029,0.094
	c-0.139,0.51-0.479,0.997-1.02,1.461c-0.539,0.463-1.17,0.695-1.9,0.695c-0.471,0-0.889-0.107-1.279-0.32
	c-0.381-0.214-0.68-0.523-0.871-0.93c-0.199-0.406-0.299-0.87-0.299-1.39c0-0.679,0.15-1.336,0.471-1.978
	c0.309-0.641,0.719-1.115,1.219-1.422s1.039-0.461,1.619-0.461c0.74,0,1.33,0.229,1.771,0.688c0.449,0.458,0.67,1.089,0.67,1.891
	c0,0.302-0.029,0.615-0.08,0.938h-4.58c-0.02,0.114-0.031,0.225-0.031,0.328c0,0.583,0.141,1.026,0.41,1.328
	c0.271,0.302,0.602,0.453,0.98,0.453c0.371,0,0.721-0.117,1.07-0.351C214.129,193.472,214.401,193.131,214.6,192.683L214.6,192.683z
	 M211.52,191.136h3.49c0.01-0.114,0.01-0.192,0.01-0.234c0-0.531-0.131-0.938-0.391-1.219c-0.27-0.281-0.609-0.422-1.029-0.422
	c-0.461,0-0.869,0.157-1.25,0.469C211.981,190.043,211.7,190.511,211.52,191.136L211.52,191.136z M221,192.526l1.059,0.109
	c-0.26,0.782-0.639,1.359-1.129,1.734s-1.041,0.563-1.67,0.563c-0.68,0-1.23-0.219-1.65-0.656s-0.631-1.047-0.631-1.828
	c0-0.688,0.131-1.359,0.41-2.016c0.271-0.656,0.65-1.153,1.15-1.492s1.07-0.508,1.721-0.508c0.67,0,1.199,0.188,1.59,0.563
	s0.58,0.875,0.58,1.5l-1.029,0.063c-0.012-0.396-0.131-0.703-0.352-0.922c-0.219-0.218-0.52-0.328-0.879-0.328
	c-0.432,0-0.801,0.133-1.111,0.399c-0.309,0.265-0.559,0.674-0.738,1.226c-0.17,0.552-0.262,1.078-0.262,1.578
	c0,0.532,0.111,0.93,0.352,1.196c0.229,0.265,0.52,0.397,0.869,0.397c0.34,0,0.67-0.13,0.98-0.391S220.821,193.058,221,192.526
	L221,192.526z M225.18,193.933l-0.17,0.86c-0.25,0.071-0.49,0.108-0.73,0.108c-0.43,0-0.77-0.104-1.02-0.313
	c-0.189-0.156-0.281-0.369-0.281-0.641c0-0.136,0.051-0.447,0.16-0.938l0.75-3.625h-0.83l0.172-0.813h0.828l0.33-1.53l1.201-0.735
	l-0.471,2.266h1.051l-0.17,0.813h-1.051l-0.719,3.438c-0.092,0.438-0.141,0.703-0.141,0.797c0,0.125,0.039,0.219,0.109,0.281
	s0.189,0.094,0.359,0.094C224.799,193.995,225.01,193.975,225.18,193.933L225.18,193.933z M227.549,187.401l0.25-1.203h1.061
	l-0.27,1.203H227.549L227.549,187.401z M226,194.793l1.299-6.22h1.061l-1.301,6.22H226L226,194.793z M228.901,192.433
	c0-1.219,0.359-2.224,1.059-3.015c0.6-0.657,1.371-0.985,2.33-0.985c0.75,0,1.359,0.235,1.811,0.703
	c0.459,0.469,0.689,1.099,0.689,1.891c0,0.719-0.139,1.385-0.439,2c-0.291,0.614-0.701,1.086-1.23,1.414s-1.09,0.492-1.689,0.492
	c-0.48,0-0.91-0.104-1.311-0.313c-0.4-0.209-0.699-0.503-0.91-0.883C229.01,193.357,228.901,192.923,228.901,192.433
	L228.901,192.433z M229.95,192.323c0,0.583,0.141,1.026,0.42,1.328s0.641,0.453,1.08,0.453c0.23,0,0.451-0.044,0.68-0.133
	c0.221-0.088,0.43-0.227,0.621-0.414c0.18-0.188,0.34-0.401,0.48-0.64c0.129-0.24,0.238-0.5,0.328-0.782
	c0.121-0.385,0.191-0.755,0.191-1.109c0-0.563-0.15-1-0.43-1.313c-0.291-0.313-0.65-0.469-1.07-0.469c-0.34,0-0.641,0.08-0.91,0.242
	c-0.27,0.161-0.521,0.394-0.74,0.695c-0.23,0.302-0.391,0.656-0.5,1.063C230,191.651,229.95,192.011,229.95,192.323L229.95,192.323z
	 M235.389,194.793l1.291-6.22h0.959l-0.219,1.078c0.42-0.427,0.811-0.737,1.17-0.93c0.369-0.192,0.74-0.289,1.109-0.289
	c0.5,0,0.891,0.136,1.18,0.406c0.291,0.271,0.43,0.636,0.43,1.094c0,0.229-0.049,0.594-0.139,1.094l-0.801,3.767h-1.061l0.83-3.938
	c0.08-0.385,0.121-0.672,0.121-0.859c0-0.209-0.07-0.375-0.211-0.5c-0.139-0.125-0.34-0.188-0.619-0.188
	c-0.541,0-1.02,0.195-1.451,0.586c-0.43,0.391-0.738,1.06-0.939,2.008l-0.609,2.892H235.389L235.389,194.793z"/>
<polyline fill="none" stroke="#000000" stroke-miterlimit="1.45" points="150.02,114.372 151.76,113.372 158.731,109.167 
	165.28,104.954 171.299,100.727 176.68,96.484 181.319,92.224 185.12,87.941 187.959,83.637 189.739,79.305 190.36,74.945 
	189.739,70.555 187.959,66.137 185.12,61.691 181.319,57.223 176.68,52.734 171.299,48.227 165.28,43.704 158.731,39.168 
	157.309,38.243 157.231,38.19 "/>
<polygon points="151.36,34.371 159.959,34 163.09,42.009 154.5,42.38 "/>
<path d="M202.29,70.607l1.141,0.172c-0.371,0.99-0.891,1.737-1.58,2.242c-0.689,0.505-1.461,0.758-2.311,0.758
	c-1.039,0-1.869-0.317-2.48-0.953c-0.609-0.635-0.91-1.547-0.91-2.734c0-1.542,0.461-2.823,1.391-3.844
	c0.83-0.896,1.861-1.344,3.09-1.344c0.91,0,1.641,0.245,2.201,0.734c0.57,0.49,0.9,1.146,0.988,1.969l-1.078,0.094
	c-0.102-0.625-0.33-1.088-0.691-1.391c-0.35-0.302-0.809-0.453-1.369-0.453c-1.051,0-1.9,0.464-2.551,1.391
	c-0.559,0.802-0.84,1.761-0.84,2.875c0,0.875,0.211,1.547,0.65,2.016c0.43,0.469,0.99,0.703,1.689,0.703
	c0.602,0,1.131-0.195,1.611-0.586C201.719,71.865,202.071,71.316,202.29,70.607L202.29,70.607z M204.129,73.639l1.781-8.594h1.059
	l-0.689,3.297c0.4-0.375,0.77-0.646,1.1-0.813c0.34-0.167,0.691-0.25,1.061-0.25c0.51,0,0.91,0.136,1.189,0.406
	c0.291,0.271,0.43,0.63,0.43,1.078c0,0.219-0.059,0.62-0.18,1.203l-0.77,3.672h-1.061l0.791-3.766
	c0.119-0.552,0.18-0.896,0.18-1.031c0-0.208-0.07-0.375-0.211-0.5c-0.148-0.125-0.35-0.188-0.619-0.188
	c-0.391,0-0.75,0.099-1.1,0.297c-0.34,0.198-0.611,0.472-0.811,0.82c-0.199,0.349-0.381,0.914-0.539,1.695l-0.57,2.672H204.129
	L204.129,73.639z M212.299,66.248l0.25-1.203h1.061l-0.26,1.203H212.299L212.299,66.248z M210.75,73.639l1.299-6.219h1.061
	l-1.289,6.219H210.75L210.75,73.639z M213.37,73.639l1.801-8.594h1.059l-1.799,8.594H213.37L213.37,73.639z M220.319,72.732
	c-0.6,0.698-1.238,1.047-1.889,1.047c-0.6,0-1.09-0.219-1.48-0.656s-0.58-1.067-0.58-1.891c0-0.76,0.15-1.453,0.461-2.078
	c0.299-0.625,0.689-1.094,1.16-1.406c0.469-0.313,0.939-0.469,1.408-0.469c0.771,0,1.352,0.37,1.752,1.109l0.699-3.344h1.051
	l-1.781,8.594h-0.99L220.319,72.732L220.319,72.732z M217.411,71.029c0,0.438,0.049,0.781,0.139,1.031
	c0.08,0.25,0.23,0.458,0.432,0.625c0.209,0.167,0.449,0.25,0.75,0.25c0.469,0,0.908-0.25,1.309-0.75
	c0.52-0.667,0.781-1.489,0.781-2.469c0-0.489-0.131-0.872-0.391-1.148c-0.26-0.276-0.58-0.414-0.971-0.414
	c-0.25,0-0.479,0.055-0.699,0.164c-0.211,0.109-0.42,0.3-0.621,0.57c-0.199,0.271-0.379,0.617-0.52,1.039
	C217.481,70.35,217.411,70.717,217.411,71.029L217.411,71.029z M222.809,73.639l1.291-6.219h0.939l-0.27,1.266
	c0.33-0.479,0.641-0.833,0.949-1.063c0.311-0.229,0.621-0.344,0.932-0.344c0.219,0,0.479,0.073,0.779,0.219l-0.439,0.984
	c-0.17-0.125-0.371-0.188-0.59-0.188c-0.381,0-0.762,0.206-1.15,0.617c-0.391,0.412-0.691,1.154-0.91,2.227l-0.531,2.5H222.809
	L222.809,73.639z M231.36,71.529l1.041,0.094c-0.15,0.511-0.49,0.998-1.031,1.461c-0.529,0.464-1.17,0.695-1.9,0.695
	c-0.469,0-0.889-0.106-1.279-0.32c-0.381-0.213-0.67-0.523-0.869-0.93c-0.201-0.406-0.301-0.87-0.301-1.391
	c0-0.677,0.16-1.336,0.471-1.977c0.309-0.641,0.719-1.114,1.219-1.422c0.5-0.307,1.041-0.461,1.621-0.461
	c0.74,0,1.33,0.229,1.779,0.688c0.439,0.458,0.66,1.089,0.66,1.891c0,0.302-0.029,0.615-0.08,0.938h-4.58
	c-0.02,0.115-0.029,0.224-0.029,0.328c0,0.583,0.139,1.026,0.41,1.328c0.27,0.302,0.6,0.453,0.979,0.453
	c0.371,0,0.721-0.117,1.07-0.352S231.17,71.978,231.36,71.529L231.36,71.529z M228.29,69.982h3.48c0.01-0.114,0.02-0.192,0.02-0.234
	c0-0.531-0.139-0.938-0.4-1.219c-0.27-0.281-0.609-0.422-1.029-0.422c-0.449,0-0.871,0.156-1.25,0.469
	C228.739,68.889,228.459,69.357,228.29,69.982L228.29,69.982z M233.479,73.639l1.291-6.219h0.959l-0.219,1.078
	c0.41-0.427,0.799-0.737,1.17-0.93c0.359-0.192,0.73-0.289,1.109-0.289c0.5,0,0.891,0.136,1.18,0.406
	c0.281,0.271,0.432,0.636,0.432,1.094c0,0.229-0.051,0.594-0.141,1.094l-0.801,3.766h-1.061l0.832-3.938
	c0.078-0.385,0.119-0.672,0.119-0.859c0-0.208-0.07-0.375-0.211-0.5c-0.139-0.125-0.35-0.188-0.619-0.188
	c-0.539,0-1.02,0.195-1.451,0.586c-0.43,0.391-0.738,1.06-0.939,2.008l-0.609,2.891H233.479L233.479,73.639z"/>
<path d="M198.29,85.309l1.141,0.172c-0.371,0.99-0.891,1.737-1.58,2.242c-0.689,0.506-1.461,0.758-2.311,0.758
	c-1.049,0-1.869-0.318-2.48-0.953c-0.609-0.635-0.908-1.547-0.908-2.734c0-1.542,0.459-2.823,1.389-3.844
	c0.83-0.896,1.859-1.344,3.09-1.344c0.91,0,1.641,0.245,2.201,0.735c0.57,0.489,0.889,1.145,0.99,1.968l-1.082,0.094
	c-0.109-0.625-0.328-1.089-0.689-1.391c-0.35-0.302-0.811-0.453-1.369-0.453c-1.061,0-1.9,0.464-2.551,1.391
	c-0.559,0.802-0.84,1.76-0.84,2.875c0,0.875,0.211,1.547,0.641,2.016c0.439,0.468,1,0.703,1.699,0.703
	c0.59,0,1.131-0.196,1.609-0.586C197.719,86.566,198.071,86.018,198.29,85.309L198.29,85.309z M200.309,85.98
	c0-1.219,0.361-2.224,1.061-3.015c0.6-0.657,1.371-0.985,2.33-0.985c0.75,0,1.359,0.235,1.811,0.703
	c0.459,0.469,0.689,1.099,0.689,1.891c0,0.719-0.141,1.385-0.439,2c-0.291,0.614-0.701,1.086-1.23,1.414
	c-0.529,0.328-1.09,0.492-1.689,0.492c-0.48,0-0.91-0.104-1.311-0.312c-0.4-0.209-0.699-0.503-0.91-0.883
	C200.42,86.906,200.309,86.471,200.309,85.98L200.309,85.98z M201.36,85.872c0,0.583,0.141,1.026,0.42,1.328
	c0.279,0.302,0.641,0.453,1.08,0.453c0.23,0,0.449-0.044,0.68-0.133c0.221-0.088,0.43-0.226,0.621-0.414
	c0.18-0.187,0.34-0.401,0.479-0.64c0.131-0.24,0.24-0.5,0.33-0.782c0.121-0.385,0.191-0.755,0.191-1.109c0-0.563-0.15-1-0.43-1.313
	c-0.291-0.312-0.65-0.468-1.07-0.468c-0.34,0-0.641,0.08-0.91,0.242c-0.27,0.161-0.52,0.393-0.74,0.695
	c-0.23,0.302-0.391,0.656-0.5,1.063C201.411,85.2,201.36,85.559,201.36,85.872L201.36,85.872z M206.7,88.341l1.801-8.595h1.059
	l-1.789,8.595H206.7L206.7,88.341z M209.37,88.341l1.801-8.595h1.061l-1.801,8.595H209.37L209.37,88.341z M216.69,86.23l1.029,0.094
	c-0.139,0.51-0.479,0.997-1.02,1.461c-0.539,0.463-1.17,0.695-1.9,0.695c-0.469,0-0.889-0.107-1.279-0.32
	c-0.391-0.214-0.68-0.524-0.871-0.93c-0.199-0.406-0.299-0.87-0.299-1.39c0-0.678,0.15-1.336,0.469-1.977
	c0.311-0.641,0.721-1.115,1.221-1.422c0.5-0.307,1.041-0.461,1.621-0.461c0.738,0,1.33,0.229,1.77,0.688
	c0.449,0.458,0.67,1.088,0.67,1.89c0,0.302-0.031,0.615-0.08,0.938h-4.58c-0.02,0.114-0.029,0.224-0.029,0.328
	c0,0.583,0.139,1.026,0.41,1.328c0.27,0.302,0.6,0.453,0.979,0.453c0.371,0,0.721-0.117,1.07-0.351
	C216.219,87.02,216.491,86.679,216.69,86.23L216.69,86.23z M213.61,84.684h3.49c0.01-0.114,0.01-0.192,0.01-0.234
	c0-0.531-0.131-0.938-0.391-1.219c-0.27-0.281-0.609-0.422-1.029-0.422c-0.459,0-0.869,0.157-1.25,0.469
	C214.071,83.59,213.79,84.059,213.61,84.684L213.61,84.684z M223.081,86.075l1.07,0.109c-0.262,0.782-0.641,1.36-1.131,1.735
	s-1.039,0.562-1.67,0.562c-0.68,0-1.23-0.219-1.65-0.656c-0.42-0.438-0.629-1.047-0.629-1.828c0-0.688,0.129-1.36,0.41-2.016
	c0.27-0.656,0.648-1.154,1.148-1.492c0.5-0.339,1.07-0.508,1.721-0.508c0.67,0,1.199,0.188,1.59,0.563s0.58,0.875,0.58,1.5
	l-1.031,0.062c-0.008-0.396-0.129-0.703-0.35-0.922c-0.219-0.218-0.52-0.328-0.879-0.328c-0.43,0-0.801,0.133-1.109,0.399
	c-0.32,0.265-0.561,0.674-0.74,1.226c-0.17,0.552-0.262,1.078-0.262,1.578c0,0.532,0.111,0.93,0.352,1.196
	c0.229,0.265,0.52,0.398,0.869,0.398c0.34,0,0.67-0.13,0.98-0.391C222.661,87.001,222.911,86.605,223.081,86.075L223.081,86.075z
	 M227.27,87.48l-0.17,0.86c-0.25,0.072-0.49,0.109-0.73,0.109c-0.43,0-0.77-0.104-1.02-0.313c-0.189-0.156-0.279-0.369-0.279-0.64
	c0-0.136,0.049-0.448,0.158-0.938l0.75-3.625h-0.828l0.17-0.812h0.828l0.332-1.531l1.199-0.735l-0.471,2.266h1.051l-0.18,0.812
	h-1.041l-0.721,3.438c-0.088,0.437-0.139,0.703-0.139,0.797c0,0.125,0.039,0.218,0.109,0.281c0.07,0.062,0.191,0.094,0.361,0.094
	C226.889,87.543,227.1,87.522,227.27,87.48L227.27,87.48z M229.639,80.95l0.25-1.204h1.061l-0.27,1.204H229.639L229.639,80.95z
	 M228.09,88.341l1.299-6.219h1.061l-1.301,6.219H228.09L228.09,88.341z M230.989,85.98c0-1.219,0.361-2.224,1.061-3.015
	c0.602-0.657,1.371-0.985,2.33-0.985c0.75,0,1.361,0.235,1.811,0.703c0.459,0.469,0.689,1.099,0.689,1.891
	c0,0.719-0.139,1.385-0.439,2c-0.289,0.614-0.699,1.086-1.23,1.414c-0.529,0.328-1.09,0.492-1.689,0.492
	c-0.48,0-0.91-0.104-1.311-0.312c-0.4-0.209-0.699-0.503-0.91-0.883C231.1,86.906,230.989,86.471,230.989,85.98L230.989,85.98z
	 M232.04,85.872c0,0.583,0.141,1.026,0.42,1.328c0.281,0.302,0.641,0.453,1.08,0.453c0.23,0,0.449-0.044,0.68-0.133
	c0.221-0.088,0.432-0.226,0.611-0.414c0.189-0.187,0.35-0.401,0.488-0.64c0.131-0.24,0.24-0.5,0.332-0.782
	c0.119-0.385,0.18-0.755,0.18-1.109c0-0.563-0.141-1-0.42-1.313c-0.291-0.312-0.65-0.468-1.08-0.468c-0.33,0-0.631,0.08-0.9,0.242
	c-0.27,0.161-0.52,0.393-0.74,0.695c-0.23,0.302-0.391,0.656-0.5,1.063C232.09,85.2,232.04,85.559,232.04,85.872L232.04,85.872z
	 M237.481,88.341l1.289-6.219h0.961L239.51,83.2c0.42-0.427,0.811-0.737,1.17-0.93c0.369-0.193,0.73-0.289,1.109-0.289
	c0.5,0,0.891,0.136,1.18,0.406c0.291,0.271,0.43,0.636,0.43,1.094c0,0.229-0.049,0.594-0.139,1.094l-0.801,3.766h-1.059l0.83-3.938
	c0.078-0.385,0.119-0.672,0.119-0.859c0-0.209-0.07-0.375-0.211-0.5c-0.139-0.125-0.34-0.188-0.619-0.188
	c-0.541,0-1.02,0.195-1.449,0.586c-0.432,0.391-0.74,1.06-0.941,2.008l-0.609,2.891H237.481L237.481,88.341z"/>
<line fill="none" stroke="#000000" stroke-miterlimit="1.45" stroke-dasharray="6,2" x1="129.581" y1="34.416" x2="129.581" y2="99.378"/>
<polygon fill="#FFFFFF" points="129.581,114.378 135.581,98.378 123.58,98.378 "/>
<polygon fill="none" stroke="#000000" stroke-miterlimit="1.45" points="129.581,114.378 135.581,98.378 123.58,98.378 "/>
<path d="M90.3,76.109l1.13,0.297c-0.24,0.927-0.67,1.636-1.28,2.125c-0.62,0.49-1.37,0.734-2.27,0.734
	c-0.93,0-1.68-0.188-2.27-0.563c-0.58-0.375-1.02-0.919-1.32-1.633c-0.31-0.713-0.46-1.481-0.46-2.305
	c0-0.896,0.17-1.677,0.52-2.344c0.34-0.667,0.83-1.172,1.46-1.516s1.32-0.516,2.09-0.516c0.85,0,1.57,0.219,2.16,0.656
	c0.59,0.438,1,1.052,1.23,1.844l-1.13,0.266c-0.2-0.625-0.49-1.081-0.87-1.367c-0.38-0.286-0.85-0.43-1.43-0.43
	c-0.65,0-1.2,0.159-1.64,0.477c-0.451,0.318-0.76,0.742-0.94,1.273C85.1,73.641,85,74.193,85,74.766c0,0.729,0.11,1.365,0.33,1.906
	c0.21,0.542,0.54,0.948,0.99,1.219c0.45,0.271,0.93,0.406,1.47,0.406c0.63,0,1.17-0.182,1.61-0.547
	C89.85,77.386,90.15,76.839,90.3,76.109L90.3,76.109z M92.69,79.125v-6.219h0.95v0.938c0.24-0.438,0.46-0.727,0.66-0.867
	c0.21-0.141,0.43-0.211,0.68-0.211c0.36,0,0.72,0.109,1.08,0.328L95.7,74.078c-0.26-0.156-0.51-0.234-0.76-0.234
	c-0.24,0-0.45,0.07-0.64,0.211c-0.18,0.141-0.31,0.336-0.38,0.586c-0.12,0.375-0.19,0.781-0.19,1.219v3.266H92.69L92.69,79.125z
	 M100.95,77.125l1.09,0.125c-0.16,0.636-0.48,1.13-0.95,1.484c-0.47,0.354-1.06,0.531-1.78,0.531c-0.91,0-1.63-0.281-2.17-0.844
	c-0.53-0.563-0.8-1.349-0.8-2.359c0-1.042,0.27-1.852,0.81-2.43s1.24-0.867,2.1-0.867c0.83,0,1.51,0.281,2.03,0.844
	c0.53,0.563,0.79,1.359,0.79,2.391c0,0.063,0,0.156,0,0.281h-4.64c0.041,0.688,0.24,1.211,0.58,1.57s0.78,0.539,1.3,0.539
	c0.38,0,0.709-0.102,0.99-0.305S100.79,77.563,100.95,77.125L100.95,77.125z M97.5,75.422h3.46c-0.04-0.531-0.17-0.927-0.39-1.188
	c-0.34-0.406-0.78-0.609-1.31-0.609c-0.49,0-0.9,0.162-1.23,0.484C97.71,74.433,97.53,74.87,97.5,75.422L97.5,75.422z
	 M107.43,78.359c-0.39,0.333-0.771,0.568-1.13,0.703c-0.36,0.136-0.75,0.203-1.16,0.203c-0.69,0-1.22-0.167-1.581-0.5
	c-0.37-0.333-0.55-0.76-0.55-1.281c0-0.302,0.07-0.581,0.21-0.836c0.13-0.255,0.31-0.458,0.54-0.609
	c0.23-0.151,0.49-0.263,0.77-0.336c0.2-0.063,0.51-0.12,0.94-0.172c0.84-0.094,1.46-0.213,1.87-0.359c0-0.146,0-0.234,0-0.266
	c0-0.438-0.1-0.745-0.3-0.922c-0.271-0.229-0.67-0.344-1.2-0.344c-0.49,0-0.85,0.086-1.09,0.258
	c-0.24,0.172-0.419,0.477-0.529,0.914l-1.04-0.141c0.1-0.438,0.25-0.792,0.47-1.063c0.22-0.271,0.53-0.479,0.94-0.625
	c0.41-0.146,0.88-0.219,1.41-0.219c0.53,0,0.96,0.063,1.29,0.188c0.34,0.125,0.58,0.281,0.74,0.469
	c0.15,0.188,0.26,0.427,0.33,0.719c0.03,0.177,0.04,0.5,0.04,0.969v1.406c0,0.979,0.03,1.599,0.07,1.859
	c0.05,0.261,0.14,0.511,0.28,0.75h-1.11C107.53,78.906,107.47,78.651,107.43,78.359L107.43,78.359z M107.34,76
	c-0.38,0.156-0.96,0.292-1.72,0.406c-0.44,0.063-0.74,0.133-0.92,0.211c-0.181,0.078-0.32,0.19-0.41,0.336
	c-0.1,0.146-0.15,0.313-0.15,0.5c0,0.281,0.1,0.516,0.32,0.703c0.21,0.188,0.52,0.281,0.93,0.281c0.4,0,0.77-0.088,1.08-0.266
	c0.32-0.177,0.55-0.422,0.7-0.734c0.11-0.239,0.17-0.588,0.17-1.047V76L107.34,76z M112.34,78.188l0.16,0.922
	c-0.3,0.063-0.57,0.094-0.8,0.094c-0.38,0-0.68-0.06-0.89-0.18c-0.21-0.12-0.36-0.278-0.44-0.477c-0.09-0.198-0.14-0.614-0.14-1.25
	v-3.578h-0.76v-0.813h0.76v-1.547l1.05-0.625v2.172h1.06v0.813h-1.06v3.641c0,0.302,0.02,0.495,0.05,0.578
	c0.041,0.083,0.101,0.151,0.18,0.203c0.09,0.052,0.21,0.078,0.36,0.078C112,78.219,112.16,78.208,112.34,78.188L112.34,78.188z
	 M117.63,77.125l1.09,0.125c-0.161,0.636-0.48,1.13-0.95,1.484c-0.47,0.354-1.06,0.531-1.78,0.531c-0.91,0-1.63-0.281-2.16-0.844
	c-0.54-0.563-0.81-1.349-0.81-2.359c0-1.042,0.27-1.852,0.81-2.43s1.24-0.867,2.1-0.867c0.83,0,1.51,0.281,2.04,0.844
	c0.52,0.563,0.78,1.359,0.78,2.391c0,0.063,0,0.156,0,0.281h-4.64c0.05,0.688,0.24,1.211,0.58,1.57c0.35,0.359,0.78,0.539,1.3,0.539
	c0.38,0,0.72-0.102,0.99-0.305C117.26,77.883,117.47,77.563,117.63,77.125L117.63,77.125z M114.18,75.422h3.47
	c-0.05-0.531-0.18-0.927-0.4-1.188c-0.34-0.406-0.78-0.609-1.31-0.609c-0.49,0-0.9,0.162-1.22,0.484
	C114.39,74.433,114.21,74.87,114.18,75.422L114.18,75.422z"/>
</svg>
