<?xml version="1.0" encoding="utf-8"?>
<!-- Generator: Adobe Illustrator 16.0.0, SVG Export Plug-In . SVG Version: 6.00 Build 0)  -->
<!DOCTYPE svg PUBLIC "-//W3C//DTD SVG 1.1//EN" "http://www.w3.org/Graphics/SVG/1.1/DTD/svg11.dtd">
<svg version="1.1" id="Layer_1" xmlns="http://www.w3.org/2000/svg" xmlns:xlink="http://www.w3.org/1999/xlink" x="0px" y="0px"
	 width="432px" height="252px" viewBox="0 0 432 252" enable-background="new 0 0 432 252" xml:space="preserve">
<polygon fill="#FFCC99" points="257.36,114.945 353.36,114.945 353.36,137.945 257.36,137.945 257.36,114.945 "/>
<polygon fill="#FFFFDA" points="256.36,113.945 257.36,113.945 257.36,138.945 256.36,138.945 256.36,113.945 "/>
<polygon fill="#FFFFDA" points="257.36,113.945 353.36,113.945 353.36,114.945 257.36,114.945 257.36,113.945 "/>
<polygon fill="#B28E6B" points="257.36,137.945 354.36,137.945 354.36,138.945 257.36,138.945 257.36,137.945 "/>
<polygon fill="#B28E6B" points="353.36,113.945 354.36,113.945 354.36,137.945 353.36,137.945 353.36,113.945 "/>
<path d="M263.11,123.143h3.43c0.781,0,1.361,0.062,1.77,0.187c0.551,0.157,1.021,0.441,1.41,0.852
	c0.381,0.411,0.68,0.914,0.881,1.508c0.199,0.594,0.301,1.328,0.301,2.203c0,0.76-0.092,1.422-0.281,1.984
	c-0.23,0.677-0.561,1.224-1,1.641c-0.32,0.312-0.76,0.557-1.311,0.734c-0.42,0.136-0.969,0.202-1.67,0.202h-3.529V123.143
	L263.11,123.143z M264.979,124.721v6.172h1.41c0.531,0,0.91-0.031,1.141-0.094c0.301-0.073,0.551-0.2,0.76-0.383
	c0.199-0.183,0.361-0.481,0.49-0.898c0.119-0.417,0.189-0.984,0.189-1.703s-0.07-1.271-0.189-1.656
	c-0.129-0.386-0.299-0.688-0.529-0.907c-0.23-0.218-0.52-0.364-0.881-0.437c-0.26-0.063-0.77-0.094-1.539-0.094H264.979
	L264.979,124.721z M272.42,132.454v-9.312h1.779v3.359c0.551-0.625,1.201-0.937,1.951-0.937c0.818,0,1.5,0.297,2.039,0.89
	c0.541,0.594,0.811,1.448,0.811,2.563c0,1.146-0.281,2.031-0.83,2.656c-0.541,0.625-1.211,0.938-1.99,0.938
	c-0.381,0-0.76-0.097-1.141-0.289c-0.369-0.192-0.699-0.477-0.969-0.852v0.983H272.42L272.42,132.454z M274.18,128.939
	c0,0.698,0.109,1.213,0.33,1.547c0.311,0.479,0.721,0.718,1.24,0.718c0.389,0,0.73-0.169,1-0.507c0.279-0.339,0.42-0.873,0.42-1.602
	c0-0.76-0.141-1.313-0.42-1.656c-0.27-0.344-0.631-0.516-1.07-0.516c-0.42,0-0.781,0.167-1.07,0.5
	C274.331,127.758,274.18,128.263,274.18,128.939L274.18,128.939z M286.401,129.033l1.818,0.578c-0.279,1.01-0.75,1.764-1.389,2.258
	c-0.65,0.494-1.471,0.742-2.471,0.742c-1.24,0-2.26-0.422-3.061-1.266c-0.789-0.844-1.189-2-1.189-3.469
	c0-1.542,0.4-2.742,1.199-3.602c0.801-0.86,1.861-1.289,3.16-1.289c1.131,0,2.061,0.338,2.781,1.015
	c0.42,0.396,0.73,0.969,0.949,1.719l-1.859,0.438c-0.109-0.48-0.34-0.86-0.689-1.141c-0.352-0.281-0.781-0.422-1.281-0.422
	c-0.68,0-1.24,0.247-1.68,0.742c-0.43,0.495-0.641,1.3-0.641,2.415c0,1.167,0.211,2,0.641,2.5c0.42,0.5,0.98,0.75,1.65,0.75
	c0.5,0,0.93-0.159,1.289-0.477C285.991,130.208,286.25,129.711,286.401,129.033L286.401,129.033z M289.401,128.986
	c0-0.594,0.148-1.167,0.439-1.719c0.289-0.552,0.709-0.974,1.24-1.266c0.539-0.291,1.139-0.437,1.809-0.437
	c1.012,0,1.842,0.331,2.5,0.992c0.65,0.661,0.98,1.497,0.98,2.508c0,1.021-0.33,1.867-0.99,2.539s-1.49,1.008-2.49,1.008
	c-0.619,0-1.209-0.141-1.77-0.422s-0.99-0.689-1.279-1.227C289.549,130.427,289.401,129.768,289.401,128.986L289.401,128.986z
	 M291.229,129.079c0,0.667,0.16,1.181,0.48,1.54c0.311,0.359,0.711,0.539,1.18,0.539c0.471,0,0.861-0.18,1.17-0.539
	c0.311-0.359,0.471-0.878,0.471-1.555c0-0.656-0.16-1.162-0.471-1.516c-0.309-0.354-0.699-0.531-1.17-0.531
	c-0.469,0-0.869,0.177-1.18,0.531C291.389,127.902,291.229,128.413,291.229,129.079L291.229,129.079z M303.889,132.454h-1.779
	v-3.437c0-0.729-0.041-1.201-0.119-1.414c-0.08-0.214-0.201-0.38-0.371-0.5c-0.18-0.12-0.379-0.18-0.619-0.18
	c-0.301,0-0.58,0.086-0.82,0.258c-0.25,0.172-0.41,0.396-0.51,0.672c-0.09,0.276-0.141,0.794-0.141,1.555v3.046h-1.779v-6.733h1.66
	v0.984c0.578-0.76,1.32-1.14,2.209-1.14c0.4,0,0.76,0.07,1.08,0.211c0.33,0.14,0.57,0.32,0.74,0.539
	c0.18,0.219,0.291,0.469,0.359,0.75c0.061,0.281,0.09,0.682,0.09,1.203V132.454L303.889,132.454z M311.831,132.454h-1.781v-3.437
	c0-0.729-0.039-1.201-0.119-1.414c-0.08-0.214-0.199-0.38-0.371-0.5c-0.17-0.12-0.379-0.18-0.619-0.18
	c-0.301,0-0.57,0.086-0.82,0.258c-0.24,0.172-0.41,0.396-0.51,0.672c-0.09,0.276-0.141,0.794-0.141,1.555v3.046h-1.779v-6.733h1.66
	v0.984c0.58-0.76,1.32-1.14,2.219-1.14c0.391,0,0.75,0.07,1.07,0.211c0.33,0.14,0.57,0.32,0.75,0.539
	c0.17,0.219,0.281,0.469,0.352,0.75c0.059,0.281,0.09,0.682,0.09,1.203V132.454L311.831,132.454z M317.549,130.314l1.77,0.297
	c-0.229,0.646-0.588,1.141-1.078,1.484s-1.102,0.516-1.84,0.516c-1.182,0-2.051-0.386-2.611-1.157
	c-0.449-0.613-0.67-1.385-0.67-2.312c0-1.125,0.291-2.003,0.881-2.633c0.59-0.63,1.32-0.945,2.209-0.945
	c1.01,0,1.801,0.331,2.381,0.992s0.85,1.675,0.82,3.039h-4.471c0.02,0.531,0.17,0.942,0.439,1.233
	c0.271,0.292,0.621,0.438,1.031,0.438c0.279,0,0.52-0.076,0.709-0.227C317.299,130.89,317.45,130.647,317.549,130.314
	L317.549,130.314z M317.649,128.502c-0.01-0.511-0.148-0.901-0.398-1.172c-0.26-0.271-0.57-0.407-0.932-0.407
	c-0.389,0-0.709,0.141-0.969,0.422c-0.25,0.292-0.369,0.677-0.369,1.156H317.649L317.649,128.502z M326.75,127.705l-1.76,0.313
	c-0.061-0.344-0.191-0.604-0.4-0.781c-0.221-0.177-0.49-0.266-0.82-0.266c-0.439,0-0.789,0.15-1.061,0.453
	c-0.26,0.302-0.4,0.817-0.4,1.547c0,0.792,0.141,1.354,0.41,1.688c0.271,0.333,0.631,0.5,1.08,0.5c0.34,0,0.621-0.097,0.83-0.289
	c0.221-0.192,0.371-0.523,0.451-0.992l1.77,0.297c-0.189,0.802-0.541,1.409-1.061,1.82c-0.51,0.411-1.199,0.617-2.07,0.617
	c-0.99,0-1.779-0.313-2.359-0.938s-0.869-1.484-0.869-2.578c0-1.114,0.289-1.982,0.869-2.601c0.58-0.62,1.381-0.93,2.391-0.93
	c0.83,0,1.48,0.177,1.959,0.531C326.2,126.45,326.54,126.986,326.75,127.705L326.75,127.705z M331.2,125.721v1.422h-1.219v2.703
	c0,0.552,0.008,0.875,0.029,0.969c0.02,0.094,0.08,0.169,0.16,0.227s0.18,0.086,0.299,0.086c0.16,0,0.4-0.058,0.721-0.173
	l0.15,1.392c-0.42,0.177-0.881,0.266-1.4,0.266c-0.33,0-0.619-0.055-0.881-0.164c-0.26-0.109-0.449-0.25-0.57-0.422
	c-0.119-0.172-0.199-0.404-0.238-0.696c-0.041-0.208-0.061-0.625-0.061-1.25v-2.937h-0.82v-1.422h0.82v-1.344l1.791-1.047v2.391
	H331.2L331.2,125.721z M332.44,124.798v-1.656h1.779v1.656H332.44L332.44,124.798z M332.44,132.454v-6.733h1.779v6.733H332.44
	L332.44,132.454z M335.629,128.986c0-0.594,0.141-1.167,0.43-1.719c0.301-0.552,0.711-0.974,1.25-1.266
	c0.531-0.291,1.131-0.437,1.801-0.437c1.01,0,1.84,0.331,2.5,0.992s0.98,1.497,0.98,2.508c0,1.021-0.33,1.867-0.99,2.539
	s-1.49,1.008-2.49,1.008c-0.609,0-1.199-0.141-1.77-0.422c-0.561-0.281-0.98-0.689-1.281-1.227
	C335.77,130.427,335.629,129.768,335.629,128.986L335.629,128.986z M337.45,129.079c0,0.667,0.16,1.181,0.48,1.54
	s0.709,0.539,1.18,0.539s0.859-0.18,1.17-0.539s0.471-0.878,0.471-1.555c0-0.656-0.16-1.162-0.471-1.516
	c-0.311-0.354-0.699-0.531-1.17-0.531s-0.859,0.177-1.18,0.531C337.61,127.902,337.45,128.413,337.45,129.079L337.45,129.079z
	 M350.11,132.454h-1.779v-3.437c0-0.729-0.041-1.201-0.111-1.414c-0.08-0.214-0.209-0.38-0.379-0.5s-0.381-0.18-0.621-0.18
	c-0.299,0-0.568,0.086-0.818,0.258c-0.24,0.172-0.41,0.396-0.5,0.672c-0.102,0.276-0.15,0.794-0.15,1.555v3.046h-1.781v-6.733h1.66
	v0.984c0.58-0.76,1.32-1.14,2.221-1.14c0.391,0,0.75,0.07,1.08,0.211c0.32,0.14,0.57,0.32,0.74,0.539
	c0.17,0.219,0.289,0.469,0.35,0.75c0.061,0.281,0.09,0.682,0.09,1.203V132.454L350.11,132.454z"/>
<polygon fill="#FFCC99" points="256.36,219.945 352.36,219.945 352.36,242.945 256.36,242.945 256.36,219.945 "/>
<polygon fill="#FFFFDA" points="255.36,218.945 256.36,218.945 256.36,243.945 255.36,243.945 255.36,218.945 "/>
<polygon fill="#FFFFDA" points="256.36,218.945 352.36,218.945 352.36,219.945 256.36,219.945 256.36,218.945 "/>
<polygon fill="#B28E6B" points="256.36,242.945 353.36,242.945 353.36,243.945 256.36,243.945 256.36,242.945 "/>
<polygon fill="#B28E6B" points="352.36,218.945 353.36,218.945 353.36,242.945 352.36,242.945 352.36,218.945 "/>
<path d="M265.53,228.091h3.439c0.771,0,1.361,0.062,1.762,0.187c0.549,0.156,1.02,0.44,1.408,0.853
	c0.381,0.411,0.68,0.914,0.881,1.508c0.199,0.593,0.311,1.328,0.311,2.203c0,0.76-0.102,1.422-0.291,1.983
	c-0.221,0.678-0.561,1.225-1,1.642c-0.32,0.312-0.76,0.557-1.309,0.733c-0.41,0.136-0.971,0.203-1.672,0.203h-3.529V228.091
	L265.53,228.091z M267.399,229.669v6.172h1.41c0.531,0,0.91-0.032,1.141-0.095c0.301-0.072,0.561-0.2,0.76-0.383
	c0.201-0.182,0.371-0.481,0.49-0.897c0.131-0.417,0.189-0.985,0.189-1.703c0-0.719-0.059-1.271-0.189-1.657
	c-0.119-0.385-0.299-0.687-0.529-0.906c-0.23-0.219-0.52-0.364-0.881-0.437c-0.26-0.063-0.77-0.094-1.539-0.094H267.399
	L267.399,229.669z M274.84,237.402v-9.312h1.779v3.358c0.551-0.625,1.201-0.937,1.951-0.937c0.828,0,1.51,0.296,2.039,0.89
	c0.541,0.594,0.811,1.448,0.811,2.563c0,1.146-0.281,2.03-0.82,2.655c-0.551,0.625-1.211,0.938-2,0.938
	c-0.381,0-0.76-0.096-1.141-0.289c-0.369-0.192-0.689-0.476-0.959-0.851v0.983H274.84L274.84,237.402z M276.6,233.888
	c0,0.697,0.109,1.213,0.33,1.546c0.32,0.479,0.73,0.719,1.24,0.719c0.389,0,0.73-0.169,1-0.508c0.279-0.338,0.42-0.872,0.42-1.601
	c0-0.762-0.141-1.313-0.42-1.656c-0.27-0.344-0.631-0.517-1.07-0.517c-0.42,0-0.781,0.167-1.07,0.5
	C276.75,232.704,276.6,233.21,276.6,233.888L276.6,233.888z M282.389,234.371l1.83-0.172c0.111,0.615,0.34,1.065,0.67,1.353
	c0.33,0.286,0.791,0.429,1.361,0.429c0.6,0,1.059-0.127,1.369-0.383c0.301-0.255,0.461-0.554,0.461-0.898
	c0-0.219-0.07-0.405-0.201-0.562c-0.129-0.157-0.359-0.292-0.68-0.407c-0.219-0.073-0.719-0.208-1.5-0.406
	c-1.01-0.25-1.719-0.557-2.119-0.922c-0.57-0.51-0.85-1.135-0.85-1.875c0-0.469,0.139-0.909,0.398-1.32
	c0.271-0.411,0.65-0.727,1.16-0.944c0.5-0.219,1.109-0.329,1.83-0.329c1.17,0,2.051,0.258,2.641,0.774
	c0.59,0.515,0.891,1.199,0.93,2.055l-1.881,0.078c-0.078-0.479-0.25-0.823-0.51-1.032c-0.26-0.208-0.66-0.313-1.189-0.313
	c-0.551,0-0.98,0.109-1.279,0.328c-0.201,0.146-0.301,0.339-0.301,0.578c0,0.219,0.09,0.406,0.27,0.563
	c0.24,0.208,0.811,0.419,1.73,0.632c0.92,0.214,1.59,0.435,2.029,0.665c0.441,0.229,0.781,0.544,1.021,0.945
	c0.25,0.4,0.369,0.897,0.369,1.491c0,0.531-0.15,1.029-0.439,1.492c-0.301,0.464-0.721,0.811-1.26,1.039
	c-0.541,0.229-1.211,0.344-2.02,0.344c-1.172,0-2.08-0.272-2.711-0.819S282.51,235.413,282.389,234.371L282.389,234.371z
	 M294.62,230.669v1.422h-1.219v2.703c0,0.552,0.01,0.875,0.039,0.969c0.02,0.093,0.07,0.169,0.15,0.226
	c0.08,0.058,0.18,0.086,0.299,0.086c0.16,0,0.4-0.057,0.721-0.172l0.15,1.392c-0.41,0.177-0.881,0.265-1.4,0.265
	c-0.33,0-0.619-0.054-0.879-0.164c-0.262-0.109-0.451-0.25-0.57-0.422c-0.121-0.171-0.201-0.403-0.24-0.695
	c-0.041-0.208-0.061-0.625-0.061-1.25v-2.937h-0.82v-1.422h0.82v-1.345l1.791-1.047v2.392H294.62L294.62,230.669z M297.19,232.716
	l-1.631-0.297c0.191-0.646,0.5-1.125,0.951-1.438c0.439-0.312,1.1-0.468,1.971-0.468c0.809,0,1.398,0.093,1.779,0.281
	c0.391,0.187,0.66,0.427,0.82,0.719c0.17,0.291,0.25,0.822,0.25,1.593l-0.021,2.078c0,0.594,0.031,1.032,0.092,1.313
	c0.049,0.281,0.158,0.583,0.318,0.906h-1.77c-0.049-0.114-0.109-0.291-0.17-0.531c-0.029-0.104-0.049-0.172-0.061-0.202
	c-0.318,0.291-0.639,0.513-0.99,0.664c-0.34,0.15-0.709,0.226-1.109,0.226c-0.689,0-1.24-0.19-1.639-0.57
	c-0.391-0.38-0.592-0.856-0.592-1.43c0-0.375,0.092-0.713,0.271-1.015c0.189-0.303,0.439-0.531,0.77-0.688
	c0.33-0.156,0.799-0.297,1.41-0.422c0.84-0.156,1.41-0.302,1.74-0.438v-0.172c0-0.344-0.09-0.588-0.26-0.733
	c-0.17-0.146-0.49-0.22-0.961-0.22c-0.311,0-0.561,0.063-0.74,0.188C297.45,232.184,297.299,232.402,297.19,232.716L297.19,232.716z
	 M299.581,234.169c-0.23,0.072-0.59,0.16-1.092,0.265c-0.488,0.104-0.818,0.209-0.979,0.313c-0.221,0.167-0.34,0.375-0.34,0.625
	s0.09,0.467,0.279,0.648c0.189,0.183,0.42,0.274,0.699,0.274c0.332,0,0.641-0.104,0.932-0.313c0.219-0.156,0.359-0.354,0.42-0.593
	c0.049-0.146,0.08-0.434,0.08-0.86V234.169L299.581,234.169z M306.18,230.669v1.422h-1.221v2.703c0,0.552,0.01,0.875,0.031,0.969
	c0.029,0.093,0.078,0.169,0.16,0.226c0.08,0.058,0.18,0.086,0.299,0.086c0.16,0,0.4-0.057,0.721-0.172l0.15,1.392
	c-0.41,0.177-0.881,0.265-1.4,0.265c-0.33,0-0.621-0.054-0.881-0.164c-0.26-0.109-0.449-0.25-0.57-0.422
	c-0.119-0.171-0.199-0.403-0.24-0.695c-0.039-0.208-0.059-0.625-0.059-1.25v-2.937h-0.82v-1.422h0.82v-1.345l1.789-1.047v2.392
	H306.18L306.18,230.669z M311.321,235.263l1.77,0.296c-0.23,0.646-0.59,1.141-1.08,1.485c-0.49,0.344-1.1,0.515-1.84,0.515
	c-1.182,0-2.051-0.385-2.611-1.156c-0.449-0.614-0.67-1.385-0.67-2.312c0-1.125,0.291-2.003,0.881-2.634
	c0.59-0.63,1.32-0.944,2.209-0.944c1.012,0,1.801,0.33,2.381,0.992c0.58,0.661,0.85,1.674,0.82,3.039h-4.471
	c0.021,0.53,0.17,0.942,0.441,1.233c0.27,0.292,0.619,0.438,1.029,0.438c0.279,0,0.52-0.076,0.709-0.228
	C311.069,235.838,311.219,235.596,311.321,235.263L311.321,235.263z M311.42,233.449c-0.01-0.51-0.15-0.9-0.4-1.172
	c-0.26-0.271-0.57-0.406-0.93-0.406c-0.391,0-0.711,0.142-0.971,0.423c-0.25,0.291-0.369,0.677-0.369,1.155H311.42L311.42,233.449z
	 M314.51,230.669h1.639v0.905c0.592-0.708,1.291-1.062,2.111-1.062c0.42,0,0.799,0.088,1.109,0.265
	c0.32,0.177,0.58,0.443,0.791,0.797c0.289-0.354,0.609-0.62,0.959-0.797c0.34-0.177,0.701-0.265,1.09-0.265
	c0.5,0,0.92,0.099,1.27,0.296c0.34,0.198,0.592,0.495,0.762,0.891c0.129,0.281,0.189,0.745,0.189,1.392v4.312h-1.779v-3.858
	c0-0.667-0.07-1.095-0.191-1.281c-0.17-0.261-0.42-0.392-0.77-0.392c-0.25,0-0.48,0.075-0.701,0.227
	c-0.219,0.152-0.379,0.375-0.479,0.672c-0.09,0.297-0.141,0.763-0.141,1.399v3.233h-1.789v-3.687c0-0.657-0.031-1.081-0.09-1.274
	c-0.061-0.191-0.16-0.336-0.301-0.429c-0.131-0.094-0.311-0.142-0.541-0.142c-0.27,0-0.52,0.075-0.738,0.227
	c-0.221,0.152-0.371,0.365-0.471,0.641c-0.1,0.276-0.15,0.737-0.15,1.383v3.281h-1.779V230.669L314.51,230.669z M330.11,235.263
	l1.77,0.296c-0.229,0.646-0.59,1.141-1.08,1.485c-0.49,0.344-1.1,0.515-1.84,0.515c-1.18,0-2.049-0.385-2.609-1.156
	c-0.451-0.614-0.68-1.385-0.68-2.312c0-1.125,0.299-2.003,0.889-2.634c0.592-0.63,1.32-0.944,2.211-0.944
	c1.01,0,1.799,0.33,2.379,0.992c0.58,0.661,0.852,1.674,0.82,3.039H327.5c0.02,0.53,0.17,0.942,0.439,1.233
	c0.27,0.292,0.619,0.438,1.029,0.438c0.281,0,0.521-0.076,0.701-0.228C329.86,235.838,330.01,235.596,330.11,235.263L330.11,235.263
	z M330.209,233.449c-0.01-0.51-0.15-0.9-0.4-1.172c-0.26-0.271-0.57-0.406-0.93-0.406c-0.391,0-0.709,0.142-0.969,0.423
	c-0.25,0.291-0.381,0.677-0.381,1.155H330.209L330.209,233.449z M339.559,237.402h-1.779v-3.437c0-0.729-0.039-1.201-0.119-1.414
	c-0.08-0.214-0.201-0.381-0.371-0.5c-0.17-0.12-0.379-0.181-0.619-0.181c-0.301,0-0.57,0.086-0.82,0.259
	c-0.24,0.172-0.41,0.396-0.51,0.672c-0.09,0.275-0.141,0.794-0.141,1.554v3.047h-1.779v-6.733h1.66v0.983
	c0.58-0.76,1.318-1.14,2.219-1.14c0.391,0,0.75,0.07,1.07,0.21c0.33,0.141,0.57,0.321,0.75,0.54c0.17,0.218,0.279,0.468,0.35,0.75
	c0.061,0.281,0.09,0.682,0.09,1.203V237.402L339.559,237.402z M344.469,230.669v1.422h-1.219v2.703c0,0.552,0.01,0.875,0.029,0.969
	c0.02,0.093,0.08,0.169,0.16,0.226c0.08,0.058,0.18,0.086,0.301,0.086c0.158,0,0.398-0.057,0.719-0.172l0.15,1.392
	c-0.42,0.177-0.881,0.265-1.4,0.265c-0.33,0-0.619-0.054-0.879-0.164c-0.26-0.109-0.451-0.25-0.57-0.422
	c-0.121-0.171-0.201-0.403-0.24-0.695c-0.041-0.208-0.061-0.625-0.061-1.25v-2.937h-0.82v-1.422h0.82v-1.345l1.791-1.047v2.392
	H344.469L344.469,230.669z"/>
<polygon fill="#99CCFF" points="257.36,9.945 353.36,9.945 353.36,32.945 257.36,32.945 257.36,9.945 "/>
<polygon fill="#DAFFFF" points="256.36,8.945 257.36,8.945 257.36,33.945 256.36,33.945 256.36,8.945 "/>
<polygon fill="#DAFFFF" points="257.36,8.945 353.36,8.945 353.36,9.945 257.36,9.945 257.36,8.945 "/>
<polygon fill="#6B8EB2" points="257.36,32.945 354.36,32.945 354.36,33.945 257.36,33.945 257.36,32.945 "/>
<polygon fill="#6B8EB2" points="353.36,8.945 354.36,8.945 354.36,32.945 353.36,32.945 353.36,8.945 "/>
<path d="M272.12,18.195h3.439c0.771,0,1.361,0.063,1.771,0.188c0.549,0.156,1.02,0.44,1.4,0.852c0.389,0.412,0.68,0.914,0.889,1.508
	c0.201,0.594,0.301,1.328,0.301,2.203c0,0.76-0.09,1.422-0.281,1.984c-0.229,0.677-0.559,1.224-1,1.641
	c-0.318,0.313-0.76,0.557-1.309,0.734c-0.42,0.135-0.98,0.203-1.67,0.203h-3.541V18.195L272.12,18.195z M274,19.773v6.172h1.41
	c0.529,0,0.91-0.031,1.139-0.094c0.301-0.073,0.551-0.201,0.75-0.383c0.211-0.182,0.371-0.482,0.5-0.898
	c0.121-0.417,0.182-0.984,0.182-1.703s-0.061-1.271-0.182-1.656c-0.129-0.385-0.311-0.688-0.539-0.906
	c-0.221-0.219-0.521-0.365-0.871-0.438c-0.26-0.063-0.779-0.094-1.549-0.094H274L274,19.773z M281.43,27.507v-9.313h1.789v3.359
	c0.551-0.625,1.201-0.938,1.951-0.938c0.82,0,1.5,0.297,2.039,0.891c0.531,0.594,0.801,1.448,0.801,2.563
	c0,1.146-0.27,2.031-0.82,2.656s-1.211,0.938-1.99,0.938c-0.391,0-0.77-0.096-1.141-0.289c-0.379-0.193-0.699-0.477-0.969-0.852
	v0.984H281.43L281.43,27.507z M283.2,23.992c0,0.698,0.109,1.213,0.33,1.547c0.311,0.479,0.721,0.719,1.23,0.719
	c0.4,0,0.73-0.169,1.01-0.508s0.41-0.873,0.41-1.602c0-0.76-0.131-1.313-0.41-1.656s-0.631-0.516-1.07-0.516
	c-0.43,0-0.779,0.167-1.07,0.5C283.34,22.81,283.2,23.314,283.2,23.992L283.2,23.992z M289.44,27.507v-9.313h2.811l1.689,6.359
	l1.67-6.359h2.811v9.313h-1.75v-7.328l-1.84,7.328h-1.811l-1.83-7.328v7.328H289.44L289.44,27.507z M301.61,22.82l-1.621-0.297
	c0.182-0.646,0.502-1.125,0.941-1.438s1.1-0.469,1.98-0.469c0.799,0,1.389,0.094,1.779,0.281c0.379,0.188,0.66,0.427,0.82,0.719
	s0.24,0.823,0.24,1.594l-0.01,2.078c0,0.594,0.02,1.031,0.078,1.313c0.061,0.281,0.17,0.583,0.32,0.906h-1.76
	c-0.061-0.115-0.109-0.292-0.18-0.531c-0.029-0.104-0.051-0.172-0.061-0.203c-0.309,0.292-0.639,0.513-0.979,0.664
	c-0.352,0.151-0.721,0.227-1.111,0.227c-0.699,0-1.25-0.19-1.639-0.57c-0.4-0.38-0.602-0.857-0.602-1.43
	c0-0.375,0.092-0.713,0.281-1.016c0.18-0.302,0.43-0.531,0.76-0.688s0.801-0.297,1.42-0.422c0.83-0.156,1.41-0.302,1.73-0.438
	v-0.172c0-0.344-0.09-0.588-0.262-0.734c-0.17-0.146-0.488-0.219-0.959-0.219c-0.311,0-0.561,0.063-0.73,0.188
	C301.87,22.289,301.719,22.507,301.61,22.82L301.61,22.82z M304,24.273c-0.23,0.073-0.59,0.162-1.09,0.266
	c-0.49,0.104-0.82,0.208-0.971,0.313c-0.23,0.167-0.35,0.375-0.35,0.625s0.1,0.466,0.289,0.648c0.18,0.182,0.42,0.273,0.701,0.273
	c0.32,0,0.629-0.104,0.92-0.313c0.219-0.156,0.359-0.354,0.42-0.594c0.049-0.146,0.08-0.432,0.08-0.859V24.273L304,24.273z
	 M313.639,27.507h-1.779V24.07c0-0.729-0.041-1.201-0.119-1.414c-0.08-0.213-0.201-0.38-0.381-0.5c-0.17-0.12-0.369-0.18-0.609-0.18
	c-0.311,0-0.58,0.086-0.82,0.258c-0.25,0.172-0.42,0.396-0.51,0.672c-0.1,0.276-0.141,0.794-0.141,1.555v3.047H307.5v-6.734h1.65
	v0.984c0.588-0.76,1.33-1.141,2.219-1.141c0.4,0,0.76,0.07,1.08,0.211s0.57,0.32,0.74,0.539s0.291,0.469,0.35,0.75
	c0.07,0.281,0.1,0.682,0.1,1.203V27.507L313.639,27.507z M316.78,22.82l-1.619-0.297c0.18-0.646,0.5-1.125,0.939-1.438
	s1.1-0.469,1.98-0.469c0.799,0,1.389,0.094,1.779,0.281c0.379,0.188,0.66,0.427,0.82,0.719s0.24,0.823,0.24,1.594l-0.01,2.078
	c0,0.594,0.02,1.031,0.078,1.313c0.061,0.281,0.172,0.583,0.32,0.906h-1.76c-0.061-0.115-0.109-0.292-0.18-0.531
	c-0.029-0.104-0.051-0.172-0.061-0.203c-0.309,0.292-0.639,0.513-0.979,0.664c-0.35,0.151-0.721,0.227-1.111,0.227
	c-0.699,0-1.25-0.19-1.639-0.57c-0.4-0.38-0.6-0.857-0.6-1.43c0-0.375,0.1-0.713,0.279-1.016s0.439-0.531,0.76-0.688
	c0.33-0.156,0.801-0.297,1.42-0.422c0.83-0.156,1.41-0.302,1.73-0.438v-0.172c0-0.344-0.08-0.588-0.26-0.734
	c-0.172-0.146-0.49-0.219-0.961-0.219c-0.311,0-0.549,0.063-0.73,0.188C317.04,22.289,316.899,22.507,316.78,22.82L316.78,22.82z
	 M319.17,24.273c-0.23,0.073-0.59,0.162-1.08,0.266c-0.5,0.104-0.82,0.208-0.98,0.313c-0.23,0.167-0.34,0.375-0.34,0.625
	s0.09,0.466,0.279,0.648c0.182,0.182,0.42,0.273,0.701,0.273c0.32,0,0.629-0.104,0.92-0.313c0.219-0.156,0.359-0.354,0.42-0.594
	c0.059-0.146,0.08-0.432,0.08-0.859V24.273L319.17,24.273z M322.51,27.945l2.049,0.25c0.031,0.24,0.111,0.406,0.23,0.5
	c0.17,0.125,0.43,0.188,0.801,0.188c0.459,0,0.811-0.073,1.049-0.219c0.15-0.094,0.271-0.24,0.361-0.438
	c0.049-0.156,0.07-0.432,0.07-0.828v-0.984c-0.531,0.729-1.201,1.094-2.012,1.094c-0.908,0-1.629-0.385-2.16-1.156
	c-0.41-0.604-0.619-1.354-0.619-2.25c0-1.135,0.27-2,0.82-2.594c0.539-0.594,1.221-0.891,2.02-0.891c0.83,0,1.52,0.365,2.061,1.094
	v-0.938h1.67v6.047c0,0.792-0.061,1.385-0.189,1.781c-0.131,0.396-0.32,0.706-0.561,0.93c-0.23,0.224-0.551,0.398-0.949,0.523
	c-0.391,0.125-0.891,0.188-1.5,0.188c-1.131,0-1.941-0.195-2.42-0.586c-0.48-0.391-0.721-0.888-0.721-1.492
	C322.51,28.111,322.51,28.039,322.51,27.945L322.51,27.945z M324.1,23.992c0,0.719,0.141,1.245,0.42,1.578
	c0.27,0.333,0.619,0.5,1.02,0.5c0.441,0,0.811-0.172,1.109-0.516c0.301-0.344,0.451-0.849,0.451-1.516
	c0-0.698-0.141-1.216-0.42-1.555c-0.291-0.338-0.66-0.508-1.109-0.508c-0.422,0-0.781,0.167-1.051,0.5
	C324.241,22.81,324.1,23.314,324.1,23.992L324.1,23.992z M334.53,25.367l1.77,0.297c-0.229,0.646-0.59,1.141-1.08,1.484
	s-1.109,0.516-1.85,0.516c-1.17,0-2.039-0.385-2.609-1.156c-0.439-0.615-0.67-1.385-0.67-2.313c0-1.125,0.299-2.002,0.889-2.633
	c0.58-0.63,1.32-0.945,2.211-0.945c1.01,0,1.801,0.331,2.381,0.992s0.85,1.674,0.818,3.039h-4.469
	c0.02,0.531,0.17,0.943,0.439,1.234s0.609,0.438,1.029,0.438c0.281,0,0.521-0.076,0.701-0.227
	C334.28,25.942,334.43,25.7,334.53,25.367L334.53,25.367z M334.62,23.554c-0.01-0.51-0.139-0.901-0.389-1.172
	c-0.262-0.271-0.57-0.406-0.932-0.406c-0.389,0-0.709,0.141-0.969,0.422c-0.25,0.292-0.381,0.677-0.381,1.156H334.62L334.62,23.554z
	 M339.559,27.507h-1.779v-6.734h1.65v0.953c0.279-0.458,0.539-0.758,0.77-0.898s0.48-0.211,0.76-0.211
	c0.41,0,0.801,0.109,1.18,0.328l-0.549,1.563c-0.301-0.198-0.59-0.297-0.85-0.297c-0.252,0-0.461,0.07-0.631,0.211
	s-0.311,0.391-0.4,0.75c-0.1,0.359-0.15,1.112-0.15,2.258V27.507L339.559,27.507z"/>
<polygon fill="#FFDD00" points="91.36,166.945 187.36,166.945 187.36,189.945 91.36,189.945 91.36,166.945 "/>
<polygon fill="#FFFF00" points="90.36,165.945 91.36,165.945 91.36,190.945 90.36,190.945 90.36,165.945 "/>
<polygon fill="#FFFF00" points="91.36,165.945 187.36,165.945 187.36,166.945 91.36,166.945 91.36,165.945 "/>
<polygon fill="#B29A00" points="91.36,189.945 188.36,189.945 188.36,190.945 91.36,190.945 91.36,189.945 "/>
<polygon fill="#B29A00" points="187.36,165.945 188.36,165.945 188.36,189.945 187.36,189.945 187.36,165.945 "/>
<path d="M103.55,180.336c0-0.948,0.14-1.745,0.42-2.392c0.22-0.469,0.51-0.893,0.88-1.272c0.36-0.381,0.76-0.659,1.2-0.836
	c0.57-0.25,1.24-0.375,2-0.375c1.38,0,2.48,0.427,3.3,1.28c0.82,0.854,1.23,2.036,1.23,3.547c0,1.5-0.41,2.675-1.22,3.523
	c-0.82,0.849-1.91,1.274-3.28,1.274c-1.38,0-2.48-0.423-3.3-1.267C103.96,182.976,103.55,181.814,103.55,180.336L103.55,180.336z
	 M105.49,180.272c0,1.052,0.24,1.849,0.73,2.391c0.49,0.541,1.11,0.813,1.85,0.813c0.75,0,1.36-0.269,1.85-0.804
	c0.48-0.537,0.73-1.348,0.73-2.431c0-1.063-0.24-1.856-0.71-2.383c-0.47-0.525-1.09-0.789-1.87-0.789c-0.77,0-1.4,0.267-1.87,0.797
	C105.73,178.397,105.49,179.199,105.49,180.272L105.49,180.272z M113.96,184.929v-9.313h1.78v3.359c0.55-0.625,1.2-0.938,1.95-0.938
	c0.83,0,1.51,0.298,2.04,0.891c0.54,0.594,0.81,1.448,0.81,2.563c0,1.146-0.28,2.031-0.82,2.656c-0.55,0.625-1.21,0.938-1.99,0.938
	c-0.39,0-0.77-0.098-1.14-0.289c-0.38-0.193-0.7-0.478-0.97-0.853v0.984H113.96L113.96,184.929z M115.73,181.413
	c0,0.698,0.11,1.214,0.32,1.548c0.32,0.479,0.73,0.718,1.24,0.718c0.39,0,0.729-0.169,1.01-0.507c0.27-0.34,0.41-0.873,0.41-1.603
	c0-0.76-0.14-1.313-0.41-1.656c-0.28-0.344-0.64-0.516-1.07-0.516s-0.79,0.167-1.07,0.5
	C115.87,180.23,115.73,180.736,115.73,181.413L115.73,181.413z M121.93,177.272v-1.656h1.78v1.656H121.93L121.93,177.272z
	 M123.71,178.194v6.531c0,0.854-0.05,1.459-0.16,1.813c-0.11,0.354-0.32,0.631-0.64,0.828c-0.32,0.198-0.73,0.297-1.23,0.297
	c-0.17,0-0.36-0.016-0.57-0.047c-0.2-0.03-0.42-0.078-0.66-0.141l0.31-1.531c0.08,0.021,0.16,0.036,0.23,0.047
	c0.08,0.011,0.15,0.016,0.21,0.016c0.189,0,0.34-0.039,0.45-0.117c0.12-0.078,0.19-0.172,0.23-0.281
	c0.03-0.108,0.05-0.439,0.05-0.992v-6.422H123.71L123.71,178.194z M129.5,182.788l1.76,0.298c-0.23,0.645-0.59,1.14-1.08,1.483
	c-0.48,0.344-1.1,0.517-1.84,0.517c-1.18,0-2.05-0.387-2.61-1.157c-0.45-0.614-0.67-1.385-0.67-2.313c0-1.125,0.29-2.003,0.88-2.633
	c0.59-0.63,1.33-0.945,2.21-0.945c1.01,0,1.81,0.33,2.39,0.992c0.57,0.661,0.85,1.674,0.82,3.039h-4.47
	c0.02,0.531,0.16,0.943,0.44,1.234c0.27,0.292,0.61,0.438,1.03,0.438c0.28,0,0.51-0.075,0.7-0.227
	C129.25,183.363,129.39,183.121,129.5,182.788L129.5,182.788z M129.59,180.976c-0.01-0.51-0.14-0.901-0.4-1.172
	c-0.25-0.271-0.56-0.406-0.93-0.406c-0.38,0-0.71,0.141-0.97,0.422c-0.25,0.292-0.37,0.677-0.37,1.156H129.59L129.59,180.976z
	 M138.7,180.179l-1.77,0.313c-0.05-0.344-0.18-0.604-0.4-0.78c-0.21-0.178-0.49-0.267-0.82-0.267c-0.44,0-0.79,0.151-1.05,0.453
	c-0.27,0.302-0.4,0.818-0.4,1.547c0,0.792,0.13,1.354,0.4,1.688c0.28,0.334,0.63,0.5,1.08,0.5c0.35,0,0.63-0.097,0.84-0.289
	s0.36-0.523,0.44-0.992l1.77,0.297c-0.19,0.802-0.54,1.409-1.05,1.82c-0.52,0.412-1.21,0.618-2.08,0.618
	c-0.98,0-1.77-0.313-2.35-0.938c-0.59-0.625-0.88-1.484-0.88-2.578c0-1.115,0.29-1.981,0.88-2.602c0.58-0.619,1.38-0.93,2.39-0.93
	c0.82,0,1.47,0.178,1.96,0.531C138.14,178.924,138.49,179.461,138.7,180.179L138.7,180.179z M143.14,178.194v1.422h-1.209v2.703
	c0,0.552,0.01,0.875,0.03,0.969s0.07,0.17,0.15,0.227c0.09,0.058,0.19,0.086,0.3,0.086c0.17,0,0.41-0.057,0.72-0.172l0.16,1.391
	c-0.42,0.177-0.89,0.267-1.41,0.267c-0.32,0-0.62-0.056-0.88-0.164c-0.26-0.11-0.45-0.25-0.57-0.422
	c-0.121-0.173-0.2-0.404-0.24-0.696c-0.04-0.208-0.06-0.625-0.06-1.25v-2.938h-0.81v-1.422h0.81v-1.344l1.8-1.047v2.391H143.14
	L143.14,178.194z M143.91,181.897l1.83-0.172c0.11,0.615,0.34,1.065,0.67,1.352c0.33,0.286,0.79,0.43,1.36,0.43
	c0.6,0,1.06-0.127,1.37-0.382c0.31-0.257,0.46-0.556,0.46-0.899c0-0.219-0.07-0.406-0.2-0.563s-0.35-0.292-0.68-0.406
	c-0.21-0.072-0.71-0.208-1.5-0.406c-1.01-0.25-1.71-0.557-2.12-0.922c-0.561-0.51-0.84-1.135-0.84-1.875
	c0-0.468,0.13-0.909,0.39-1.32c0.27-0.411,0.65-0.727,1.16-0.945c0.5-0.219,1.12-0.327,1.84-0.327c1.16,0,2.04,0.257,2.63,0.772
	c0.59,0.517,0.9,1.201,0.93,2.055l-1.88,0.078c-0.08-0.479-0.25-0.822-0.51-1.03c-0.26-0.209-0.66-0.313-1.19-0.313
	c-0.55,0-0.98,0.109-1.28,0.328c-0.2,0.146-0.3,0.339-0.3,0.578c0,0.219,0.09,0.407,0.27,0.563c0.24,0.208,0.82,0.419,1.73,0.634
	c0.92,0.213,1.6,0.435,2.03,0.663c0.44,0.229,0.78,0.545,1.03,0.945c0.24,0.401,0.36,0.898,0.36,1.492
	c0,0.531-0.14,1.029-0.44,1.492c-0.3,0.464-0.72,0.81-1.26,1.039s-1.21,0.344-2.01,0.344c-1.18,0-2.09-0.273-2.72-0.82
	S144.04,182.939,143.91,181.897L143.91,181.897z M156.14,178.194v1.422h-1.21v2.703c0,0.552,0.01,0.875,0.03,0.969
	s0.07,0.17,0.15,0.227c0.09,0.058,0.19,0.086,0.3,0.086c0.17,0,0.41-0.057,0.72-0.172l0.16,1.391c-0.42,0.177-0.89,0.267-1.41,0.267
	c-0.32,0-0.62-0.056-0.88-0.164c-0.26-0.11-0.45-0.25-0.57-0.422c-0.12-0.173-0.2-0.404-0.24-0.696
	c-0.04-0.208-0.06-0.625-0.06-1.25v-2.938h-0.81v-1.422h0.81v-1.344l1.8-1.047v2.391H156.14L156.14,178.194z M156.96,181.461
	c0-0.595,0.14-1.167,0.44-1.72c0.29-0.552,0.7-0.974,1.24-1.266c0.53-0.291,1.14-0.438,1.8-0.438c1.01,0,1.85,0.33,2.5,0.992
	c0.66,0.661,0.99,1.497,0.99,2.508c0,1.021-0.331,1.867-1,2.539c-0.661,0.673-1.49,1.009-2.49,1.009c-0.61,0-1.2-0.142-1.76-0.423
	c-0.57-0.281-0.99-0.689-1.28-1.227C157.1,182.9,156.96,182.241,156.96,181.461L156.96,181.461z M158.79,181.554
	c0,0.667,0.161,1.18,0.47,1.539c0.32,0.359,0.71,0.539,1.18,0.539c0.47,0,0.86-0.18,1.17-0.539c0.32-0.359,0.47-0.877,0.47-1.555
	c0-0.656-0.15-1.161-0.47-1.516c-0.31-0.354-0.7-0.531-1.17-0.531c-0.47,0-0.86,0.178-1.18,0.531
	C158.95,180.377,158.79,180.888,158.79,181.554L158.79,181.554z M167.02,184.929h-1.78v-6.734h1.66v0.953
	c0.28-0.458,0.54-0.758,0.76-0.897c0.229-0.142,0.49-0.212,0.77-0.212c0.41,0,0.8,0.109,1.169,0.328l-0.54,1.563
	c-0.31-0.198-0.59-0.297-0.85-0.297c-0.25,0-0.46,0.07-0.63,0.211s-0.31,0.391-0.41,0.75s-0.15,1.111-0.15,2.258V184.929
	L167.02,184.929z M174.29,182.788l1.76,0.298c-0.23,0.645-0.59,1.14-1.08,1.483c-0.49,0.344-1.1,0.517-1.84,0.517
	c-1.18,0-2.05-0.387-2.61-1.157c-0.45-0.614-0.669-1.385-0.669-2.313c0-1.125,0.29-2.003,0.88-2.633
	c0.59-0.63,1.33-0.945,2.21-0.945c1.01,0,1.81,0.33,2.39,0.992c0.57,0.661,0.85,1.674,0.82,3.039h-4.47
	c0.021,0.531,0.16,0.943,0.43,1.234c0.28,0.292,0.62,0.438,1.04,0.438c0.28,0,0.51-0.075,0.7-0.227S174.18,183.121,174.29,182.788
	L174.29,182.788z M174.38,180.976c-0.01-0.51-0.14-0.901-0.4-1.172c-0.25-0.271-0.56-0.406-0.93-0.406
	c-0.38,0-0.71,0.141-0.97,0.422c-0.25,0.292-0.37,0.677-0.37,1.156H174.38L174.38,180.976z"/>
<path fill="none" stroke="#000000" stroke-miterlimit="1.45" d="M7.61,103.493h68v15h15v31.785h-83V103.493z M75.61,103.493v15h15
	L75.61,103.493z"/>
<path fill="#404040" d="M33.69,116.897v-8.593h3.25c0.56,0,0.99,0.026,1.29,0.078c0.43,0.073,0.79,0.208,1.08,0.406
	c0.28,0.198,0.51,0.474,0.68,0.828c0.17,0.354,0.26,0.745,0.26,1.172c0,0.729-0.23,1.346-0.69,1.852
	c-0.47,0.505-1.31,0.757-2.53,0.757h-2.2v3.5H33.69L33.69,116.897z M34.83,112.397h2.22c0.74,0,1.26-0.138,1.57-0.414
	c0.3-0.276,0.46-0.664,0.46-1.164c0-0.354-0.09-0.659-0.27-0.914c-0.19-0.255-0.42-0.424-0.72-0.508
	c-0.19-0.052-0.55-0.078-1.06-0.078h-2.2V112.397L34.83,112.397z M45.64,116.897v-0.922c-0.479,0.709-1.15,1.063-1.979,1.063
	c-0.36,0-0.71-0.07-1.021-0.211c-0.32-0.141-0.56-0.318-0.71-0.531c-0.16-0.214-0.27-0.477-0.33-0.789
	c-0.04-0.198-0.06-0.526-0.06-0.985v-3.843h1.06v3.453c0,0.541,0.02,0.911,0.06,1.109c0.06,0.271,0.2,0.487,0.41,0.649
	c0.22,0.161,0.49,0.242,0.81,0.242c0.31,0,0.61-0.081,0.88-0.242c0.28-0.162,0.48-0.383,0.6-0.665c0.12-0.281,0.18-0.687,0.18-1.218
	v-3.328h1.041v6.218H45.64L45.64,116.897z M49.21,116.897h-0.99v-8.593h1.069v3.062c0.45-0.552,1.01-0.828,1.7-0.828
	c0.39,0,0.75,0.075,1.09,0.227c0.34,0.151,0.62,0.367,0.84,0.648c0.22,0.281,0.4,0.62,0.52,1.016c0.13,0.395,0.19,0.817,0.19,1.265
	c0,1.063-0.26,1.886-0.8,2.469c-0.53,0.583-1.16,0.875-1.89,0.875c-0.74,0-1.31-0.307-1.73-0.922V116.897L49.21,116.897z
	 M49.19,113.742c0,0.74,0.11,1.276,0.32,1.609c0.33,0.542,0.78,0.813,1.34,0.813c0.46,0,0.86-0.198,1.2-0.594
	c0.33-0.396,0.5-0.995,0.5-1.797c0-0.812-0.16-1.411-0.48-1.797c-0.32-0.385-0.71-0.578-1.17-0.578s-0.86,0.201-1.2,0.602
	S49.19,112.981,49.19,113.742L49.19,113.742z M54.88,116.897v-8.593h1.07v8.593H54.88L54.88,116.897z M57.58,109.522v-1.218h1.06
	v1.218H57.58L57.58,109.522z M57.58,116.897v-6.218h1.06v6.218H57.58L57.58,116.897z M64.31,114.617l1.03,0.141
	c-0.11,0.708-0.41,1.265-0.87,1.672c-0.47,0.406-1.05,0.609-1.72,0.609c-0.86,0-1.54-0.279-2.06-0.836
	c-0.51-0.557-0.77-1.357-0.77-2.398c0-0.667,0.11-1.253,0.33-1.758c0.23-0.505,0.57-0.883,1.02-1.133s0.95-0.375,1.49-0.375
	c0.67,0,1.22,0.169,1.65,0.508c0.43,0.338,0.71,0.825,0.84,1.461l-1.03,0.156c-0.1-0.417-0.27-0.732-0.52-0.945
	c-0.25-0.214-0.55-0.321-0.911-0.321c-0.53,0-0.959,0.19-1.29,0.571c-0.34,0.38-0.5,0.981-0.5,1.804c0,0.844,0.16,1.453,0.48,1.828
	s0.74,0.563,1.25,0.563c0.42,0,0.76-0.125,1.04-0.375C64.05,115.539,64.23,115.147,64.31,114.617L64.31,114.617z"/>
<path fill="#404040" d="M16.27,130.834c-0.39,0.333-0.77,0.567-1.13,0.702c-0.36,0.136-0.75,0.203-1.16,0.203
	c-0.69,0-1.22-0.167-1.58-0.5c-0.37-0.333-0.55-0.76-0.55-1.28c0-0.303,0.07-0.581,0.209-0.837c0.13-0.255,0.31-0.458,0.541-0.608
	c0.23-0.151,0.49-0.263,0.77-0.336c0.2-0.063,0.51-0.12,0.939-0.172c0.84-0.095,1.46-0.215,1.871-0.36c0-0.146,0-0.233,0-0.265
	c0-0.438-0.1-0.745-0.3-0.922c-0.27-0.229-0.67-0.344-1.2-0.344c-0.49,0-0.85,0.086-1.09,0.258c-0.24,0.172-0.42,0.477-0.53,0.915
	l-1.04-0.142c0.1-0.437,0.25-0.791,0.47-1.062s0.53-0.479,0.94-0.625s0.88-0.219,1.41-0.219c0.53,0,0.96,0.063,1.29,0.188
	c0.34,0.125,0.58,0.281,0.74,0.468c0.15,0.188,0.26,0.427,0.331,0.719c0.03,0.177,0.04,0.5,0.04,0.969v1.405
	c0,0.979,0.03,1.6,0.07,1.86c0.05,0.26,0.14,0.51,0.28,0.75h-1.11C16.37,131.381,16.31,131.126,16.27,130.834L16.27,130.834z
	 M16.18,128.475c-0.39,0.156-0.96,0.291-1.72,0.406c-0.44,0.062-0.74,0.133-0.92,0.211s-0.32,0.189-0.41,0.336
	c-0.1,0.145-0.15,0.312-0.15,0.5c0,0.281,0.1,0.515,0.32,0.703c0.21,0.187,0.52,0.28,0.93,0.28c0.4,0,0.77-0.089,1.08-0.266
	c0.32-0.177,0.55-0.421,0.7-0.734c0.11-0.239,0.17-0.589,0.17-1.047V128.475L16.18,128.475z M22.96,131.6v-0.922
	c-0.49,0.708-1.15,1.062-1.98,1.062c-0.37,0-0.71-0.069-1.02-0.211c-0.32-0.14-0.56-0.317-0.72-0.531
	c-0.15-0.214-0.26-0.477-0.32-0.788c-0.05-0.198-0.07-0.526-0.07-0.984v-3.844h1.07v3.454c0,0.542,0.02,0.91,0.06,1.108
	c0.06,0.271,0.2,0.487,0.41,0.649c0.22,0.161,0.48,0.242,0.81,0.242c0.31,0,0.6-0.081,0.88-0.242c0.28-0.162,0.47-0.383,0.59-0.664
	c0.12-0.282,0.18-0.688,0.18-1.219v-3.329h1.05v6.219H22.96L22.96,131.6z M27.86,130.661l0.15,0.923
	c-0.3,0.062-0.57,0.094-0.79,0.094c-0.39,0-0.69-0.061-0.9-0.18c-0.2-0.12-0.35-0.279-0.44-0.478s-0.13-0.614-0.13-1.25v-3.578
	h-0.77v-0.812h0.77v-1.547l1.04-0.625v2.172h1.07v0.812h-1.07v3.642c0,0.302,0.021,0.494,0.061,0.577
	c0.03,0.083,0.09,0.151,0.18,0.203c0.08,0.053,0.2,0.078,0.36,0.078C27.51,130.692,27.67,130.683,27.86,130.661L27.86,130.661z
	 M28.5,128.489c0-1.155,0.32-2.01,0.96-2.562c0.53-0.459,1.18-0.688,1.95-0.688c0.85,0,1.55,0.279,2.1,0.836
	c0.55,0.557,0.82,1.331,0.82,2.32c0,0.802-0.12,1.433-0.36,1.891c-0.24,0.458-0.59,0.815-1.05,1.07
	c-0.47,0.256-0.97,0.383-1.51,0.383c-0.871,0-1.57-0.278-2.101-0.836C28.77,130.347,28.5,129.542,28.5,128.489L28.5,128.489z
	 M29.58,128.489c0,0.792,0.17,1.387,0.52,1.781c0.351,0.396,0.791,0.594,1.311,0.594c0.53,0,0.97-0.197,1.31-0.594
	c0.34-0.395,0.52-1,0.52-1.812c0-0.771-0.18-1.354-0.53-1.75c-0.35-0.396-0.78-0.594-1.3-0.594s-0.96,0.195-1.311,0.586
	C29.75,127.092,29.58,127.688,29.58,128.489L29.58,128.489z M35.14,129.021v-1.062h3.25v1.062H35.14L35.14,129.021z M43.63,130.834
	c-0.4,0.333-0.78,0.567-1.14,0.702c-0.36,0.136-0.74,0.203-1.16,0.203c-0.69,0-1.22-0.167-1.58-0.5s-0.55-0.76-0.55-1.28
	c0-0.303,0.07-0.581,0.21-0.837c0.129-0.255,0.31-0.458,0.54-0.608c0.23-0.151,0.49-0.263,0.771-0.336
	c0.2-0.063,0.51-0.12,0.94-0.172c0.84-0.095,1.47-0.215,1.87-0.36c0-0.146,0-0.233,0-0.265c0-0.438-0.1-0.745-0.3-0.922
	c-0.27-0.229-0.67-0.344-1.2-0.344c-0.49,0-0.85,0.086-1.09,0.258c-0.24,0.172-0.42,0.477-0.53,0.915l-1.03-0.142
	c0.09-0.437,0.25-0.791,0.46-1.062c0.22-0.271,0.54-0.479,0.94-0.625c0.41-0.146,0.88-0.219,1.41-0.219
	c0.53,0,0.96,0.063,1.29,0.188c0.34,0.125,0.58,0.281,0.74,0.468c0.16,0.188,0.26,0.427,0.33,0.719c0.03,0.177,0.04,0.5,0.04,0.969
	v1.405c0,0.979,0.03,1.6,0.07,1.86c0.05,0.26,0.14,0.51,0.28,0.75h-1.11C43.72,131.381,43.66,131.126,43.63,130.834L43.63,130.834z
	 M43.53,128.475c-0.38,0.156-0.96,0.291-1.72,0.406c-0.43,0.062-0.74,0.133-0.92,0.211c-0.18,0.078-0.31,0.189-0.41,0.336
	c-0.1,0.145-0.15,0.312-0.15,0.5c0,0.281,0.11,0.515,0.32,0.703c0.21,0.187,0.52,0.28,0.93,0.28c0.4,0,0.77-0.089,1.08-0.266
	c0.32-0.177,0.55-0.421,0.7-0.734c0.11-0.239,0.17-0.589,0.17-1.047V128.475L43.53,128.475z M45.81,129.739l1.041-0.155
	c0.06,0.417,0.22,0.733,0.49,0.952c0.26,0.22,0.64,0.328,1.13,0.328c0.48,0,0.84-0.096,1.07-0.289c0.24-0.192,0.35-0.424,0.35-0.694
	c0-0.24-0.1-0.428-0.31-0.563c-0.15-0.093-0.5-0.213-1.08-0.358c-0.77-0.198-1.3-0.367-1.6-0.509c-0.3-0.141-0.52-0.336-0.68-0.585
	c-0.16-0.25-0.23-0.531-0.23-0.845c0-0.27,0.06-0.526,0.18-0.765c0.13-0.24,0.3-0.438,0.52-0.594c0.17-0.115,0.39-0.214,0.67-0.297
	c0.28-0.083,0.59-0.125,0.92-0.125c0.48,0,0.91,0.07,1.28,0.211c0.371,0.141,0.641,0.331,0.82,0.57c0.17,0.24,0.29,0.558,0.36,0.954
	l-1.03,0.141c-0.05-0.313-0.18-0.561-0.4-0.743c-0.23-0.182-0.55-0.273-0.96-0.273c-0.48,0-0.831,0.08-1.041,0.242
	c-0.2,0.161-0.31,0.351-0.31,0.57c0,0.135,0.04,0.254,0.13,0.359c0.09,0.115,0.23,0.209,0.4,0.282c0.11,0.041,0.42,0.13,0.94,0.265
	c0.75,0.209,1.27,0.375,1.56,0.5c0.3,0.125,0.52,0.309,0.69,0.547c0.17,0.24,0.25,0.542,0.25,0.906c0,0.355-0.1,0.685-0.3,0.993
	c-0.21,0.307-0.5,0.546-0.89,0.718c-0.38,0.172-0.82,0.258-1.31,0.258c-0.81,0-1.43-0.169-1.85-0.508
	C46.2,130.894,45.93,130.396,45.81,129.739L45.81,129.739z M51.81,129.739l1.041-0.155c0.06,0.417,0.22,0.733,0.49,0.952
	c0.26,0.22,0.64,0.328,1.13,0.328c0.48,0,0.84-0.096,1.07-0.289c0.24-0.192,0.35-0.424,0.35-0.694c0-0.24-0.1-0.428-0.31-0.563
	c-0.15-0.093-0.5-0.213-1.08-0.358c-0.77-0.198-1.3-0.367-1.6-0.509c-0.3-0.141-0.52-0.336-0.68-0.585
	c-0.16-0.25-0.23-0.531-0.23-0.845c0-0.27,0.06-0.526,0.18-0.765c0.13-0.24,0.3-0.438,0.52-0.594c0.17-0.115,0.39-0.214,0.67-0.297
	c0.28-0.083,0.59-0.125,0.92-0.125c0.48,0,0.91,0.07,1.28,0.211c0.371,0.141,0.641,0.331,0.82,0.57c0.17,0.24,0.29,0.558,0.36,0.954
	l-1.03,0.141c-0.05-0.313-0.18-0.561-0.4-0.743c-0.23-0.182-0.55-0.273-0.96-0.273c-0.48,0-0.831,0.08-1.041,0.242
	c-0.2,0.161-0.31,0.351-0.31,0.57c0,0.135,0.04,0.254,0.13,0.359c0.09,0.115,0.23,0.209,0.4,0.282c0.11,0.041,0.42,0.13,0.94,0.265
	c0.75,0.209,1.27,0.375,1.56,0.5c0.3,0.125,0.52,0.309,0.69,0.547c0.17,0.24,0.25,0.542,0.25,0.906c0,0.355-0.1,0.685-0.3,0.993
	c-0.21,0.307-0.5,0.546-0.89,0.718c-0.38,0.172-0.82,0.258-1.31,0.258c-0.81,0-1.43-0.169-1.85-0.508
	C52.2,130.894,51.93,130.396,51.81,129.739L51.81,129.739z M58.24,124.225v-1.219h1.06v1.219H58.24L58.24,124.225z M58.24,131.6
	v-6.219h1.06v6.219H58.24L58.24,131.6z M60.7,132.114l1.03,0.156c0.04,0.313,0.16,0.542,0.36,0.688
	c0.26,0.197,0.61,0.297,1.06,0.297c0.49,0,0.87-0.1,1.14-0.297c0.26-0.198,0.44-0.47,0.53-0.813c0.07-0.218,0.09-0.671,0.08-1.359
	c-0.46,0.542-1.03,0.813-1.72,0.813c-0.85,0-1.51-0.311-1.98-0.93c-0.47-0.62-0.7-1.357-0.7-2.211c0-0.594,0.1-1.144,0.32-1.649
	c0.21-0.505,0.52-0.893,0.93-1.164c0.4-0.27,0.88-0.406,1.43-0.406c0.74,0,1.35,0.297,1.83,0.891v-0.75h0.97v5.375
	c0,0.969-0.1,1.655-0.3,2.062c-0.19,0.407-0.51,0.728-0.93,0.961c-0.43,0.235-0.96,0.353-1.58,0.353c-0.74,0-1.34-0.167-1.8-0.5
	C60.91,133.297,60.69,132.792,60.7,132.114L60.7,132.114z M61.57,128.381c0,0.812,0.17,1.405,0.49,1.78
	c0.32,0.375,0.729,0.563,1.22,0.563s0.9-0.188,1.22-0.563c0.33-0.375,0.5-0.958,0.5-1.75c0-0.76-0.17-1.333-0.51-1.719
	c-0.34-0.385-0.75-0.578-1.23-0.578c-0.47,0-0.87,0.19-1.19,0.57C61.74,127.065,61.57,127.631,61.57,128.381L61.57,128.381z
	 M67.58,131.6v-6.219h0.93v0.875c0.46-0.677,1.12-1.016,1.99-1.016c0.37,0,0.72,0.068,1.04,0.203c0.32,0.136,0.55,0.313,0.71,0.532
	c0.15,0.218,0.26,0.473,0.33,0.765c0.03,0.198,0.04,0.542,0.04,1.031v3.829h-1.04v-3.782c0-0.437-0.05-0.76-0.13-0.968
	c-0.08-0.209-0.229-0.378-0.44-0.508c-0.2-0.131-0.45-0.196-0.73-0.196c-0.45,0-0.84,0.144-1.16,0.43
	c-0.331,0.287-0.5,0.826-0.5,1.617v3.407H67.58L67.58,131.6z M78.5,129.6l1.09,0.125c-0.16,0.635-0.48,1.13-0.95,1.484
	c-0.47,0.354-1.06,0.53-1.78,0.53c-0.91,0-1.63-0.28-2.16-0.844c-0.54-0.562-0.81-1.349-0.81-2.359c0-1.042,0.27-1.852,0.81-2.43
	c0.55-0.578,1.24-0.867,2.1-0.867c0.83,0,1.51,0.281,2.04,0.844c0.52,0.562,0.79,1.359,0.79,2.391c0,0.062,0,0.156,0,0.281h-4.65
	c0.05,0.687,0.24,1.211,0.58,1.569c0.35,0.359,0.78,0.539,1.3,0.539c0.39,0,0.72-0.101,0.99-0.305
	C78.13,130.356,78.34,130.036,78.5,129.6L78.5,129.6z M75.05,127.896h3.47c-0.05-0.53-0.18-0.927-0.39-1.187
	c-0.35-0.406-0.79-0.609-1.32-0.609c-0.49,0-0.9,0.161-1.22,0.484C75.26,126.907,75.08,127.344,75.05,127.896L75.05,127.896z
	 M84.96,131.6v-0.782c-0.4,0.615-0.98,0.922-1.74,0.922c-0.5,0-0.96-0.138-1.371-0.414c-0.419-0.275-0.74-0.658-0.97-1.147
	c-0.23-0.49-0.35-1.052-0.35-1.688c0-0.614,0.11-1.177,0.32-1.687c0.2-0.511,0.52-0.899,0.93-1.164
	c0.42-0.266,0.88-0.399,1.39-0.399c0.38,0,0.71,0.078,1,0.235c0.3,0.156,0.54,0.359,0.72,0.609v-3.078h1.05v8.594H84.96L84.96,131.6
	z M81.63,128.489c0,0.803,0.16,1.399,0.5,1.789c0.33,0.392,0.73,0.586,1.18,0.586c0.46,0,0.851-0.187,1.18-0.562
	c0.32-0.375,0.48-0.948,0.48-1.719c0-0.854-0.161-1.479-0.49-1.875c-0.33-0.396-0.73-0.594-1.21-0.594c-0.47,0-0.86,0.19-1.17,0.57
	C81.78,127.065,81.63,127.666,81.63,128.489L81.63,128.489z"/>
<path fill="#404040" d="M27.56,138.926v-1.219h1.06v1.219H27.56L27.56,138.926z M27.56,146.301v-6.219h1.06v6.219H27.56
	L27.56,146.301z M30.22,146.301v-6.219h0.94v0.875c0.46-0.678,1.12-1.017,1.98-1.017c0.38,0,0.73,0.068,1.04,0.203
	c0.32,0.136,0.56,0.313,0.71,0.532c0.16,0.218,0.27,0.474,0.33,0.765c0.03,0.198,0.05,0.542,0.05,1.032v3.828h-1.05v-3.782
	c0-0.437-0.04-0.76-0.12-0.968c-0.09-0.209-0.23-0.378-0.44-0.508c-0.21-0.131-0.45-0.195-0.73-0.195c-0.45,0-0.84,0.143-1.17,0.429
	c-0.33,0.287-0.49,0.826-0.49,1.617v3.407H30.22L30.22,146.301z M36.47,144.44l1.04-0.156c0.06,0.417,0.22,0.734,0.49,0.953
	c0.26,0.22,0.64,0.328,1.13,0.328c0.48,0,0.84-0.096,1.07-0.289c0.24-0.191,0.35-0.424,0.35-0.694c0-0.24-0.1-0.428-0.31-0.563
	c-0.15-0.093-0.5-0.213-1.08-0.359c-0.77-0.197-1.3-0.366-1.601-0.508c-0.3-0.14-0.52-0.336-0.68-0.586
	c-0.16-0.25-0.23-0.531-0.23-0.843c0-0.271,0.06-0.526,0.18-0.766c0.13-0.24,0.3-0.438,0.52-0.595c0.17-0.113,0.39-0.213,0.67-0.297
	c0.28-0.083,0.59-0.125,0.92-0.125c0.48,0,0.91,0.071,1.28,0.211c0.37,0.142,0.64,0.331,0.82,0.571
	c0.17,0.239,0.291,0.557,0.36,0.953l-1.03,0.14c-0.05-0.312-0.18-0.56-0.4-0.742c-0.23-0.182-0.55-0.272-0.96-0.272
	c-0.48,0-0.83,0.08-1.04,0.242c-0.2,0.16-0.31,0.351-0.31,0.569c0,0.137,0.04,0.255,0.13,0.36c0.09,0.114,0.23,0.208,0.4,0.281
	c0.11,0.041,0.42,0.13,0.94,0.265c0.75,0.209,1.27,0.375,1.56,0.5c0.3,0.125,0.52,0.308,0.69,0.547c0.17,0.24,0.25,0.542,0.25,0.907
	c0,0.354-0.1,0.684-0.3,0.992c-0.21,0.307-0.5,0.547-0.89,0.719c-0.38,0.171-0.82,0.257-1.31,0.257c-0.81,0-1.43-0.169-1.85-0.507
	C36.86,145.595,36.59,145.098,36.47,144.44L36.47,144.44z M45.19,145.362l0.16,0.922c-0.3,0.063-0.57,0.095-0.8,0.095
	c-0.38,0-0.68-0.061-0.89-0.181c-0.21-0.12-0.35-0.278-0.44-0.476c-0.09-0.198-0.14-0.615-0.14-1.25v-3.579h-0.76v-0.812h0.76
	v-1.548l1.05-0.625v2.173h1.06v0.812h-1.06v3.641c0,0.303,0.02,0.495,0.06,0.578c0.03,0.084,0.09,0.151,0.18,0.203
	c0.08,0.052,0.2,0.078,0.35,0.078C44.85,145.394,45.01,145.384,45.19,145.362L45.19,145.362z M50.29,145.534
	c-0.39,0.333-0.77,0.568-1.13,0.703c-0.36,0.136-0.75,0.203-1.16,0.203c-0.69,0-1.22-0.166-1.58-0.5
	c-0.37-0.333-0.55-0.76-0.55-1.281c0-0.302,0.07-0.581,0.2-0.836c0.14-0.255,0.32-0.458,0.55-0.608
	c0.23-0.151,0.49-0.264,0.77-0.336c0.2-0.063,0.51-0.12,0.93-0.172c0.85-0.095,1.47-0.215,1.88-0.359c0-0.146,0-0.235,0-0.266
	c0-0.438-0.1-0.745-0.3-0.923c-0.27-0.229-0.67-0.344-1.2-0.344c-0.49,0-0.85,0.086-1.09,0.258c-0.24,0.172-0.42,0.478-0.54,0.914
	l-1.03-0.14c0.1-0.438,0.25-0.792,0.47-1.063c0.22-0.271,0.53-0.479,0.94-0.625c0.41-0.146,0.87-0.219,1.41-0.219
	c0.53,0,0.96,0.063,1.29,0.188c0.34,0.125,0.58,0.28,0.74,0.469c0.15,0.187,0.26,0.427,0.331,0.718c0.03,0.177,0.04,0.5,0.04,0.969
	v1.406c0,0.979,0.03,1.599,0.07,1.86c0.05,0.26,0.14,0.51,0.28,0.75H50.5C50.39,146.082,50.32,145.826,50.29,145.534L50.29,145.534z
	 M50.2,143.176c-0.39,0.156-0.96,0.291-1.72,0.406c-0.44,0.062-0.74,0.133-0.92,0.211c-0.18,0.077-0.32,0.189-0.42,0.336
	c-0.09,0.146-0.14,0.312-0.14,0.5c0,0.28,0.1,0.515,0.32,0.703c0.21,0.187,0.52,0.28,0.93,0.28c0.4,0,0.76-0.088,1.08-0.265
	c0.32-0.178,0.55-0.422,0.7-0.735c0.11-0.238,0.17-0.588,0.17-1.047V143.176L50.2,143.176z M52.9,146.301v-6.219h0.94v0.875
	c0.46-0.678,1.12-1.017,1.99-1.017c0.37,0,0.72,0.068,1.04,0.203c0.31,0.136,0.55,0.313,0.71,0.532
	c0.15,0.218,0.26,0.474,0.32,0.765c0.04,0.198,0.05,0.542,0.05,1.032v3.828H56.9v-3.782c0-0.437-0.04-0.76-0.12-0.968
	c-0.08-0.209-0.23-0.378-0.44-0.508c-0.21-0.131-0.45-0.195-0.73-0.195c-0.45,0-0.84,0.143-1.17,0.429
	c-0.32,0.287-0.49,0.826-0.49,1.617v3.407H52.9L52.9,146.301z M63.64,144.019l1.03,0.141c-0.11,0.708-0.4,1.267-0.87,1.673
	c-0.47,0.405-1.04,0.608-1.72,0.608c-0.86,0-1.541-0.278-2.06-0.836c-0.51-0.557-0.77-1.356-0.77-2.397
	c0-0.668,0.11-1.254,0.34-1.759c0.22-0.505,0.56-0.883,1.01-1.133c0.46-0.25,0.95-0.375,1.49-0.375c0.67,0,1.22,0.17,1.65,0.508
	c0.43,0.339,0.71,0.826,0.84,1.461l-1.03,0.156c-0.1-0.416-0.27-0.73-0.52-0.945c-0.25-0.214-0.55-0.319-0.9-0.319
	c-0.54,0-0.97,0.189-1.3,0.569c-0.33,0.381-0.5,0.982-0.5,1.806c0,0.843,0.16,1.453,0.479,1.828c0.331,0.375,0.74,0.562,1.25,0.562
	c0.42,0,0.77-0.125,1.04-0.375C63.38,144.94,63.56,144.551,63.64,144.019L63.64,144.019z M69.83,144.301l1.09,0.125
	c-0.16,0.635-0.48,1.13-0.95,1.483c-0.47,0.354-1.06,0.531-1.78,0.531c-0.91,0-1.63-0.281-2.17-0.843c-0.53-0.563-0.8-1.35-0.8-2.36
	c0-1.041,0.27-1.851,0.81-2.429c0.54-0.579,1.24-0.868,2.1-0.868c0.83,0,1.51,0.282,2.03,0.844c0.53,0.563,0.79,1.359,0.79,2.392
	c0,0.062,0,0.156,0,0.281h-4.64c0.04,0.687,0.24,1.211,0.58,1.569c0.34,0.36,0.78,0.539,1.3,0.539c0.38,0,0.71-0.101,0.99-0.304
	C69.46,145.059,69.67,144.737,69.83,144.301L69.83,144.301z M66.38,142.598h3.46c-0.04-0.532-0.17-0.928-0.39-1.188
	c-0.34-0.405-0.78-0.608-1.311-0.608c-0.49,0-0.9,0.161-1.229,0.483C66.59,141.607,66.41,142.045,66.38,142.598L66.38,142.598z"/>
<line fill="none" stroke="#000000" stroke-miterlimit="1.45" stroke-dasharray="6,2" x1="306.35" y1="139.363" x2="305.18" y2="204.328"/>
<polygon fill="#FFFFFF" points="304.911,219.325 311.2,203.438 299.2,203.221 "/>
<polygon fill="none" stroke="#000000" stroke-miterlimit="1.45" points="304.911,219.325 311.2,203.438 299.2,203.221 "/>
<path d="M264.85,181.042l1.141,0.172c-0.361,0.989-0.891,1.736-1.58,2.241c-0.68,0.506-1.451,0.759-2.311,0.759
	c-1.041,0-1.869-0.318-2.48-0.953c-0.6-0.636-0.91-1.547-0.91-2.734c0-1.542,0.461-2.823,1.391-3.844
	c0.83-0.896,1.869-1.344,3.09-1.344c0.91,0,1.65,0.245,2.211,0.733c0.559,0.49,0.889,1.146,0.979,1.97l-1.08,0.094
	c-0.1-0.625-0.33-1.089-0.68-1.392c-0.359-0.302-0.82-0.452-1.381-0.452c-1.049,0-1.898,0.464-2.549,1.391
	c-0.561,0.802-0.84,1.76-0.84,2.875c0,0.875,0.219,1.547,0.65,2.015c0.43,0.47,1,0.704,1.689,0.704c0.6,0,1.141-0.196,1.609-0.586
	C264.28,182.3,264.629,181.75,264.85,181.042L264.85,181.042z M266.69,184.072l1.301-6.218h0.93l-0.26,1.265
	c0.32-0.479,0.639-0.833,0.939-1.062c0.311-0.229,0.619-0.344,0.93-0.344c0.221,0,0.48,0.072,0.779,0.219l-0.43,0.984
	c-0.18-0.125-0.379-0.188-0.6-0.188c-0.369,0-0.75,0.205-1.15,0.617c-0.389,0.411-0.689,1.153-0.91,2.226l-0.529,2.5H266.69
	L266.69,184.072z M275.25,181.964l1.029,0.094c-0.15,0.51-0.49,0.997-1.02,1.461c-0.541,0.463-1.17,0.695-1.9,0.695
	c-0.471,0-0.9-0.107-1.279-0.32c-0.391-0.214-0.68-0.524-0.881-0.93c-0.199-0.406-0.299-0.87-0.299-1.392
	c0-0.677,0.158-1.336,0.469-1.976c0.32-0.642,0.721-1.115,1.221-1.422c0.5-0.308,1.039-0.461,1.629-0.461
	c0.74,0,1.33,0.229,1.77,0.688c0.441,0.458,0.662,1.088,0.662,1.891c0,0.302-0.021,0.614-0.07,0.938H272
	c-0.02,0.114-0.031,0.224-0.031,0.328c0,0.583,0.131,1.026,0.4,1.328s0.6,0.453,0.99,0.453c0.359,0,0.721-0.117,1.07-0.353
	C274.78,182.753,275.049,182.411,275.25,181.964L275.25,181.964z M272.17,180.417h3.479c0.012-0.114,0.021-0.193,0.021-0.234
	c0-0.531-0.131-0.938-0.4-1.219c-0.26-0.281-0.609-0.422-1.02-0.422c-0.461,0-0.881,0.155-1.25,0.469
	C272.62,179.322,272.35,179.792,272.17,180.417L272.17,180.417z M281.549,183.292c-0.369,0.322-0.719,0.557-1.061,0.702
	c-0.34,0.146-0.699,0.22-1.1,0.22c-0.57,0-1.029-0.169-1.379-0.509c-0.35-0.338-0.529-0.772-0.529-1.304
	c0-0.344,0.078-0.648,0.238-0.915c0.15-0.265,0.361-0.479,0.621-0.64c0.26-0.162,0.59-0.279,0.969-0.353
	c0.24-0.052,0.691-0.091,1.361-0.116c0.67-0.026,1.139-0.097,1.42-0.211c0.09-0.292,0.129-0.531,0.129-0.72
	c0-0.25-0.09-0.441-0.27-0.578c-0.25-0.197-0.609-0.297-1.08-0.297c-0.439,0-0.811,0.1-1.09,0.297
	c-0.279,0.198-0.49,0.479-0.619,0.845l-1.07-0.095c0.219-0.613,0.57-1.086,1.039-1.414c0.48-0.327,1.07-0.491,1.791-0.491
	c0.77,0,1.379,0.182,1.83,0.547c0.34,0.271,0.52,0.625,0.52,1.062c0,0.334-0.051,0.72-0.15,1.157l-0.34,1.547
	c-0.109,0.489-0.17,0.891-0.17,1.203c0,0.198,0.051,0.479,0.141,0.843h-1.08C281.61,183.864,281.571,183.604,281.549,183.292
	L281.549,183.292z M281.94,180.917c-0.15,0.063-0.311,0.109-0.48,0.141s-0.459,0.062-0.85,0.094
	c-0.619,0.052-1.051,0.122-1.311,0.21c-0.25,0.089-0.439,0.225-0.568,0.407c-0.131,0.182-0.201,0.383-0.201,0.601
	c0,0.303,0.109,0.548,0.311,0.735c0.209,0.188,0.5,0.281,0.879,0.281c0.352,0,0.691-0.091,1.01-0.274
	c0.33-0.182,0.58-0.439,0.771-0.772C281.69,182.006,281.831,181.531,281.94,180.917L281.94,180.917z M286.5,183.214l-0.17,0.858
	c-0.25,0.073-0.5,0.11-0.73,0.11c-0.43,0-0.77-0.104-1.02-0.313c-0.191-0.155-0.281-0.369-0.281-0.64
	c0-0.136,0.051-0.448,0.15-0.938l0.75-3.625h-0.82l0.17-0.813h0.83l0.32-1.532l1.211-0.733l-0.471,2.266h1.051l-0.182,0.813h-1.039
	l-0.721,3.438c-0.1,0.438-0.139,0.703-0.139,0.797c0,0.125,0.029,0.218,0.109,0.281c0.07,0.062,0.189,0.094,0.359,0.094
	C286.12,183.276,286.319,183.256,286.5,183.214L286.5,183.214z M291.93,181.964l1.029,0.094c-0.15,0.51-0.49,0.997-1.02,1.461
	c-0.541,0.463-1.17,0.695-1.9,0.695c-0.469,0-0.9-0.107-1.279-0.32c-0.391-0.214-0.68-0.524-0.881-0.93
	c-0.199-0.406-0.289-0.87-0.289-1.392c0-0.677,0.15-1.336,0.459-1.976c0.32-0.642,0.721-1.115,1.221-1.422
	c0.5-0.308,1.039-0.461,1.631-0.461c0.738,0,1.33,0.229,1.77,0.688c0.439,0.458,0.67,1.088,0.67,1.891
	c0,0.302-0.031,0.614-0.08,0.938h-4.58c-0.02,0.114-0.029,0.224-0.029,0.328c0,0.583,0.129,1.026,0.398,1.328
	c0.281,0.302,0.602,0.453,0.99,0.453c0.361,0,0.721-0.117,1.07-0.353C291.459,182.753,291.731,182.411,291.93,181.964
	L291.93,181.964z M288.85,180.417h3.49c0.01-0.114,0.01-0.193,0.01-0.234c0-0.531-0.131-0.938-0.4-1.219
	c-0.26-0.281-0.6-0.422-1.02-0.422c-0.461,0-0.881,0.155-1.25,0.469C289.299,179.322,289.03,179.792,288.85,180.417L288.85,180.417z
	"/>
<polyline fill="none" stroke="#000000" stroke-miterlimit="1.45" points="326.219,219.338 326.639,219.105 333.581,215.131 
	340.11,211.132 346.11,207.102 351.491,203.035 356.139,198.927 359.95,194.77 362.831,190.558 364.67,186.285 365.36,181.945 
	364.84,177.535 363.17,173.058 360.45,168.52 356.799,163.927 352.319,159.285 347.11,154.602 341.27,149.882 334.92,145.131 
	332.469,143.406 332.389,143.351 "/>
<polygon points="326.649,139.344 335.25,139.251 338.129,147.357 329.53,147.45 "/>
<path d="M377.2,177.06l1.141,0.172c-0.371,0.99-0.891,1.737-1.58,2.242s-1.461,0.758-2.311,0.758c-1.039,0-1.869-0.318-2.48-0.953
	c-0.609-0.636-0.91-1.547-0.91-2.734c0-1.541,0.461-2.822,1.391-3.844c0.83-0.896,1.859-1.344,3.09-1.344
	c0.91,0,1.641,0.245,2.211,0.734c0.559,0.489,0.889,1.146,0.98,1.969l-1.082,0.094c-0.1-0.625-0.328-1.089-0.689-1.391
	c-0.35-0.302-0.811-0.453-1.369-0.453c-1.051,0-1.9,0.464-2.551,1.391c-0.559,0.803-0.84,1.761-0.84,2.875
	c0,0.875,0.211,1.548,0.65,2.016c0.43,0.469,0.99,0.703,1.689,0.703c0.6,0,1.131-0.195,1.609-0.585
	C376.629,178.317,376.981,177.768,377.2,177.06L377.2,177.06z M379.04,180.091l1.779-8.594h1.061l-0.689,3.297
	c0.4-0.375,0.77-0.646,1.1-0.813c0.34-0.167,0.691-0.25,1.061-0.25c0.51,0,0.91,0.135,1.189,0.406c0.291,0.271,0.43,0.63,0.43,1.078
	c0,0.219-0.059,0.62-0.18,1.203l-0.77,3.672h-1.061l0.791-3.766c0.119-0.552,0.18-0.896,0.18-1.031c0-0.208-0.07-0.375-0.211-0.5
	c-0.139-0.125-0.35-0.188-0.619-0.188c-0.391,0-0.75,0.099-1.1,0.297c-0.34,0.198-0.611,0.472-0.811,0.82
	c-0.201,0.349-0.381,0.914-0.541,1.695l-0.568,2.672H379.04L379.04,180.091z M387.209,172.7l0.25-1.203h1.061l-0.26,1.203H387.209
	L387.209,172.7z M385.661,180.091l1.299-6.218h1.061l-1.289,6.218H385.661L385.661,180.091z M388.28,180.091l1.801-8.594h1.059
	l-1.799,8.594H388.28L388.28,180.091z M395.231,179.185c-0.602,0.698-1.23,1.047-1.891,1.047c-0.59,0-1.09-0.219-1.48-0.656
	s-0.58-1.067-0.58-1.891c0-0.76,0.15-1.453,0.461-2.078c0.299-0.625,0.689-1.094,1.16-1.406c0.469-0.313,0.939-0.469,1.408-0.469
	c0.771,0,1.352,0.37,1.75,1.109l0.701-3.344h1.049l-1.779,8.594h-0.99L395.231,179.185L395.231,179.185z M392.321,177.481
	c0,0.438,0.049,0.781,0.139,1.031c0.08,0.25,0.23,0.459,0.43,0.625c0.211,0.167,0.451,0.25,0.75,0.25c0.471,0,0.91-0.25,1.311-0.75
	c0.52-0.666,0.781-1.489,0.781-2.469c0-0.489-0.131-0.872-0.391-1.148s-0.58-0.414-0.971-0.414c-0.25,0-0.48,0.055-0.699,0.164
	c-0.211,0.109-0.42,0.3-0.621,0.57c-0.199,0.271-0.379,0.618-0.52,1.039C392.389,176.802,392.321,177.169,392.321,177.481
	L392.321,177.481z M397.719,180.091l1.291-6.218h0.939l-0.27,1.265c0.33-0.479,0.639-0.833,0.949-1.063
	c0.311-0.229,0.621-0.344,0.93-0.344c0.221,0,0.48,0.073,0.781,0.219l-0.439,0.984c-0.17-0.125-0.371-0.187-0.592-0.187
	c-0.379,0-0.76,0.204-1.148,0.616c-0.391,0.411-0.691,1.153-0.91,2.227l-0.531,2.5H397.719L397.719,180.091z M406.27,177.981
	l1.039,0.094c-0.148,0.511-0.488,0.997-1.029,1.461c-0.529,0.464-1.17,0.695-1.9,0.695c-0.469,0-0.891-0.106-1.279-0.32
	c-0.381-0.214-0.67-0.523-0.871-0.93c-0.199-0.406-0.299-0.87-0.299-1.391c0-0.678,0.16-1.336,0.469-1.977
	c0.311-0.641,0.721-1.114,1.221-1.422c0.5-0.307,1.041-0.461,1.621-0.461c0.738,0,1.33,0.229,1.779,0.688
	c0.439,0.459,0.66,1.089,0.66,1.891c0,0.302-0.031,0.615-0.08,0.938h-4.58c-0.02,0.113-0.029,0.224-0.029,0.327
	c0,0.583,0.139,1.026,0.41,1.328c0.27,0.302,0.6,0.453,0.979,0.453c0.371,0,0.73-0.117,1.07-0.352
	C405.799,178.771,406.081,178.43,406.27,177.981L406.27,177.981z M403.2,176.435h3.48c0.01-0.114,0.02-0.193,0.02-0.234
	c0-0.531-0.141-0.938-0.4-1.219c-0.27-0.281-0.609-0.422-1.029-0.422c-0.451,0-0.869,0.156-1.25,0.469
	C403.651,175.341,403.37,175.81,403.2,176.435L403.2,176.435z M408.389,180.091l1.291-6.218h0.959l-0.219,1.077
	c0.41-0.427,0.799-0.736,1.17-0.93c0.359-0.193,0.729-0.289,1.109-0.289c0.5,0,0.891,0.135,1.18,0.406
	c0.281,0.271,0.43,0.636,0.43,1.094c0,0.229-0.049,0.594-0.139,1.094l-0.801,3.766h-1.061l0.83-3.938
	c0.08-0.386,0.121-0.672,0.121-0.859c0-0.208-0.07-0.375-0.211-0.5c-0.139-0.125-0.35-0.188-0.619-0.188
	c-0.541,0-1.02,0.195-1.449,0.586c-0.432,0.392-0.742,1.061-0.941,2.008l-0.609,2.891H408.389L408.389,180.091z"/>
<path d="M373.2,191.761l1.141,0.172c-0.371,0.99-0.891,1.737-1.58,2.242c-0.689,0.506-1.461,0.758-2.311,0.758
	c-1.051,0-1.869-0.318-2.48-0.953c-0.609-0.635-0.91-1.547-0.91-2.734c0-1.542,0.461-2.822,1.391-3.844
	c0.83-0.896,1.859-1.344,3.09-1.344c0.91,0,1.641,0.245,2.201,0.735c0.568,0.488,0.889,1.145,0.99,1.968l-1.08,0.094
	c-0.102-0.625-0.332-1.089-0.691-1.391c-0.35-0.303-0.809-0.453-1.369-0.453c-1.061,0-1.9,0.464-2.551,1.391
	c-0.561,0.802-0.84,1.76-0.84,2.875c0,0.875,0.211,1.547,0.641,2.017c0.439,0.468,1,0.702,1.699,0.702
	c0.59,0,1.131-0.195,1.611-0.586C372.629,193.019,372.979,192.47,373.2,191.761L373.2,191.761z M375.219,192.433
	c0-1.219,0.361-2.224,1.061-3.015c0.6-0.657,1.369-0.985,2.33-0.985c0.75,0,1.359,0.235,1.811,0.703
	c0.459,0.469,0.689,1.099,0.689,1.891c0,0.719-0.141,1.385-0.439,2c-0.291,0.614-0.701,1.086-1.23,1.414s-1.09,0.492-1.689,0.492
	c-0.48,0-0.91-0.104-1.311-0.313c-0.4-0.209-0.701-0.503-0.91-0.883C375.331,193.357,375.219,192.923,375.219,192.433
	L375.219,192.433z M376.27,192.323c0,0.583,0.141,1.026,0.42,1.328s0.641,0.453,1.08,0.453c0.23,0,0.449-0.044,0.68-0.133
	c0.221-0.088,0.43-0.227,0.621-0.414c0.18-0.188,0.34-0.401,0.479-0.64c0.141-0.24,0.24-0.5,0.33-0.782
	c0.121-0.385,0.189-0.755,0.189-1.109c0-0.563-0.148-1-0.43-1.313c-0.289-0.313-0.648-0.469-1.07-0.469
	c-0.34,0-0.639,0.08-0.908,0.242c-0.271,0.161-0.521,0.394-0.74,0.695c-0.23,0.302-0.391,0.656-0.5,1.063
	C376.319,191.651,376.27,192.011,376.27,192.323L376.27,192.323z M381.61,194.793l1.801-8.595h1.059l-1.789,8.595H381.61
	L381.61,194.793z M384.28,194.793l1.801-8.595h1.059l-1.799,8.595H384.28L384.28,194.793z M391.6,192.683l1.029,0.094
	c-0.139,0.51-0.479,0.997-1.02,1.461c-0.539,0.463-1.17,0.695-1.9,0.695c-0.471,0-0.889-0.107-1.279-0.32
	c-0.381-0.214-0.68-0.523-0.871-0.93c-0.199-0.406-0.299-0.87-0.299-1.39c0-0.679,0.15-1.336,0.471-1.978
	c0.309-0.641,0.719-1.115,1.219-1.422s1.039-0.461,1.619-0.461c0.74,0,1.33,0.229,1.771,0.688c0.449,0.458,0.67,1.089,0.67,1.891
	c0,0.302-0.029,0.615-0.08,0.938h-4.58c-0.02,0.114-0.031,0.225-0.031,0.328c0,0.583,0.141,1.026,0.41,1.328
	c0.271,0.302,0.602,0.453,0.98,0.453c0.371,0,0.721-0.117,1.07-0.351C391.129,193.472,391.401,193.131,391.6,192.683L391.6,192.683z
	 M388.52,191.136h3.49c0.01-0.114,0.01-0.192,0.01-0.234c0-0.531-0.131-0.938-0.391-1.219c-0.27-0.281-0.609-0.422-1.029-0.422
	c-0.461,0-0.869,0.157-1.25,0.469C388.981,190.043,388.7,190.511,388.52,191.136L388.52,191.136z M398,192.526l1.059,0.109
	c-0.26,0.782-0.639,1.359-1.129,1.734s-1.041,0.563-1.67,0.563c-0.68,0-1.23-0.219-1.65-0.656s-0.631-1.047-0.631-1.828
	c0-0.688,0.131-1.359,0.41-2.016c0.271-0.656,0.65-1.153,1.15-1.492s1.07-0.508,1.721-0.508c0.67,0,1.199,0.188,1.59,0.563
	s0.58,0.875,0.58,1.5l-1.029,0.063c-0.012-0.396-0.131-0.703-0.352-0.922c-0.219-0.218-0.52-0.328-0.879-0.328
	c-0.432,0-0.801,0.133-1.111,0.399c-0.309,0.265-0.559,0.674-0.738,1.226c-0.17,0.552-0.262,1.078-0.262,1.578
	c0,0.532,0.111,0.93,0.352,1.196c0.229,0.265,0.52,0.397,0.869,0.397c0.34,0,0.67-0.13,0.98-0.391S397.821,193.058,398,192.526
	L398,192.526z M402.18,193.933l-0.17,0.86c-0.25,0.071-0.49,0.108-0.73,0.108c-0.43,0-0.77-0.104-1.02-0.313
	c-0.189-0.156-0.281-0.369-0.281-0.641c0-0.136,0.051-0.447,0.16-0.938l0.75-3.625h-0.83l0.172-0.813h0.828l0.33-1.53l1.201-0.735
	l-0.471,2.266h1.051l-0.17,0.813h-1.051l-0.719,3.438c-0.092,0.438-0.141,0.703-0.141,0.797c0,0.125,0.039,0.219,0.109,0.281
	s0.189,0.094,0.359,0.094C401.799,193.995,402.01,193.975,402.18,193.933L402.18,193.933z M404.549,187.401l0.25-1.203h1.061
	l-0.27,1.203H404.549L404.549,187.401z M403,194.793l1.299-6.22h1.061l-1.301,6.22H403L403,194.793z M405.901,192.433
	c0-1.219,0.359-2.224,1.059-3.015c0.6-0.657,1.371-0.985,2.33-0.985c0.75,0,1.359,0.235,1.811,0.703
	c0.459,0.469,0.689,1.099,0.689,1.891c0,0.719-0.139,1.385-0.439,2c-0.291,0.614-0.701,1.086-1.23,1.414s-1.09,0.492-1.689,0.492
	c-0.48,0-0.91-0.104-1.311-0.313c-0.4-0.209-0.699-0.503-0.91-0.883C406.01,193.357,405.901,192.923,405.901,192.433
	L405.901,192.433z M406.95,192.323c0,0.583,0.141,1.026,0.42,1.328s0.641,0.453,1.08,0.453c0.23,0,0.451-0.044,0.68-0.133
	c0.221-0.088,0.43-0.227,0.621-0.414c0.18-0.188,0.34-0.401,0.48-0.64c0.129-0.24,0.238-0.5,0.328-0.782
	c0.121-0.385,0.191-0.755,0.191-1.109c0-0.563-0.15-1-0.43-1.313c-0.291-0.313-0.65-0.469-1.07-0.469c-0.34,0-0.641,0.08-0.91,0.242
	c-0.27,0.161-0.521,0.394-0.74,0.695c-0.23,0.302-0.391,0.656-0.5,1.063C407,191.651,406.95,192.011,406.95,192.323L406.95,192.323z
	 M412.389,194.793l1.291-6.22h0.959l-0.219,1.078c0.42-0.427,0.811-0.737,1.17-0.93c0.369-0.192,0.74-0.289,1.109-0.289
	c0.5,0,0.891,0.136,1.18,0.406c0.291,0.271,0.43,0.636,0.43,1.094c0,0.229-0.049,0.594-0.139,1.094l-0.801,3.767h-1.061l0.83-3.938
	c0.08-0.385,0.121-0.672,0.121-0.859c0-0.209-0.07-0.375-0.211-0.5c-0.139-0.125-0.34-0.188-0.619-0.188
	c-0.541,0-1.02,0.195-1.451,0.586c-0.43,0.391-0.738,1.06-0.939,2.008l-0.609,2.892H412.389L412.389,194.793z"/>
<polyline fill="none" stroke="#000000" stroke-miterlimit="1.45" points="327.02,114.372 328.76,113.372 335.731,109.167 
	342.28,104.954 348.299,100.727 353.68,96.484 358.319,92.224 362.12,87.941 364.959,83.637 366.739,79.305 367.36,74.945 
	366.739,70.555 364.959,66.137 362.12,61.691 358.319,57.223 353.68,52.734 348.299,48.227 342.28,43.704 335.731,39.168 
	334.309,38.243 334.231,38.19 "/>
<polygon points="328.36,34.371 336.959,34 340.09,42.009 331.5,42.38 "/>
<path d="M379.29,70.607l1.141,0.172c-0.371,0.99-0.891,1.737-1.58,2.242c-0.689,0.505-1.461,0.758-2.311,0.758
	c-1.039,0-1.869-0.317-2.48-0.953c-0.609-0.635-0.91-1.547-0.91-2.734c0-1.542,0.461-2.823,1.391-3.844
	c0.83-0.896,1.861-1.344,3.09-1.344c0.91,0,1.641,0.245,2.201,0.734c0.57,0.49,0.9,1.146,0.988,1.969l-1.078,0.094
	c-0.102-0.625-0.33-1.088-0.691-1.391c-0.35-0.302-0.809-0.453-1.369-0.453c-1.051,0-1.9,0.464-2.551,1.391
	c-0.559,0.802-0.84,1.761-0.84,2.875c0,0.875,0.211,1.547,0.65,2.016c0.43,0.469,0.99,0.703,1.689,0.703
	c0.602,0,1.131-0.195,1.611-0.586C378.719,71.865,379.071,71.316,379.29,70.607L379.29,70.607z M381.129,73.639l1.781-8.594h1.059
	l-0.689,3.297c0.4-0.375,0.77-0.646,1.1-0.813c0.34-0.167,0.691-0.25,1.061-0.25c0.51,0,0.91,0.136,1.189,0.406
	c0.291,0.271,0.43,0.63,0.43,1.078c0,0.219-0.059,0.62-0.18,1.203l-0.77,3.672h-1.061l0.791-3.766
	c0.119-0.552,0.18-0.896,0.18-1.031c0-0.208-0.07-0.375-0.211-0.5c-0.148-0.125-0.35-0.188-0.619-0.188
	c-0.391,0-0.75,0.099-1.1,0.297c-0.34,0.198-0.611,0.472-0.811,0.82c-0.199,0.349-0.381,0.914-0.539,1.695l-0.57,2.672H381.129
	L381.129,73.639z M389.299,66.248l0.25-1.203h1.061l-0.26,1.203H389.299L389.299,66.248z M387.75,73.639l1.299-6.219h1.061
	l-1.289,6.219H387.75L387.75,73.639z M390.37,73.639l1.801-8.594h1.059l-1.799,8.594H390.37L390.37,73.639z M397.319,72.732
	c-0.6,0.698-1.238,1.047-1.889,1.047c-0.6,0-1.09-0.219-1.48-0.656s-0.58-1.067-0.58-1.891c0-0.76,0.15-1.453,0.461-2.078
	c0.299-0.625,0.689-1.094,1.16-1.406c0.469-0.313,0.939-0.469,1.408-0.469c0.771,0,1.352,0.37,1.752,1.109l0.699-3.344h1.051
	l-1.781,8.594h-0.99L397.319,72.732L397.319,72.732z M394.411,71.029c0,0.438,0.049,0.781,0.139,1.031
	c0.08,0.25,0.23,0.458,0.432,0.625c0.209,0.167,0.449,0.25,0.75,0.25c0.469,0,0.908-0.25,1.309-0.75
	c0.52-0.667,0.781-1.489,0.781-2.469c0-0.489-0.131-0.872-0.391-1.148c-0.26-0.276-0.58-0.414-0.971-0.414
	c-0.25,0-0.479,0.055-0.699,0.164c-0.211,0.109-0.42,0.3-0.621,0.57c-0.199,0.271-0.379,0.617-0.52,1.039
	C394.481,70.35,394.411,70.717,394.411,71.029L394.411,71.029z M399.809,73.639l1.291-6.219h0.939l-0.27,1.266
	c0.33-0.479,0.641-0.833,0.949-1.063c0.311-0.229,0.621-0.344,0.932-0.344c0.219,0,0.479,0.073,0.779,0.219l-0.439,0.984
	c-0.17-0.125-0.371-0.188-0.59-0.188c-0.381,0-0.762,0.206-1.15,0.617c-0.391,0.412-0.691,1.154-0.91,2.227l-0.531,2.5H399.809
	L399.809,73.639z M408.36,71.529l1.041,0.094c-0.15,0.511-0.49,0.998-1.031,1.461c-0.529,0.464-1.17,0.695-1.9,0.695
	c-0.469,0-0.889-0.106-1.279-0.32c-0.381-0.213-0.67-0.523-0.869-0.93c-0.201-0.406-0.301-0.87-0.301-1.391
	c0-0.677,0.16-1.336,0.471-1.977c0.309-0.641,0.719-1.114,1.219-1.422c0.5-0.307,1.041-0.461,1.621-0.461
	c0.74,0,1.33,0.229,1.779,0.688c0.439,0.458,0.66,1.089,0.66,1.891c0,0.302-0.029,0.615-0.08,0.938h-4.58
	c-0.02,0.115-0.029,0.224-0.029,0.328c0,0.583,0.139,1.026,0.41,1.328c0.27,0.302,0.6,0.453,0.979,0.453
	c0.371,0,0.721-0.117,1.07-0.352S408.17,71.978,408.36,71.529L408.36,71.529z M405.29,69.982h3.48c0.01-0.114,0.02-0.192,0.02-0.234
	c0-0.531-0.139-0.938-0.4-1.219c-0.27-0.281-0.609-0.422-1.029-0.422c-0.449,0-0.871,0.156-1.25,0.469
	C405.739,68.889,405.459,69.357,405.29,69.982L405.29,69.982z M410.479,73.639l1.291-6.219h0.959l-0.219,1.078
	c0.41-0.427,0.799-0.737,1.17-0.93c0.359-0.192,0.73-0.289,1.109-0.289c0.5,0,0.891,0.136,1.18,0.406
	c0.281,0.271,0.432,0.636,0.432,1.094c0,0.229-0.051,0.594-0.141,1.094l-0.801,3.766h-1.061l0.832-3.938
	c0.078-0.385,0.119-0.672,0.119-0.859c0-0.208-0.07-0.375-0.211-0.5c-0.139-0.125-0.35-0.188-0.619-0.188
	c-0.539,0-1.02,0.195-1.451,0.586c-0.43,0.391-0.738,1.06-0.939,2.008l-0.609,2.891H410.479L410.479,73.639z"/>
<path d="M375.29,85.309l1.141,0.172c-0.371,0.99-0.891,1.737-1.58,2.242c-0.689,0.506-1.461,0.758-2.311,0.758
	c-1.049,0-1.869-0.318-2.48-0.953c-0.609-0.635-0.908-1.547-0.908-2.734c0-1.542,0.459-2.823,1.389-3.844
	c0.83-0.896,1.859-1.344,3.09-1.344c0.91,0,1.641,0.245,2.201,0.735c0.57,0.489,0.889,1.145,0.99,1.968l-1.082,0.094
	c-0.109-0.625-0.328-1.089-0.689-1.391c-0.35-0.302-0.811-0.453-1.369-0.453c-1.061,0-1.9,0.464-2.551,1.391
	c-0.559,0.802-0.84,1.76-0.84,2.875c0,0.875,0.211,1.547,0.641,2.016c0.439,0.468,1,0.703,1.699,0.703
	c0.59,0,1.131-0.196,1.609-0.586C374.719,86.566,375.071,86.018,375.29,85.309L375.29,85.309z M377.309,85.98
	c0-1.219,0.361-2.224,1.061-3.015c0.6-0.657,1.371-0.985,2.33-0.985c0.75,0,1.359,0.235,1.811,0.703
	c0.459,0.469,0.689,1.099,0.689,1.891c0,0.719-0.141,1.385-0.439,2c-0.291,0.614-0.701,1.086-1.23,1.414
	c-0.529,0.328-1.09,0.492-1.689,0.492c-0.48,0-0.91-0.104-1.311-0.312c-0.4-0.209-0.699-0.503-0.91-0.883
	C377.42,86.906,377.309,86.471,377.309,85.98L377.309,85.98z M378.36,85.872c0,0.583,0.141,1.026,0.42,1.328
	c0.279,0.302,0.641,0.453,1.08,0.453c0.23,0,0.449-0.044,0.68-0.133c0.221-0.088,0.43-0.226,0.621-0.414
	c0.18-0.187,0.34-0.401,0.479-0.64c0.131-0.24,0.24-0.5,0.33-0.782c0.121-0.385,0.191-0.755,0.191-1.109c0-0.563-0.15-1-0.43-1.313
	c-0.291-0.312-0.65-0.468-1.07-0.468c-0.34,0-0.641,0.08-0.91,0.242c-0.27,0.161-0.52,0.393-0.74,0.695
	c-0.23,0.302-0.391,0.656-0.5,1.063C378.411,85.2,378.36,85.559,378.36,85.872L378.36,85.872z M383.7,88.341l1.801-8.595h1.059
	l-1.789,8.595H383.7L383.7,88.341z M386.37,88.341l1.801-8.595h1.061l-1.801,8.595H386.37L386.37,88.341z M393.69,86.23l1.029,0.094
	c-0.139,0.51-0.479,0.997-1.02,1.461c-0.539,0.463-1.17,0.695-1.9,0.695c-0.469,0-0.889-0.107-1.279-0.32
	c-0.391-0.214-0.68-0.524-0.871-0.93c-0.199-0.406-0.299-0.87-0.299-1.39c0-0.678,0.15-1.336,0.469-1.977
	c0.311-0.641,0.721-1.115,1.221-1.422c0.5-0.307,1.041-0.461,1.621-0.461c0.738,0,1.33,0.229,1.77,0.688
	c0.449,0.458,0.67,1.088,0.67,1.89c0,0.302-0.031,0.615-0.08,0.938h-4.58c-0.02,0.114-0.029,0.224-0.029,0.328
	c0,0.583,0.139,1.026,0.41,1.328c0.27,0.302,0.6,0.453,0.979,0.453c0.371,0,0.721-0.117,1.07-0.351
	C393.219,87.02,393.491,86.679,393.69,86.23L393.69,86.23z M390.61,84.684h3.49c0.01-0.114,0.01-0.192,0.01-0.234
	c0-0.531-0.131-0.938-0.391-1.219c-0.27-0.281-0.609-0.422-1.029-0.422c-0.459,0-0.869,0.157-1.25,0.469
	C391.071,83.59,390.79,84.059,390.61,84.684L390.61,84.684z M400.081,86.075l1.07,0.109c-0.262,0.782-0.641,1.36-1.131,1.735
	s-1.039,0.562-1.67,0.562c-0.68,0-1.23-0.219-1.65-0.656c-0.42-0.438-0.629-1.047-0.629-1.828c0-0.688,0.129-1.36,0.41-2.016
	c0.27-0.656,0.648-1.154,1.148-1.492c0.5-0.339,1.07-0.508,1.721-0.508c0.67,0,1.199,0.188,1.59,0.563s0.58,0.875,0.58,1.5
	l-1.031,0.062c-0.008-0.396-0.129-0.703-0.35-0.922c-0.219-0.218-0.52-0.328-0.879-0.328c-0.43,0-0.801,0.133-1.109,0.399
	c-0.32,0.265-0.561,0.674-0.74,1.226c-0.17,0.552-0.262,1.078-0.262,1.578c0,0.532,0.111,0.93,0.352,1.196
	c0.229,0.265,0.52,0.398,0.869,0.398c0.34,0,0.67-0.13,0.98-0.391C399.661,87.001,399.911,86.605,400.081,86.075L400.081,86.075z
	 M404.27,87.48l-0.17,0.86c-0.25,0.072-0.49,0.109-0.73,0.109c-0.43,0-0.77-0.104-1.02-0.313c-0.189-0.156-0.279-0.369-0.279-0.64
	c0-0.136,0.049-0.448,0.158-0.938l0.75-3.625h-0.828l0.17-0.812h0.828l0.332-1.531l1.199-0.735l-0.471,2.266h1.051l-0.18,0.812
	h-1.041l-0.721,3.438c-0.088,0.437-0.139,0.703-0.139,0.797c0,0.125,0.039,0.218,0.109,0.281c0.07,0.062,0.191,0.094,0.361,0.094
	C403.889,87.543,404.1,87.522,404.27,87.48L404.27,87.48z M406.639,80.95l0.25-1.204h1.061l-0.27,1.204H406.639L406.639,80.95z
	 M405.09,88.341l1.299-6.219h1.061l-1.301,6.219H405.09L405.09,88.341z M407.989,85.98c0-1.219,0.361-2.224,1.061-3.015
	c0.602-0.657,1.371-0.985,2.33-0.985c0.75,0,1.361,0.235,1.811,0.703c0.459,0.469,0.689,1.099,0.689,1.891
	c0,0.719-0.139,1.385-0.439,2c-0.289,0.614-0.699,1.086-1.23,1.414c-0.529,0.328-1.09,0.492-1.689,0.492
	c-0.48,0-0.91-0.104-1.311-0.312c-0.4-0.209-0.699-0.503-0.91-0.883C408.1,86.906,407.989,86.471,407.989,85.98L407.989,85.98z
	 M409.04,85.872c0,0.583,0.141,1.026,0.42,1.328c0.281,0.302,0.641,0.453,1.08,0.453c0.23,0,0.449-0.044,0.68-0.133
	c0.221-0.088,0.432-0.226,0.611-0.414c0.189-0.187,0.35-0.401,0.488-0.64c0.131-0.24,0.24-0.5,0.332-0.782
	c0.119-0.385,0.18-0.755,0.18-1.109c0-0.563-0.141-1-0.42-1.313c-0.291-0.312-0.65-0.468-1.08-0.468c-0.33,0-0.631,0.08-0.9,0.242
	c-0.27,0.161-0.52,0.393-0.74,0.695c-0.23,0.302-0.391,0.656-0.5,1.063C409.09,85.2,409.04,85.559,409.04,85.872L409.04,85.872z
	 M414.481,88.341l1.289-6.219h0.961L416.51,83.2c0.42-0.427,0.811-0.737,1.17-0.93c0.369-0.193,0.73-0.289,1.109-0.289
	c0.5,0,0.891,0.136,1.18,0.406c0.291,0.271,0.43,0.636,0.43,1.094c0,0.229-0.049,0.594-0.139,1.094l-0.801,3.766h-1.059l0.83-3.938
	c0.078-0.385,0.119-0.672,0.119-0.859c0-0.209-0.07-0.375-0.211-0.5c-0.139-0.125-0.34-0.188-0.619-0.188
	c-0.541,0-1.02,0.195-1.449,0.586c-0.432,0.391-0.74,1.06-0.941,2.008l-0.609,2.891H414.481L414.481,88.341z"/>
<line fill="none" stroke="#000000" stroke-miterlimit="1.45" stroke-dasharray="6,2" x1="306.581" y1="34.416" x2="306.581" y2="99.378"/>
<polygon fill="#FFFFFF" points="306.581,114.378 312.581,98.378 300.581,98.378 "/>
<polygon fill="none" stroke="#000000" stroke-miterlimit="1.45" points="306.581,114.378 312.581,98.378 300.581,98.378 "/>
<path d="M267.299,76.109l1.131,0.297c-0.24,0.927-0.67,1.636-1.279,2.125c-0.621,0.49-1.371,0.734-2.271,0.734
	c-0.93,0-1.68-0.188-2.27-0.563c-0.58-0.375-1.02-0.919-1.32-1.633c-0.309-0.713-0.459-1.481-0.459-2.305
	c0-0.896,0.17-1.677,0.52-2.344c0.34-0.667,0.83-1.172,1.459-1.516c0.631-0.344,1.32-0.516,2.092-0.516
	c0.85,0,1.568,0.219,2.158,0.656c0.592,0.438,1,1.052,1.23,1.844l-1.129,0.266c-0.201-0.625-0.49-1.081-0.871-1.367
	c-0.379-0.286-0.85-0.43-1.43-0.43c-0.65,0-1.199,0.159-1.641,0.477c-0.449,0.318-0.76,0.742-0.939,1.273S262,74.193,262,74.766
	c0,0.729,0.109,1.365,0.33,1.906c0.209,0.542,0.539,0.948,0.99,1.219c0.449,0.271,0.93,0.406,1.469,0.406
	c0.631,0,1.17-0.182,1.611-0.547C266.85,77.386,267.151,76.839,267.299,76.109L267.299,76.109z M269.69,79.125v-6.219h0.949v0.938
	c0.24-0.438,0.461-0.727,0.66-0.867c0.211-0.141,0.43-0.211,0.682-0.211c0.359,0,0.719,0.109,1.078,0.328l-0.359,0.984
	c-0.26-0.156-0.51-0.234-0.76-0.234c-0.24,0-0.451,0.07-0.641,0.211c-0.18,0.141-0.309,0.336-0.379,0.586
	c-0.121,0.375-0.189,0.781-0.189,1.219v3.266H269.69L269.69,79.125z M277.95,77.125l1.09,0.125c-0.16,0.636-0.48,1.13-0.949,1.484
	c-0.471,0.354-1.061,0.531-1.781,0.531c-0.908,0-1.629-0.281-2.17-0.844c-0.529-0.563-0.799-1.349-0.799-2.359
	c0-1.042,0.27-1.852,0.809-2.43c0.541-0.578,1.24-0.867,2.102-0.867c0.83,0,1.51,0.281,2.029,0.844
	c0.529,0.563,0.791,1.359,0.791,2.391c0,0.063,0,0.156,0,0.281h-4.641c0.039,0.688,0.24,1.211,0.58,1.57s0.779,0.539,1.299,0.539
	c0.381,0,0.711-0.102,0.99-0.305C277.581,77.883,277.79,77.563,277.95,77.125L277.95,77.125z M274.5,75.422h3.459
	c-0.039-0.531-0.17-0.927-0.389-1.188c-0.34-0.406-0.781-0.609-1.311-0.609c-0.49,0-0.9,0.162-1.23,0.484
	C274.709,74.433,274.53,74.87,274.5,75.422L274.5,75.422z M284.43,78.359c-0.391,0.333-0.77,0.568-1.131,0.703
	c-0.359,0.136-0.75,0.203-1.16,0.203c-0.689,0-1.219-0.167-1.58-0.5c-0.369-0.333-0.549-0.76-0.549-1.281
	c0-0.302,0.07-0.581,0.209-0.836c0.131-0.255,0.311-0.458,0.541-0.609c0.23-0.151,0.49-0.263,0.77-0.336
	c0.201-0.063,0.51-0.12,0.939-0.172c0.84-0.094,1.461-0.213,1.871-0.359c0-0.146,0-0.234,0-0.266c0-0.438-0.102-0.745-0.301-0.922
	c-0.27-0.229-0.67-0.344-1.199-0.344c-0.49,0-0.852,0.086-1.09,0.258c-0.24,0.172-0.42,0.477-0.531,0.914l-1.039-0.141
	c0.1-0.438,0.25-0.792,0.471-1.063c0.219-0.271,0.529-0.479,0.939-0.625c0.41-0.146,0.879-0.219,1.41-0.219
	c0.529,0,0.959,0.063,1.289,0.188c0.34,0.125,0.58,0.281,0.74,0.469c0.15,0.188,0.26,0.427,0.33,0.719
	c0.029,0.177,0.039,0.5,0.039,0.969v1.406c0,0.979,0.031,1.599,0.07,1.859c0.051,0.261,0.141,0.511,0.281,0.75h-1.111
	C284.53,78.906,284.469,78.651,284.43,78.359L284.43,78.359z M284.34,76c-0.381,0.156-0.961,0.292-1.721,0.406
	c-0.439,0.063-0.74,0.133-0.92,0.211s-0.32,0.19-0.41,0.336c-0.1,0.146-0.15,0.313-0.15,0.5c0,0.281,0.1,0.516,0.32,0.703
	c0.211,0.188,0.521,0.281,0.93,0.281c0.4,0,0.771-0.088,1.08-0.266c0.32-0.177,0.551-0.422,0.701-0.734
	c0.109-0.239,0.17-0.588,0.17-1.047V76L284.34,76z M289.34,78.188l0.16,0.922c-0.301,0.063-0.57,0.094-0.801,0.094
	c-0.379,0-0.68-0.06-0.891-0.18c-0.209-0.12-0.359-0.278-0.439-0.477c-0.09-0.198-0.139-0.614-0.139-1.25v-3.578h-0.762v-0.813
	h0.762v-1.547l1.049-0.625v2.172h1.061v0.813h-1.061v3.641c0,0.302,0.02,0.495,0.051,0.578c0.039,0.083,0.1,0.151,0.18,0.203
	c0.09,0.052,0.209,0.078,0.359,0.078C289,78.219,289.161,78.208,289.34,78.188L289.34,78.188z M294.629,77.125l1.09,0.125
	c-0.16,0.636-0.479,1.13-0.949,1.484c-0.471,0.354-1.061,0.531-1.779,0.531c-0.91,0-1.631-0.281-2.16-0.844
	c-0.541-0.563-0.811-1.349-0.811-2.359c0-1.042,0.27-1.852,0.811-2.43c0.539-0.578,1.24-0.867,2.1-0.867
	c0.83,0,1.51,0.281,2.039,0.844c0.52,0.563,0.781,1.359,0.781,2.391c0,0.063,0,0.156,0,0.281h-4.641
	c0.051,0.688,0.24,1.211,0.58,1.57c0.35,0.359,0.779,0.539,1.301,0.539c0.379,0,0.719-0.102,0.99-0.305
	C294.26,77.883,294.469,77.563,294.629,77.125L294.629,77.125z M291.18,75.422h3.471c-0.051-0.531-0.182-0.927-0.4-1.188
	c-0.34-0.406-0.781-0.609-1.311-0.609c-0.49,0-0.9,0.162-1.221,0.484C291.389,74.433,291.209,74.87,291.18,75.422L291.18,75.422z"/>
<line fill="none" stroke="#000000" stroke-miterlimit="1.45" x1="271.03" y1="139.385" x2="195.69" y2="165.871"/>
<polygon points="189.08,168.192 194.03,161.154 202.29,163.55 197.35,170.589 "/>
<path d="M168.95,128.788l1.13-0.108l-0.02,0.313c0,0.323,0.08,0.622,0.24,0.898c0.15,0.276,0.41,0.49,0.75,0.641
	c0.35,0.151,0.77,0.227,1.26,0.227c0.69,0,1.209-0.151,1.57-0.453c0.36-0.302,0.54-0.646,0.54-1.031c0-0.271-0.09-0.516-0.28-0.734
	c-0.2-0.219-0.73-0.516-1.61-0.891c-0.68-0.292-1.13-0.516-1.37-0.672c-0.39-0.25-0.68-0.526-0.86-0.828
	c-0.19-0.302-0.28-0.646-0.28-1.031c0-0.438,0.12-0.834,0.36-1.188c0.25-0.354,0.6-0.625,1.06-0.812c0.47-0.188,1-0.282,1.59-0.282
	c0.7,0,1.29,0.118,1.77,0.352s0.82,0.547,1.04,0.937c0.22,0.391,0.33,0.763,0.33,1.118c0,0.031,0,0.088-0.01,0.171l-1.11,0.094
	c0-0.239-0.02-0.432-0.07-0.578c-0.07-0.229-0.19-0.427-0.36-0.594c-0.16-0.166-0.39-0.299-0.68-0.398
	c-0.28-0.099-0.6-0.149-0.96-0.149c-0.62,0-1.11,0.141-1.45,0.422c-0.27,0.219-0.41,0.506-0.41,0.86c0,0.208,0.06,0.396,0.17,0.562
	c0.11,0.167,0.31,0.328,0.6,0.485c0.2,0.114,0.68,0.338,1.44,0.671c0.61,0.282,1.04,0.5,1.28,0.657
	c0.31,0.198,0.55,0.445,0.72,0.742c0.16,0.297,0.25,0.633,0.25,1.008c0,0.469-0.14,0.898-0.42,1.289
	c-0.29,0.391-0.68,0.693-1.18,0.906c-0.5,0.214-1.07,0.32-1.71,0.32c-0.97,0-1.77-0.211-2.39-0.633S168.95,129.894,168.95,128.788
	L168.95,128.788z M178.99,130.711l-0.17,0.859c-0.25,0.073-0.5,0.109-0.74,0.109c-0.43,0-0.76-0.104-1.01-0.313
	c-0.19-0.156-0.29-0.37-0.29-0.641c0-0.135,0.06-0.448,0.16-0.938l0.75-3.625h-0.83l0.17-0.812h0.83l0.33-1.531l1.2-0.735
	l-0.46,2.266h1.04l-0.17,0.812h-1.05l-0.72,3.438c-0.09,0.438-0.14,0.703-0.14,0.797c0,0.125,0.04,0.219,0.11,0.281
	c0.08,0.063,0.2,0.094,0.36,0.094C178.6,130.773,178.81,130.753,178.99,130.711L178.99,130.711z M180.04,129.211
	c0-1.219,0.35-2.225,1.06-3.016c0.6-0.657,1.37-0.985,2.33-0.985c0.75,0,1.36,0.235,1.81,0.703c0.46,0.469,0.69,1.099,0.69,1.891
	c0,0.719-0.14,1.386-0.44,2c-0.29,0.615-0.7,1.086-1.23,1.414c-0.53,0.328-1.09,0.492-1.69,0.492c-0.48,0-0.91-0.104-1.31-0.313
	c-0.4-0.208-0.7-0.503-0.91-0.883S180.04,129.7,180.04,129.211L180.04,129.211z M181.09,129.102c0,0.583,0.14,1.026,0.42,1.328
	c0.28,0.302,0.64,0.453,1.08,0.453c0.23,0,0.45-0.044,0.68-0.133c0.22-0.089,0.431-0.227,0.61-0.414
	c0.19-0.188,0.35-0.401,0.49-0.641c0.13-0.24,0.24-0.5,0.33-0.781c0.12-0.386,0.18-0.756,0.18-1.109c0-0.563-0.14-1-0.43-1.312
	c-0.28-0.313-0.641-0.469-1.07-0.469c-0.33,0-0.63,0.081-0.9,0.242c-0.27,0.162-0.52,0.393-0.74,0.695
	c-0.23,0.302-0.39,0.656-0.5,1.063C181.14,128.43,181.09,128.788,181.09,129.102L181.09,129.102z M186.53,131.57l1.29-6.219h0.94
	l-0.26,1.266c0.32-0.48,0.63-0.834,0.94-1.063s0.62-0.344,0.93-0.344c0.22,0,0.48,0.073,0.78,0.219l-0.44,0.984
	c-0.17-0.125-0.37-0.187-0.59-0.187c-0.37,0-0.76,0.206-1.15,0.617c-0.39,0.412-0.69,1.153-0.91,2.227l-0.53,2.5H186.53
	L186.53,131.57z M195.09,129.461l1.03,0.094c-0.15,0.511-0.49,0.998-1.03,1.461c-0.53,0.464-1.17,0.695-1.9,0.695
	c-0.46,0-0.89-0.106-1.28-0.32c-0.38-0.213-0.67-0.523-0.87-0.93c-0.2-0.406-0.3-0.869-0.3-1.391c0-0.677,0.16-1.336,0.47-1.977
	c0.31-0.64,0.72-1.114,1.22-1.422c0.5-0.307,1.04-0.461,1.62-0.461c0.74,0,1.33,0.23,1.78,0.688c0.44,0.458,0.66,1.088,0.66,1.891
	c0,0.303-0.02,0.614-0.08,0.938h-4.57c-0.03,0.115-0.04,0.224-0.04,0.328c0,0.583,0.14,1.025,0.41,1.328
	c0.27,0.302,0.6,0.453,0.98,0.453c0.37,0,0.73-0.117,1.08-0.352C194.61,130.25,194.89,129.908,195.09,129.461L195.09,129.461z
	 M192.01,127.913h3.48c0.01-0.113,0.02-0.191,0.02-0.233c0-0.531-0.14-0.937-0.4-1.219c-0.27-0.281-0.61-0.422-1.02-0.422
	c-0.46,0-0.88,0.157-1.25,0.469C192.46,126.82,192.18,127.289,192.01,127.913L192.01,127.913z M200.72,129.211
	c0-1.219,0.35-2.225,1.06-3.016c0.59-0.657,1.37-0.985,2.33-0.985c0.75,0,1.35,0.235,1.81,0.703c0.46,0.469,0.69,1.099,0.69,1.891
	c0,0.719-0.15,1.386-0.44,2c-0.29,0.615-0.7,1.086-1.23,1.414c-0.53,0.328-1.1,0.492-1.69,0.492c-0.48,0-0.92-0.104-1.31-0.313
	c-0.4-0.208-0.7-0.503-0.91-0.883S200.72,129.7,200.72,129.211L200.72,129.211z M201.77,129.102c0,0.583,0.14,1.026,0.42,1.328
	c0.28,0.302,0.64,0.453,1.08,0.453c0.22,0,0.45-0.044,0.67-0.133c0.23-0.089,0.43-0.227,0.62-0.414s0.35-0.401,0.49-0.641
	c0.13-0.24,0.24-0.5,0.32-0.781c0.13-0.386,0.189-0.756,0.189-1.109c0-0.563-0.14-1-0.43-1.312c-0.28-0.313-0.64-0.469-1.07-0.469
	c-0.33,0-0.629,0.081-0.899,0.242c-0.28,0.162-0.52,0.393-0.75,0.695c-0.22,0.302-0.38,0.656-0.49,1.063
	C201.82,128.43,201.77,128.788,201.77,129.102L201.77,129.102z M207.2,131.57l1.79-8.594h1.06l-0.64,3.078
	c0.34-0.312,0.649-0.531,0.92-0.656c0.27-0.125,0.56-0.188,0.86-0.188c0.57,0,1.05,0.217,1.44,0.649
	c0.39,0.432,0.59,1.06,0.59,1.883c0,0.553-0.08,1.058-0.23,1.516c-0.16,0.459-0.35,0.844-0.58,1.156
	c-0.23,0.313-0.47,0.56-0.71,0.742c-0.25,0.183-0.5,0.32-0.76,0.414c-0.26,0.093-0.51,0.141-0.75,0.141
	c-0.41,0-0.77-0.109-1.08-0.328s-0.56-0.547-0.73-0.984l-0.25,1.172H207.2L207.2,131.57z M208.77,129.008v0.203
	c0,0.531,0.121,0.935,0.37,1.211c0.25,0.275,0.57,0.414,0.96,0.414c0.36,0,0.7-0.127,1.01-0.383s0.57-0.658,0.77-1.211
	c0.19-0.552,0.29-1.063,0.29-1.531c0-0.521-0.12-0.927-0.37-1.218c-0.25-0.292-0.56-0.438-0.94-0.438c-0.37,0-0.72,0.149-1.05,0.445
	c-0.32,0.297-0.59,0.752-0.81,1.368C208.85,128.325,208.77,128.705,208.77,129.008L208.77,129.008z M215.38,124.18l0.25-1.203h1.05
	l-0.25,1.203H215.38L215.38,124.18z M212.02,133.913l0.19-0.905c0.24,0.063,0.45,0.094,0.64,0.094c0.23,0,0.41-0.076,0.54-0.227
	c0.14-0.151,0.28-0.565,0.43-1.242l1.29-6.281h1.07l-1.35,6.469c-0.17,0.813-0.36,1.364-0.58,1.656
	c-0.29,0.385-0.7,0.578-1.23,0.578C212.75,134.055,212.41,134.008,212.02,133.913L212.02,133.913z M221.11,129.461l1.029,0.094
	c-0.15,0.511-0.49,0.998-1.029,1.461c-0.529,0.464-1.16,0.695-1.891,0.695c-0.469,0-0.898-0.106-1.289-0.32
	c-0.381-0.213-0.67-0.523-0.871-0.93c-0.199-0.406-0.299-0.869-0.299-1.391c0-0.677,0.16-1.336,0.471-1.977
	c0.309-0.64,0.719-1.114,1.219-1.422c0.5-0.307,1.041-0.461,1.631-0.461c0.74,0,1.33,0.23,1.77,0.688s0.66,1.088,0.66,1.891
	c0,0.303-0.02,0.614-0.08,0.938h-4.57c-0.02,0.115-0.029,0.224-0.029,0.328c0,0.583,0.129,1.025,0.4,1.328
	c0.27,0.302,0.6,0.453,0.988,0.453c0.361,0,0.721-0.117,1.07-0.352S220.911,129.908,221.11,129.461L221.11,129.461z M218.03,127.913
	h3.48c0.01-0.113,0.02-0.191,0.02-0.233c0-0.531-0.129-0.937-0.4-1.219c-0.27-0.281-0.609-0.422-1.02-0.422
	c-0.459,0-0.881,0.157-1.25,0.469C218.479,126.82,218.209,127.289,218.03,127.913L218.03,127.913z M227.5,129.305l1.059,0.108
	c-0.26,0.782-0.629,1.36-1.119,1.735s-1.051,0.563-1.67,0.563c-0.68,0-1.23-0.219-1.65-0.656c-0.43-0.438-0.639-1.047-0.639-1.828
	c0-0.688,0.139-1.359,0.408-2.016c0.271-0.656,0.66-1.153,1.16-1.492c0.5-0.338,1.07-0.508,1.721-0.508
	c0.66,0,1.189,0.188,1.58,0.563c0.389,0.375,0.59,0.875,0.59,1.5l-1.029,0.063c-0.01-0.396-0.131-0.704-0.361-0.922
	c-0.219-0.218-0.51-0.328-0.879-0.328c-0.43,0-0.801,0.133-1.111,0.399c-0.309,0.265-0.559,0.674-0.729,1.227
	c-0.182,0.552-0.271,1.077-0.271,1.578c0,0.531,0.121,0.93,0.352,1.195c0.24,0.266,0.529,0.398,0.869,0.398s0.67-0.13,0.99-0.391
	C227.081,130.231,227.321,129.836,227.5,129.305L227.5,129.305z M231.69,130.711l-0.17,0.859c-0.25,0.073-0.5,0.109-0.74,0.109
	c-0.43,0-0.76-0.104-1.01-0.313c-0.189-0.156-0.289-0.37-0.289-0.641c0-0.135,0.059-0.448,0.158-0.938l0.75-3.625h-0.83l0.17-0.812
	h0.83l0.33-1.531l1.201-0.735l-0.471,2.266h1.051l-0.17,0.812h-1.051l-0.719,3.438c-0.092,0.438-0.141,0.703-0.141,0.797
	c0,0.125,0.039,0.219,0.109,0.281c0.08,0.063,0.201,0.094,0.359,0.094C231.299,130.773,231.51,130.753,231.69,130.711
	L231.69,130.711z"/>
<path d="M175.19,146.271l1.29-6.219h0.94l-0.27,1.266c0.33-0.479,0.64-0.834,0.95-1.063c0.31-0.229,0.62-0.344,0.93-0.344
	c0.22,0,0.48,0.072,0.78,0.219l-0.44,0.984c-0.17-0.125-0.37-0.188-0.59-0.188c-0.38,0-0.76,0.206-1.15,0.617
	c-0.39,0.412-0.69,1.153-0.91,2.227l-0.53,2.5H175.19L175.19,146.271z M183.74,144.162l1.04,0.094
	c-0.15,0.511-0.49,0.998-1.03,1.461c-0.53,0.464-1.17,0.695-1.9,0.695c-0.46,0-0.89-0.106-1.28-0.32
	c-0.38-0.213-0.67-0.523-0.87-0.93c-0.2-0.406-0.3-0.869-0.3-1.391c0-0.677,0.16-1.336,0.47-1.977s0.72-1.114,1.22-1.423
	c0.5-0.307,1.04-0.46,1.62-0.46c0.74,0,1.33,0.229,1.78,0.688c0.44,0.458,0.66,1.089,0.66,1.891c0,0.303-0.03,0.614-0.08,0.938
	h-4.58c-0.02,0.115-0.03,0.224-0.03,0.328c0,0.584,0.14,1.025,0.41,1.328c0.27,0.302,0.6,0.453,0.98,0.453
	c0.37,0,0.73-0.117,1.07-0.352C183.27,144.951,183.55,144.609,183.74,144.162L183.74,144.162z M180.67,142.615h3.48
	c0.01-0.114,0.02-0.192,0.02-0.234c0-0.531-0.14-0.938-0.4-1.219c-0.27-0.281-0.61-0.422-1.03-0.422c-0.45,0-0.87,0.156-1.25,0.469
	C181.12,141.521,180.84,141.99,180.67,142.615L180.67,142.615z M186,146.271l1.12-5.406h-0.94l0.16-0.813h0.95l0.19-0.891
	c0.09-0.438,0.19-0.756,0.29-0.953c0.101-0.198,0.26-0.359,0.48-0.484c0.23-0.125,0.53-0.188,0.92-0.188
	c0.27,0,0.66,0.058,1.17,0.172l-0.19,0.922c-0.36-0.094-0.66-0.141-0.9-0.141c-0.21,0-0.37,0.053-0.47,0.156
	c-0.11,0.104-0.2,0.349-0.28,0.734l-0.14,0.672h1.18l-0.17,0.813h-1.19l-1.12,5.406H186L186,146.271z M193.75,144.162l1.03,0.094
	c-0.14,0.511-0.48,0.998-1.02,1.461c-0.54,0.464-1.17,0.695-1.9,0.695c-0.47,0-0.89-0.106-1.28-0.32
	c-0.38-0.213-0.68-0.523-0.87-0.93c-0.2-0.406-0.3-0.869-0.3-1.391c0-0.677,0.15-1.336,0.47-1.977c0.31-0.641,0.72-1.114,1.22-1.423
	c0.5-0.307,1.04-0.46,1.62-0.46c0.74,0,1.33,0.229,1.77,0.688c0.45,0.458,0.67,1.089,0.67,1.891c0,0.303-0.03,0.614-0.08,0.938
	h-4.58c-0.02,0.115-0.03,0.224-0.03,0.328c0,0.584,0.14,1.025,0.41,1.328c0.27,0.302,0.6,0.453,0.98,0.453
	c0.37,0,0.72-0.117,1.07-0.352C193.28,144.951,193.55,144.609,193.75,144.162L193.75,144.162z M190.67,142.615h3.49
	c0.01-0.114,0.01-0.192,0.01-0.234c0-0.531-0.13-0.938-0.39-1.219c-0.27-0.281-0.61-0.422-1.03-0.422c-0.46,0-0.87,0.156-1.25,0.469
	C191.13,141.521,190.85,141.99,190.67,142.615L190.67,142.615z M195.86,146.271l1.3-6.219h0.939l-0.27,1.266
	c0.33-0.479,0.64-0.834,0.95-1.063c0.31-0.229,0.61-0.344,0.93-0.344c0.22,0,0.48,0.072,0.78,0.219l-0.44,0.984
	c-0.18-0.125-0.37-0.188-0.59-0.188c-0.38,0-0.76,0.206-1.15,0.617c-0.39,0.412-0.7,1.153-0.92,2.227l-0.53,2.5H195.86
	L195.86,146.271z M204.42,144.162l1.03,0.094c-0.14,0.511-0.48,0.998-1.02,1.461c-0.541,0.464-1.17,0.695-1.9,0.695
	c-0.47,0-0.89-0.106-1.28-0.32c-0.39-0.213-0.68-0.523-0.87-0.93c-0.2-0.406-0.3-0.869-0.3-1.391c0-0.677,0.15-1.336,0.47-1.977
	c0.31-0.641,0.72-1.114,1.22-1.423c0.5-0.307,1.04-0.46,1.62-0.46c0.74,0,1.33,0.229,1.77,0.688c0.45,0.458,0.67,1.089,0.67,1.891
	c0,0.303-0.03,0.614-0.08,0.938h-4.58c-0.02,0.115-0.03,0.224-0.03,0.328c0,0.584,0.14,1.025,0.41,1.328
	c0.27,0.302,0.6,0.453,0.98,0.453c0.37,0,0.72-0.117,1.07-0.352S204.22,144.609,204.42,144.162L204.42,144.162z M201.34,142.615
	h3.49c0.01-0.114,0.01-0.192,0.01-0.234c0-0.531-0.13-0.938-0.39-1.219c-0.27-0.281-0.61-0.422-1.03-0.422
	c-0.46,0-0.87,0.156-1.25,0.469C201.8,141.521,201.52,141.99,201.34,142.615L201.34,142.615z M206.53,146.271l1.3-6.219h0.95
	l-0.22,1.078c0.42-0.428,0.811-0.737,1.18-0.93c0.36-0.192,0.73-0.289,1.11-0.289c0.5,0,0.89,0.136,1.18,0.406
	c0.28,0.271,0.43,0.635,0.43,1.094c0,0.229-0.05,0.594-0.15,1.094l-0.79,3.766h-1.06l0.82-3.938c0.09-0.386,0.13-0.672,0.13-0.859
	c0-0.208-0.07-0.375-0.21-0.5c-0.14-0.125-0.351-0.188-0.62-0.188c-0.54,0-1.03,0.195-1.45,0.586c-0.43,0.391-0.74,1.06-0.94,2.008
	l-0.61,2.891H206.53L206.53,146.271z M217.489,144.006l1.061,0.109c-0.26,0.781-0.629,1.359-1.119,1.734s-1.051,0.563-1.68,0.563
	c-0.67,0-1.22-0.219-1.64-0.656c-0.43-0.438-0.64-1.047-0.64-1.828c0-0.688,0.14-1.359,0.41-2.016s0.66-1.153,1.16-1.492
	c0.5-0.338,1.07-0.508,1.71-0.508c0.67,0,1.199,0.188,1.59,0.563s0.59,0.875,0.59,1.5l-1.041,0.063
	c-0.01-0.396-0.119-0.703-0.35-0.922c-0.221-0.219-0.51-0.328-0.879-0.328c-0.431,0-0.8,0.133-1.111,0.398
	c-0.31,0.266-0.56,0.674-0.73,1.227c-0.18,0.553-0.27,1.078-0.27,1.578c0,0.531,0.12,0.93,0.35,1.195
	c0.24,0.266,0.53,0.398,0.87,0.398c0.341,0,0.67-0.131,0.981-0.391C217.071,144.933,217.309,144.537,217.489,144.006
	L217.489,144.006z M223.77,144.162l1.029,0.094c-0.139,0.511-0.49,0.998-1.02,1.461c-0.539,0.464-1.17,0.695-1.9,0.695
	c-0.469,0-0.898-0.106-1.279-0.32c-0.391-0.213-0.68-0.523-0.881-0.93c-0.189-0.406-0.289-0.869-0.289-1.391
	c0-0.677,0.15-1.336,0.459-1.977c0.32-0.641,0.721-1.114,1.221-1.423c0.5-0.307,1.051-0.46,1.629-0.46
	c0.742,0,1.33,0.229,1.771,0.688c0.439,0.458,0.67,1.089,0.67,1.891c0,0.303-0.029,0.614-0.08,0.938h-4.58
	c-0.02,0.115-0.031,0.224-0.031,0.328c0,0.584,0.131,1.025,0.4,1.328c0.281,0.302,0.602,0.453,0.99,0.453
	c0.361,0,0.721-0.117,1.07-0.352S223.571,144.609,223.77,144.162L223.77,144.162z M220.69,142.615h3.49
	c0.01-0.114,0.01-0.192,0.01-0.234c0-0.531-0.131-0.938-0.4-1.219c-0.26-0.281-0.6-0.422-1.02-0.422
	c-0.461,0-0.881,0.156-1.25,0.469C221.139,141.521,220.87,141.99,220.69,142.615L220.69,142.615z"/>
<line fill="none" stroke="#000000" stroke-miterlimit="1.45" stroke-dasharray="6,2" x1="269.25" y1="219.323" x2="193.8" y2="192.685"/>
<polygon points="190.02,191.354 199.34,201.006 190.02,191.354 203.34,189.69 "/>
<polygon fill="none" stroke="#000000" stroke-linecap="square" stroke-miterlimit="10" points="190.02,191.354 199.34,201.006 
	190.02,191.354 203.34,189.69 "/>
<path fill="#808080" d="M205.57,224.638l1.1,3.109h-0.94l-1.45-3.249l2.75-2.953H208L205.57,224.638L205.57,224.638z
	 M208.28,224.638l1.06,3.109h-1l-1.34-3.266l2.64-2.937h1.06L208.28,224.638L208.28,224.638z M216.389,226.935
	c-0.87,0.99-1.759,1.485-2.669,1.485c-0.56,0-1.02-0.162-1.36-0.485c-0.34-0.323-0.52-0.718-0.52-1.187
	c0-0.303,0.08-0.823,0.24-1.563l0.87-4.203h1.24l-0.97,4.642c-0.08,0.396-0.13,0.697-0.13,0.905c0,0.271,0.09,0.484,0.25,0.642
	c0.17,0.155,0.42,0.233,0.74,0.233c0.34,0,0.68-0.086,1.01-0.258c0.34-0.172,0.62-0.401,0.86-0.687
	c0.24-0.287,0.439-0.623,0.58-1.009c0.109-0.25,0.221-0.692,0.35-1.327l0.65-3.142h1.25l-1.51,7.267h-1.16L216.389,226.935
	L216.389,226.935z M219.331,225.763l1.24-0.078c0,0.354,0.049,0.659,0.158,0.914c0.111,0.256,0.311,0.461,0.611,0.618
	c0.299,0.155,0.641,0.233,1.02,0.233c0.561,0,0.971-0.108,1.24-0.327c0.27-0.22,0.41-0.475,0.41-0.767
	c0-0.219-0.08-0.422-0.24-0.609c-0.17-0.197-0.58-0.435-1.23-0.711c-0.66-0.275-1.08-0.471-1.27-0.586
	c-0.301-0.188-0.529-0.408-0.689-0.664c-0.15-0.255-0.23-0.544-0.23-0.866c0-0.573,0.23-1.065,0.689-1.478
	c0.451-0.411,1.1-0.617,1.92-0.617c0.9,0,1.6,0.211,2.08,0.634c0.48,0.422,0.721,0.976,0.73,1.664l-1.199,0.077
	c-0.021-0.438-0.182-0.783-0.471-1.039c-0.291-0.255-0.699-0.383-1.24-0.383c-0.42,0-0.76,0.1-1,0.297
	c-0.23,0.198-0.35,0.411-0.35,0.642c0,0.218,0.1,0.416,0.309,0.593c0.131,0.115,0.49,0.297,1.061,0.547
	c0.951,0.406,1.541,0.729,1.781,0.969c0.398,0.386,0.6,0.85,0.6,1.392c0,0.354-0.109,0.705-0.33,1.054s-0.561,0.628-1.01,0.836
	c-0.451,0.209-0.99,0.313-1.6,0.313c-0.852,0-1.561-0.209-2.141-0.625C219.581,227.378,219.299,226.7,219.331,225.763
	L219.331,225.763z M231.549,225.778l1.211,0.125c-0.18,0.594-0.58,1.162-1.201,1.703c-0.619,0.542-1.359,0.813-2.229,0.813
	c-0.531,0-1.021-0.125-1.471-0.375c-0.459-0.25-0.801-0.612-1.029-1.086c-0.24-0.475-0.361-1.014-0.361-1.617
	c0-0.803,0.191-1.576,0.561-2.321c0.371-0.744,0.85-1.297,1.43-1.656c0.58-0.358,1.211-0.539,1.891-0.539
	c0.859,0,1.551,0.269,2.07,0.806c0.51,0.536,0.77,1.268,0.77,2.194c0,0.354-0.029,0.72-0.09,1.095h-5.34
	c-0.029,0.146-0.041,0.275-0.041,0.39c0,0.677,0.16,1.196,0.471,1.555c0.32,0.359,0.699,0.539,1.16,0.539
	c0.42,0,0.83-0.141,1.24-0.422S231.321,226.3,231.549,225.778L231.549,225.778z M227.959,223.981h4.08c0-0.125,0-0.219,0-0.281
	c0-0.614-0.16-1.086-0.459-1.414c-0.311-0.327-0.711-0.491-1.201-0.491c-0.529,0-1.02,0.182-1.449,0.547
	C228.491,222.705,228.17,223.253,227.959,223.981L227.959,223.981z M236.62,224.685l-1.02-3.14h0.99l1.311,3.312l-2.67,2.891H234.1
	L236.62,224.685L236.62,224.685z M239.29,224.747l-1.01-3.202h0.92l1.4,3.312l-2.779,2.891h-0.98L239.29,224.747L239.29,224.747z"/>
<line fill="none" stroke="#808080" stroke-miterlimit="1.45" stroke-dasharray="6,2" x1="118.24" y1="166.868" x2="89.58" y2="150.294"/>
</svg>
